{
.appVersion = "3260";
.formatVersion = 3;
axes = (
{
name = Weight;
tag = wght;
}
);
classes = (
{
automatic = 1;
code = "A Aacute Abreve Acircumflex Adieresis Adotbelow Agrave Amacron Aogonek Aring Aringacute Atilde AE AEacute B C Cacute Ccaron Ccedilla Ccedillaacute Ccircumflex Cdotaccent D Dcaron Dcroat Ddotbelow Dmacronbelow Eth E Eacute Ebreve Ecaron Ecedillabreve Ecircumflex Edieresis Edotaccent Edotbelow Egrave Emacron Emacronacute Emacrongrave Eogonek Etilde Schwa F G Gbreve Gcaron Gcircumflex Gcommaaccent Gdotaccent Gmacron H Hbar Hbrevebelow Hcircumflex Hdotbelow I IJ Iacute Ibreve Icircumflex Idieresis Idieresisacute Idotaccent Idotbelow Igrave Imacron Iogonek Itilde J Jacute Jcircumflex K Kcommaaccent L Lacute Lcaron Lcommaaccent Ldot Ldotbelow Lmacronbelow Lslash M Mdotbelow N Nacute Ncaron Ncommaaccent Ndotaccent Ndotbelow Nhookleft Nmacronbelow Ntilde Eng O Oacute Obreve Ocircumflex Odieresis Odotbelow Ograve Ohungarumlaut Omacron Omacronacute Omacrongrave Oogonek Oslash Oslashacute Otilde Otildeacute Otildedieresis OE P Thorn Q R Racute Rcaron Rcommaaccent Rdotbelow Rmacronbelow S Sacute Sacutedotaccent Scaron Scarondotaccent Scedilla Scircumflex Scommaaccent Sdotaccent Sdotbelow Sdotbelowdotaccent Germandbls T Tbar Tcaron Tcedilla Tcommaaccent Tdotbelow Tmacronbelow U Uacute Ubreve Ucircumflex Udieresis Udotbelow Ugrave Uhungarumlaut Umacron Umacrondieresis Uogonek Uring Utilde Utildeacute V W Wacute Wcircumflex Wdieresis Wgrave X Y Yacute Ycircumflex Ydieresis Ydotaccent Ygrave Ymacron Ytilde Z Zacute Zcaron Zdotaccent Zdotbelow Delta Omega";
name = Uppercase;
}
);
customParameters = (
{
name = blueScale;
value = 0.037;
},
{
name = fsType;
value = (
);
},
{
name = "Use Typo Metrics";
value = 1;
},
{
name = "gasp Table";
value = {
"21" = 7;
"65535" = 15;
"9" = 10;
};
},
{
name = panose;
value = (
2,
11,
3,
4,
4,
4,
2,
0,
2,
3
);
},
{
name = unicodeRanges;
value = (
0,
1
);
},
{
name = codePageRanges;
value = (
"1252"
);
},
{

glyphs = (
{
glyphname = A;
kernLeft = A;
kernRight = A;
lastChange = "2024-07-19 12:08:54 +0000";
layers = (
{
anchors = (
{
name = bottom;
pos = (310,0);
},
{
name = ogonek;
pos = (557,0);
},
{
name = top;
pos = (310,660);
}
);
layerId = "F5467FAD-1970-4982-B3D3-939C01050498";
shapes = (
{
closed = 1;
nodes = (
(63,0,l),
(162,246,l),
(123,207,l),
(498,207,l),
(458,246,l),
(557,0,l),
(602,0,l),
(334,660,l),
(287,660,l),
(19,0,l)
);
},
{
closed = 1;
nodes = (
(320,636,l),
(301,636,l),
(480,192,l),
(488,235,l),
(133,235,l),
(141,192,l)
);
}
);
width = 639;
},
{
anchors = (
{
name = bottom;
pos = (383,0);
},
{
name = ogonek;
pos = (576,0);
},
{
name = top;
pos = (384,660);
}
);
layerId = "6DD95C5A-998B-41AB-BDFB-84A73C209871";
shapes = (
{
closed = 1;
nodes = (
(190,0,l),
(275,207,l),
(217,167,l),
(550,167,l),
(491,207,l),
(576,0,l),
(729,0,l),
(461,660,l),
(306,660,l),
(38,0,l)
);
},
{
closed = 1;
nodes = (
(400,509,l),
(367,509,l),
(481,232,l),
(507,272,l),
(259,272,l),
(286,232,l)
);
}
);
width = 767;
},
{
anchors = (
{
name = bottom;
pos = (299,0);
},
{
name = ogonek;
pos = (554,0);
},
{
name = top;
pos = (299,660);
}
);
layerId = "1FDC7037-1F88-4969-8535-0F79C1EF19DB";
shapes = (
{
closed = 1;
nodes = (
(42,0,l),
(144,253,l),
(108,213,l),
(489,213,l),
(453,253,l),
(554,0,l),
(581,0,l),
(313,660,l),
(284,660,l),
(16,0,l)
);
},
{
closed = 1;
nodes = (
(306,655,l),
(290,655,l),
(480,186,l),
(485,229,l),
(113,229,l),
(117,186,l)
);
}
);
width = 620;
},
{
anchors = (
{
name = bottom;
pos = (401,0);
},
{
name = ogonek;
pos = (581,0);
},
{
name = top;
pos = (402,660);
}
);
guides = (
{
pos = (0,-330);
},
{
pos = (0,-220);
},
{
pos = (0,-110);
},
{
},
{
pos = (0,110);
},
{
pos = (0,220);
},
{
pos = (0,330);
},
{
pos = (0,440);
},
{
pos = (0,550);
},
{
pos = (0,660);
},
{
pos = (0,770);
},
{
pos = (0,-330);
},
{
pos = (0,-220);
},
{
pos = (0,-110);
},
{
},
{
pos = (0,110);
},
{
pos = (0,220);
},
{
pos = (0,330);
},
{
pos = (0,440);
},
{
pos = (0,550);
},
{
pos = (0,660);
},
{
pos = (0,770);
}
);
layerId = "3ED9E848-BE83-4CAC-8EFF-D71BD2B4F667";
shapes = (
{
closed = 1;
nodes = (
(338,660,ls),
(321,660,o),
(306,650,o),
(300,634,cs),
(288,605,ls),
(277,577,o),
(304,550,o),
(344,550,cs),
(458,550,ls),
(498,550,o),
(522,585,o),
(507,623,cs),
(506,625,ls),
(496,649,o),
(479,660,o),
(454,660,cs)
);
},
{
closed = 1;
nodes = (
(616,110,ls),
(575,110,o),
(551,74,o),
(567,37,cs),
(571,26,ls),
(577,10,o),
(592,0,o),
(609,0,cs),
(680,0,ls),
(721,0,o),
(745,36,o),
(729,73,cs),
(725,84,ls),
(719,100,o),
(704,110,o),
(687,110,cs)
);
},
{
closed = 1;
nodes = (
(188,110,l),
(239,110,ls),
(256,110,o),
(271,120,o),
(277,136,cs),
(285,154,ls),
(291,168,o),
(282,184,o),
(272,177,cs),
(272,177,ls),
(263,171,o),
(354,157,o),
(402,157,cs),
(402,157,ls),
(451,157,o),
(541,171,o),
(532,177,cs),
(532,177,ls),
(521,184,o),
(518,155,o),
(526,135,cs),
(526,135,ls),
(532,120,o),
(546,110,o),
(563,110,cs),
(635,110,ls),
(676,110,o),
(700,146,o),
(684,183,cs),
(680,194,ls),
(674,210,o),
(659,220,o),
(642,220,cs),
(211,220,l),
(160,220,ls),
(143,220,o),
(128,210,o),
(122,194,cs),
(110,165,ls),
(99,137,o),
(126,110,o),
(166,110,cs),
(188,110,l),
(166,110,l),
(115,110,ls),
(98,110,o),
(83,100,o),
(77,84,cs),
(65,55,ls),
(54,27,o),
(81,0,o),
(121,0,cs),
(195,0,ls),
(212,0,o),
(227,10,o),
(233,25,cs),
(245,55,ls),
(256,83,o),
(228,110,o),
(188,110,cs),
(166,110,l)
);
},
{
closed = 1;
nodes = (
(280,330,l),
(332,330,ls),
(349,330,o),
(364,340,o),
(370,355,cs),
(394,414,ls),
(400,430,o),
(415,440,o),
(432,440,cs),
(503,440,ls),
(543,440,o),
(567,476,o),
(552,513,cs),
(547,524,ls),
(541,540,o),
(526,550,o),
(509,550,cs),
(344,550,l),
(294,550,ls),
(277,550,o),
(262,540,o),
(256,524,cs),
(244,495,ls),
(233,467,o),
(260,440,o),
(300,440,cs),
(319,440,l),
(372,440,ls),
(389,440,o),
(404,430,o),
(410,415,cs),
(434,356,ls),
(440,340,o),
(455,330,o),
(472,330,cs),
(546,330,ls),
(587,330,o),
(611,366,o),
(595,403,cs),
(591,414,ls),
(585,430,o),
(570,440,o),
(553,440,c),
(404,440,l),
(412,459,o),
(411,478,o),
(402,478,cs),
(402,478,ls),
(393,478,o),
(387,468,o),
(391,459,cs),
(391,459,ls),
(395,450,o),
(360,440,o),
(319,440,cs),
(249,440,ls),
(232,440,o),
(217,430,o),
(211,414,cs),
(199,385,ls),
(188,357,o),
(215,330,o),
(255,330,cs),
(280,330,l),
(255,330,l),
(205,330,ls),
(188,330,o),
(173,320,o),
(167,304,cs),
(155,275,ls),
(144,247,o),
(171,220,o),
(211,220,cs),
(592,220,ls),
(632,220,o),
(656,256,o),
(641,293,cs),
(636,304,ls),
(630,320,o),
(615,330,o),
(598,330,cs),
(525,330,ls),
(484,330,o),
(453,308,o),
(463,286,cs),
(463,286,ls),
(472,265,o),
(489,251,o),
(497,261,cs),
(497,261,ls),
(504,270,o),
(450,281,o),
(401,281,cs),
(401,281,ls),
(352,281,o),
(299,270,o),
(306,261,cs),
(306,261,ls),
(314,251,o),
(332,264,o),
(341,286,cs),
(341,286,ls),
(350,309,o),
(321,330,o),
(280,330,cs),
(255,330,l)
);
}
);
width = 798;
}
);
note = A;
unicode = 65;
},
{
glyphname = AE;
kernLeft = A;
kernRight = E;
lastChange = "2024-07-19 12:14:04 +0000";
layers = (
{
anchors = (
{
name = top;
pos = (666,660);
}
);
layerId = "F5467FAD-1970-4982-B3D3-939C01050498";
shapes = (
{
closed = 1;
nodes = (
(110,0,l),
(248,243,l),
(468,243,l),
(468,0,l),
(965,0,l),
(965,28,l),
(507,28,l),
(507,319,l),
(944,319,l),
(944,349,l),
(507,349,l),
(507,631,l),
(954,631,l),
(954,660,l),
(436,660,l),
(60,0,l)
);
},
{
closed = 1;
nodes = (
(468,633,l),
(468,269,l),
(262,269,l)
);
}
);
width = 1009;
},
{
anchors = (
{
name = top;
pos = (636,660);
}
);
layerId = "6DD95C5A-998B-41AB-BDFB-84A73C209871";
shapes = (
{
closed = 1;
nodes = (
(171,0,l),
(264,165,l),
(459,165,l),
(459,0,l),
(1005,0,l),
(1005,117,l),
(604,117,l),
(604,279,l),
(986,279,l),
(986,396,l),
(604,396,l),
(604,543,l),
(996,543,l),
(996,660,l),
(383,660,l),
(8,0,l)
);
},
{
closed = 1;
nodes = (
(459,510,l),
(459,270,l),
(323,270,l)
);
}
);
width = 1009;
},
{
anchors = (
{
name = top;
pos = (670,660);
}
);
layerId = "1FDC7037-1F88-4969-8535-0F79C1EF19DB";
shapes = (
{
closed = 1;
nodes = (
(101,0,l),
(245,256,l),
(469,256,l),
(469,0,l),
(958,0,l),
(958,14,l),
(492,14,l),
(492,325,l),
(937,325,l),
(937,341,l),
(492,341,l),
(492,645,l),
(948,645,l),
(948,660,l),
(444,660,l),
(69,0,l)
);
},
{
closed = 1;
nodes = (
(469,653,l),
(469,269,l),
(252,269,l)
);
}
);
width = 1009;
},
{
anchors = (
{
name = top;
pos = (628,660);
}
);
guides = (
{
pos = (0,-330);
},
{
pos = (0,-220);
},
{
pos = (0,-110);
},
{
},
{
pos = (0,110);
},
{
pos = (0,220);
},
{
pos = (0,330);
},
{
pos = (0,440);
},
{
pos = (0,550);
},
{
pos = (0,660);
},
{
pos = (0,770);
}
);
layerId = "3ED9E848-BE83-4CAC-8EFF-D71BD2B4F667";
shapes = (
{
closed = 1;
nodes = (
(971,0,ls),
(1000,0,o),
(1016,16,o),
(1016,45,cs),
(1016,94,ls),
(1016,123,o),
(1000,139,o),
(971,139,cs),
(673,139,ls),
(644,139,o),
(628,152,o),
(628,175,cs),
(628,175,ls),
(628,204,o),
(612,220,o),
(583,220,cs),
(156,220,ls),
(132,220,o),
(114,211,o),
(102,189,cs),
(88,164,ls),
(70,133,o),
(84,110,o),
(119,110,cs),
(212,110,ls),
(237,110,o),
(251,115,o),
(258,128,cs),
(258,128,ls),
(265,141,o),
(279,146,o),
(304,146,cs),
(412,146,ls),
(441,146,o),
(457,133,o),
(457,110,cs),
(457,110,l),
(457,0,l)
);
},
{
closed = 1;
nodes = (
(406,660,ls),
(382,660,o),
(364,651,o),
(352,629,cs),
(338,604,ls),
(321,573,o),
(335,550,o),
(370,550,cs),
(961,550,ls),
(990,550,o),
(1006,566,o),
(1006,595,cs),
(1006,660,l)
);
},
{
closed = 1;
nodes = (
(93,110,ls),
(69,110,o),
(51,101,o),
(39,79,cs),
(25,54,ls),
(7,23,o),
(21,0,o),
(56,0,cs),
(150,0,ls),
(174,0,o),
(192,9,o),
(204,31,cs),
(218,56,ls),
(235,87,o),
(221,110,o),
(186,110,cs)
);
},
{
closed = 1;
nodes = (
(502,330,ls),
(473,330,o),
(457,314,o),
(457,285,cs),
(457,270,l),
(339,270,l),
(343,276,ls),
(360,307,o),
(346,330,o),
(311,330,cs),
(219,330,ls),
(195,330,o),
(177,321,o),
(165,299,cs),
(151,274,ls),
(133,243,o),
(147,220,o),
(182,220,cs),
(583,220,ls),
(612,220,o),
(628,236,o),
(628,265,cs),
(628,270,l),
(952,270,ls),
(981,270,o),
(997,281,o),
(997,300,cs),
(997,300,ls),
(997,319,o),
(981,330,o),
(952,330,cs)
);
},
{
closed = 1;
nodes = (
(281,440,ls),
(257,440,o),
(239,431,o),
(227,409,cs),
(213,384,ls),
(196,353,o),
(210,330,o),
(245,330,cs),
(337,330,ls),
(361,330,o),
(379,339,o),
(391,361,cs),
(405,386,ls),
(422,417,o),
(408,440,o),
(373,440,cs)
);
},
{
closed = 1;
nodes = (
(502,440,ls),
(473,440,o),
(457,424,o),
(457,395,cs),
(457,375,ls),
(457,346,o),
(473,330,o),
(502,330,cs),
(952,330,ls),
(981,330,o),
(997,344,o),
(997,369,cs),
(997,369,ls),
(997,394,o),
(981,407,o),
(952,407,cs),
(628,407,l),
(628,407,ls),
(628,428,o),
(612,440,o),
(583,440,cs)
);
},
{
closed = 1;
nodes = (
(344,550,ls),
(320,550,o),
(302,541,o),
(290,519,cs),
(276,494,ls),
(258,463,o),
(272,440,o),
(307,440,cs),
(399,440,ls),
(424,440,o),
(440,450,o),
(452,472,cs),
(457,480,l),
(457,480,ls),
(457,454,o),
(473,440,o),
(502,440,cs),
(583,440,ls),
(612,440,o),
(628,456,o),
(628,485,cs),
(628,521,l),
(961,521,ls),
(990,521,o),
(1006,527,o),
(1006,536,cs),
(1006,536,ls),
(1006,545,o),
(990,550,o),
(961,550,cs)
);
}
);
width = 1009;
}
);
note = AE;
unicode = 198;
},
{
glyphname = B;
kernLeft = B;
kernRight = B;
lastChange = "2024-07-19 21:09:43 +0000";
layers = (
{
layerId = "F5467FAD-1970-4982-B3D3-939C01050498";
shapes = (
{
closed = 1;
nodes = (
(276,0,ls),
(422,0,o),
(521,62,o),
(521,196,cs),
(521,323,o),
(438,385,o),
(292,389,c),
(356,405,o),
(400,443,o),
(400,521,cs),
(400,627,o),
(320,660,o),
(217,660,cs),
(53,660,l),
(53,0,l)
);
},
{
closed = 1;
nodes = (
(93,369,l),
(272,369,ls),
(389,369,o),
(479,316,o),
(479,196,cs),
(479,80,o),
(392,29,o),
(267,29,cs),
(93,29,l)
);
},
{
closed = 1;
nodes = (
(93,631,l),
(217,631,ls),
(307,631,o),
(360,583,o),
(360,511,cs),
(360,440,o),
(309,389,o),
(213,389,cs),
(93,389,l)
);
}
);
width = 565;
},
{
layerId = "6DD95C5A-998B-41AB-BDFB-84A73C209871";
shapes = (
{
closed = 1;
nodes = (
(297,0,ls),
(448,0,o),
(566,73,o),
(566,212,cs),
(566,320,o),
(503,372,o),
(420,395,c),
(446,422,o),
(460,457,o),
(460,498,cs),
(460,620,o),
(352,660,o),
(245,660,cs),
(47,660,l),
(47,0,l)
);
},
{
closed = 1;
nodes = (
(191,332,l),
(278,332,ls),
(372,332,o),
(421,297,o),
(421,212,cs),
(421,136,o),
(365,108,o),
(280,108,cs),
(191,108,l)
);
},
{
closed = 1;
nodes = (
(191,552,l),
(245,552,ls),
(293,552,o),
(325,532,o),
(325,479,cs),
(325,436,o),
(293,413,o),
(242,413,cs),
(191,413,l)
);
}
);
width = 594;
},
{
layerId = "1FDC7037-1F88-4969-8535-0F79C1EF19DB";
shapes = (
{
closed = 1;
nodes = (
(273,0,ls),
(418,0,o),
(513,60,o),
(513,193,cs),
(513,323,o),
(427,387,o),
(272,388,c),
(341,402,o),
(390,440,o),
(390,525,cs),
(390,628,o),
(315,660,o),
(212,660,cs),
(54,660,l),
(54,0,l)
);
},
{
closed = 1;
nodes = (
(77,374,l),
(271,374,ls),
(391,374,o),
(488,319,o),
(488,193,cs),
(488,72,o),
(397,17,o),
(265,17,cs),
(77,17,l)
);
},
{
closed = 1;
nodes = (
(77,643,l),
(212,643,ls),
(309,643,o),
(366,591,o),
(366,516,cs),
(366,441,o),
(312,385,o),
(208,385,cs),
(77,385,l)
);
}
);
width = 560;
},
{
guides = (
{
pos = (0,-330);
},
{
pos = (0,-220);
},
{
pos = (0,-110);
},
{
},
{
pos = (0,110);
},
{
pos = (0,220);
},
{
pos = (0,330);
},
{
pos = (0,440);
},
{
pos = (0,550);
},
{
pos = (0,660);
},
{
pos = (0,770);
}
);
layerId = "3ED9E848-BE83-4CAC-8EFF-D71BD2B4F667";
shapes = (
{
closed = 1;
nodes = (
(400,550,ls),
(436,550,o),
(456,578,o),
(429,604,cs),
(386,644,o),
(317,660,o),
(252,660,cs),
(91,660,ls),
(62,660,o),
(46,644,o),
(46,615,cs),
(46,550,l)
);
},
{
closed = 1;
nodes = (
(91,110,ls),
(62,110,o),
(46,94,o),
(46,65,cs),
(46,45,ls),
(46,16,o),
(62,0,o),
(91,0,cs),
(302,0,ls),
(378,0,o),
(447,19,o),
(496,55,cs),
(528,78,o),
(511,110,o),
(471,110,cs)
);
},
{
closed = 1;
nodes = (
(406,220,l),
(406,219,o),
(406,217,o),
(406,216,cs),
(406,149,o),
(358,128,o),
(284,128,cs),
(216,128,l),
(216,175,ls),
(216,204,o),
(200,220,o),
(171,220,cs),
(91,220,ls),
(62,220,o),
(46,204,o),
(46,175,cs),
(46,155,ls),
(46,126,o),
(62,110,o),
(91,110,cs),
(512,110,ls),
(537,110,o),
(555,119,o),
(564,142,cs),
(573,164,o),
(577,189,o),
(577,216,cs),
(577,217,o),
(577,217,o),
(577,218,cs),
(577,219,o),
(561,220,o),
(532,220,cs)
);
},
{
closed = 1;
nodes = (
(91,330,ls),
(62,330,o),
(46,314,o),
(46,285,cs),
(46,265,ls),
(46,236,o),
(62,220,o),
(91,220,cs),
(171,220,ls),
(200,220,o),
(216,236,o),
(216,265,cs),
(216,323,l),
(279,323,ls),
(347,323,o),
(386,305,o),
(400,261,cs),
(409,234,o),
(421,220,o),
(448,220,cs),
(530,220,ls),
(560,220,o),
(579,237,o),
(572,267,cs),
(569,279,o),
(566,290,o),
(561,300,cs),
(551,322,o),
(532,330,o),
(508,330,cs)
);
},
{
closed = 1;
nodes = (
(338,440,ls),
(316,440,o),
(303,430,o),
(281,423,cs),
(272,420,o),
(262,419,o),
(250,419,cs),
(216,419,l),
(216,419,ls),
(216,432,o),
(200,440,o),
(171,440,cs),
(91,440,ls),
(62,440,o),
(46,424,o),
(46,395,cs),
(46,375,ls),
(46,346,o),
(62,330,o),
(91,330,cs),
(455,330,ls),
(497,330,o),
(513,366,o),
(476,385,cs),
(468,389,o),
(459,393,o),
(451,396,c),
(455,403,o),
(458,410,o),
(461,417,cs),
(466,431,o),
(445,440,o),
(412,440,cs)
);
},
{
closed = 1;
nodes = (
(91,550,ls),
(62,550,o),
(46,534,o),
(46,505,cs),
(46,485,ls),
(46,456,o),
(62,440,o),
(91,440,cs),
(171,440,ls),
(200,440,o),
(216,456,o),
(216,485,cs),
(216,532,l),
(252,532,ls),
(290,532,o),
(317,520,o),
(317,472,cs),
(317,466,o),
(316,460,o),
(315,455,cs),
(312,445,o),
(328,440,o),
(360,440,cs),
(427,440,ls),
(454,440,o),
(473,453,o),
(475,481,cs),
(475,484,o),
(475,488,o),
(475,492,cs),
(475,503,o),
(474,512,o),
(473,522,cs),
(470,541,o),
(451,550,o),
(425,550,cs)
);
}
);
width = 601;
}
);
note = B;
unicode = 66;
},
{
glyphname = C;
kernLeft = C;
kernRight = C;
lastChange = "2024-07-19 12:08:54 +0000";
layers = (
{
anchors = (
{
name = bottom;
pos = (361,0);
},
{
name = top;
pos = (361,660);
}
);
layerId = "F5467FAD-1970-4982-B3D3-939C01050498";
shapes = (
{
closed = 1;
nodes = (
(469,-5,o),
(554,34,o),
(611,101,c),
(571,120,l),
(521,60,o),
(441,25,o),
(361,25,cs),
(198,25,o),
(83,155,o),
(83,328,cs),
(83,503,o),
(199,636,o),
(361,636,cs),
(443,636,o),
(524,598,o),
(575,535,c),
(614,554,l),
(556,624,o),
(470,665,o),
(361,665,cs),
(162,665,o),
(32,515,o),
(32,328,cs),
(32,143,o),
(163,-5,o),
(361,-5,cs)
);
}
);
width = 653;
},
{
anchors = (
{
name = bottom;
pos = (390,0);
},
{
name = top;
pos = (390,660);
}
);
layerId = "6DD95C5A-998B-41AB-BDFB-84A73C209871";
shapes = (
{
closed = 1;
nodes = (
(522,-5,o),
(631,58,o),
(682,142,c),
(554,205,l),
(514,134,o),
(459,104,o),
(390,104,cs),
(282,104,o),
(202,194,o),
(202,328,cs),
(202,464,o),
(283,556,o),
(390,556,cs),
(461,556,o),
(517,524,o),
(556,450,c),
(684,514,l),
(632,601,o),
(523,665,o),
(390,665,cs),
(183,665,o),
(47,507,o),
(47,328,cs),
(47,151,o),
(185,-5,o),
(390,-5,cs)
);
}
);
width = 703;
},
{
anchors = (
{
name = bottom;
pos = (356,0);
},
{
name = top;
pos = (356,660);
}
);
layerId = "1FDC7037-1F88-4969-8535-0F79C1EF19DB";
shapes = (
{
closed = 1;
nodes = (
(460,-5,o),
(541,30,o),
(600,94,c),
(574,107,l),
(521,49,o),
(438,12,o),
(356,12,cs),
(185,12,o),
(64,148,o),
(64,328,cs),
(64,509,o),
(186,648,o),
(356,648,cs),
(440,648,o),
(525,609,o),
(578,548,c),
(603,561,l),
(544,628,o),
(461,665,o),
(356,665,cs),
(158,665,o),
(29,516,o),
(29,328,cs),
(29,142,o),
(159,-5,o),
(356,-5,cs)
);
}
);
width = 646;
},
{
anchors = (
{
name = bottom;
pos = (398,0);
},
{
name = top;
pos = (398,660);
}
);
guides = (
{
pos = (0,-330);
},
{
pos = (0,-220);
},
{
pos = (0,-110);
},
{
},
{
pos = (0,110);
},
{
pos = (0,220);
},
{
pos = (0,330);
},
{
pos = (0,440);
},
{
pos = (0,550);
},
{
pos = (0,660);
},
{
pos = (0,770);
}
);
layerId = "3ED9E848-BE83-4CAC-8EFF-D71BD2B4F667";
shapes = (
{
closed = 1;
nodes = (
(462,660,l),
(441,663,o),
(420,665,o),
(398,665,cs),
(376,665,o),
(355,663,o),
(335,660,c)
);
},
{
closed = 1;
nodes = (
(335,0,l),
(355,-3,o),
(376,-5,o),
(398,-5,cs),
(420,-5,o),
(441,-3,o),
(462,0,c)
);
},
{
closed = 1;
nodes = (
(220,110,ls),
(178,110,o),
(163,77,o),
(198,54,cs),
(231,32,o),
(267,15,o),
(308,5,cs),
(328,1,o),
(342,0,o),
(362,0,cs),
(435,0,ls),
(455,0,o),
(469,1,o),
(489,5,cs),
(532,16,o),
(572,32,o),
(605,54,cs),
(640,77,o),
(625,110,o),
(583,110,cs)
);
},
{
closed = 1;
nodes = (
(553,220,ls),
(555,220,o),
(552,223,o),
(549,225,cs),
(549,225,l),
(548,224,o),
(548,223,o),
(547,222,cs),
(547,221,o),
(550,220,o),
(553,220,cs)
);
},
{
closed = 1;
nodes = (
(553,220,ls),
(549,220,o),
(542,210,o),
(527,189,cs),
(494,143,o),
(451,124,o),
(398,124,cs),
(347,124,o),
(302,148,o),
(271,189,cs),
(257,210,o),
(241,220,o),
(217,220,cs),
(127,220,ls),
(93,220,o),
(76,198,o),
(93,167,cs),
(99,156,o),
(105,146,o),
(112,136,cs),
(126,117,o),
(144,110,o),
(167,110,cs),
(635,110,ls),
(659,110,o),
(685,131,o),
(685,131,cs),
(685,131,o),
(685,131,o),
(685,131,cs),
(695,144,o),
(683,161,o),
(655,174,cs),
(585,207,ls),
(566,216,o),
(557,220,o),
(553,220,cs)
);
},
{
closed = 1;
nodes = (
(51,330,l),
(51,329,o),
(51,329,o),
(51,328,cs),
(51,304,o),
(53,281,o),
(58,258,cs),
(64,232,o),
(82,220,o),
(108,220,cs),
(200,220,ls),
(232,220,o),
(243,238,o),
(237,270,cs),
(233,288,o),
(231,307,o),
(231,328,cs),
(231,329,o),
(231,329,o),
(231,330,c)
);
},
{
closed = 1;
nodes = (
(109,440,ls),
(83,440,o),
(65,428,o),
(59,402,cs),
(57,394,o),
(56,385,o),
(54,377,cs),
(50,347,o),
(68,330,o),
(98,330,cs),
(188,330,ls),
(216,330,o),
(230,345,o),
(234,373,cs),
(235,379,o),
(236,385,o),
(237,390,cs),
(244,422,o),
(233,440,o),
(201,440,cs)
);
},
{
closed = 1;
nodes = (
(546,440,l),
(548,436,o),
(550,433,o),
(552,429,c),
(552,429,ls),
(560,433,o),
(565,440,o),
(560,440,cs)
);
},
{
closed = 1;
nodes = (
(168,550,ls),
(145,550,o),
(127,543,o),
(113,524,cs),
(106,514,o),
(100,503,o),
(94,493,cs),
(77,462,o),
(94,440,o),
(128,440,cs),
(218,440,ls),
(242,440,o),
(258,450,o),
(272,471,cs),
(302,513,o),
(347,537,o),
(398,537,cs),
(452,537,o),
(494,517,o),
(527,471,cs),
(542,450,o),
(551,440,o),
(560,440,cs),
(560,440,ls),
(570,440,o),
(581,444,o),
(600,453,cs),
(659,483,ls),
(686,496,o),
(686,528,o),
(686,528,cs),
(686,528,o),
(686,528,o),
(686,528,cs),
(675,544,o),
(658,550,o),
(635,550,cs)
);
},
{
closed = 1;
nodes = (
(362,660,ls),
(342,660,o),
(328,659,o),
(308,654,cs),
(268,644,o),
(230,628,o),
(198,606,cs),
(163,583,o),
(178,550,o),
(220,550,cs),
(582,550,ls),
(624,550,o),
(639,583,o),
(603,606,cs),
(570,628,o),
(531,645,o),
(489,655,cs),
(469,659,o),
(455,660,o),
(435,660,cs)
);
}
);
width = 715;
}
);
note = C;
unicode = 67;
},
{
glyphname = D;
kernLeft = B;
kernRight = D;
lastChange = "2024-07-19 12:09:14 +0000";
layers = (
{
anchors = (
{
name = bottom;
pos = (295,0);
},
{
name = top;
pos = (295,660);
}
);
layerId = "F5467FAD-1970-4982-B3D3-939C01050498";
shapes = (
{
closed = 1;
nodes = (
(222,0,ls),
(419,0,o),
(567,98,o),
(567,331,cs),
(567,568,o),
(399,660,o),
(205,660,cs),
(53,660,l),
(53,0,l)
);
},
{
closed = 1;
nodes = (
(92,620,l),
(205,621,ls),
(378,622,o),
(521,552,o),
(521,331,cs),
(521,118,o),
(401,39,o),
(222,39,cs),
(92,39,l)
);
}
);
width = 600;
},
{
anchors = (
{
name = bottom;
pos = (323,0);
},
{
name = top;
pos = (323,660);
}
);
layerId = "6DD95C5A-998B-41AB-BDFB-84A73C209871";
shapes = (
{
closed = 1;
nodes = (
(259,0,ls),
(468,0,o),
(618,103,o),
(618,331,cs),
(618,565,o),
(447,660,o),
(245,660,cs),
(47,660,l),
(47,0,l)
);
},
{
closed = 1;
nodes = (
(192,552,l),
(245,552,ls),
(378,552,o),
(468,498,o),
(468,331,cs),
(468,166,o),
(399,108,o),
(259,108,cs),
(191,108,l)
);
}
);
width = 651;
},
{
anchors = (
{
name = bottom;
pos = (290,0);
},
{
name = top;
pos = (290,660);
}
);
layerId = "1FDC7037-1F88-4969-8535-0F79C1EF19DB";
shapes = (
{
closed = 1;
nodes = (
(216,0,ls),
(411,0,o),
(558,97,o),
(558,331,cs),
(558,568,o),
(391,660,o),
(198,660,cs),
(54,660,l),
(54,0,l)
);
},
{
closed = 1;
nodes = (
(76,632,l),
(198,633,ls),
(378,634,o),
(530,560,o),
(530,331,cs),
(530,110,o),
(401,27,o),
(216,27,cs),
(76,27,l)
);
}
);
width = 591;
},
{
anchors = (
{
name = bottom;
pos = (330,0);
},
{
name = top;
pos = (330,660);
}
);
guides = (
{
pos = (0,-330);
},
{
pos = (0,-220);
},
{
pos = (0,-110);
},
{
},
{
pos = (0,110);
},
{
pos = (0,220);
},
{
pos = (0,330);
},
{
pos = (0,440);
},
{
pos = (0,550);
},
{
pos = (0,660);
},
{
pos = (0,770);
}
);
layerId = "3ED9E848-BE83-4CAC-8EFF-D71BD2B4F667";
shapes = (
{
closed = 1;
nodes = (
(464,550,ls),
(506,550,o),
(521,584,o),
(485,606,cs),
(421,643,o),
(342,660,o),
(256,660,cs),
(91,660,ls),
(62,660,o),
(46,644,o),
(46,615,cs),
(46,550,l)
);
},
{
closed = 1;
nodes = (
(91,110,ls),
(62,110,o),
(46,94,o),
(46,65,cs),
(46,45,ls),
(46,16,o),
(62,0,o),
(91,0,cs),
(269,0,ls),
(356,0,o),
(432,17,o),
(492,54,cs),
(528,76,o),
(513,110,o),
(471,110,cs)
);
},
{
closed = 1;
nodes = (
(477,220,ls),
(452,220,o),
(438,209,o),
(424,187,cs),
(394,143,o),
(344,125,o),
(269,125,cs),
(217,125,l),
(217,175,ls),
(217,204,o),
(201,220,o),
(172,220,cs),
(91,220,ls),
(62,220,o),
(46,204,o),
(46,175,cs),
(46,155,ls),
(46,126,o),
(62,110,o),
(91,110,cs),
(524,110,ls),
(547,110,o),
(565,117,o),
(579,137,cs),
(585,146,o),
(591,157,o),
(596,168,cs),
(611,198,o),
(593,220,o),
(560,220,cs)
);
},
{
closed = 1;
nodes = (
(91,330,ls),
(62,330,o),
(46,314,o),
(46,285,cs),
(46,265,ls),
(46,236,o),
(62,220,o),
(91,220,cs),
(172,220,ls),
(201,220,o),
(217,236,o),
(217,265,cs),
(217,285,ls),
(217,314,o),
(201,330,o),
(172,330,cs)
);
},
{
closed = 1;
nodes = (
(499,330,ls),
(471,330,o),
(456,315,o),
(453,286,cs),
(453,280,o),
(452,274,o),
(451,269,cs),
(447,238,o),
(459,220,o),
(490,220,cs),
(575,220,ls),
(602,220,o),
(620,233,o),
(624,260,cs),
(626,268,o),
(627,276,o),
(628,284,cs),
(631,314,o),
(613,330,o),
(584,330,cs)
);
},
{
closed = 1;
nodes = (
(91,440,ls),
(62,440,o),
(46,424,o),
(46,395,cs),
(46,375,ls),
(46,346,o),
(62,330,o),
(91,330,cs),
(172,330,ls),
(201,330,o),
(217,346,o),
(217,375,cs),
(217,395,ls),
(217,424,o),
(201,440,o),
(172,440,cs)
);
},
{
closed = 1;
nodes = (
(488,440,ls),
(457,440,o),
(446,422,o),
(451,391,cs),
(454,373,o),
(455,353,o),
(455,331,cs),
(455,331,o),
(455,330,o),
(455,330,c),
(630,330,l),
(630,330,o),
(630,331,o),
(630,331,cs),
(630,356,o),
(628,379,o),
(624,401,cs),
(620,428,o),
(602,440,o),
(575,440,cs)
);
},
{
closed = 1;
nodes = (
(91,550,ls),
(62,550,o),
(46,534,o),
(46,505,cs),
(46,485,ls),
(46,456,o),
(62,440,o),
(91,440,cs),
(172,440,ls),
(201,440,o),
(217,456,o),
(217,485,cs),
(217,535,l),
(256,535,ls),
(328,535,o),
(385,518,o),
(419,471,cs),
(434,451,o),
(448,440,o),
(473,440,cs),
(559,440,ls),
(592,440,o),
(610,462,o),
(594,492,cs),
(588,504,o),
(582,514,o),
(575,524,cs),
(561,543,o),
(543,550,o),
(520,550,cs)
);
}
);
width = 663;
}
);
note = D;
unicode = 68;
},
{
glyphname = Eth;
kernLeft = Eth;
kernRight = D;
lastChange = "2024-07-19 12:15:04 +0000";
layers = (
{
layerId = "F5467FAD-1970-4982-B3D3-939C01050498";
shapes = (
{
closed = 1;
nodes = (
(325,0,ls),
(522,0,o),
(670,98,o),
(670,331,cs),
(670,568,o),
(503,660,o),
(308,660,cs),
(157,660,l),
(157,306,l),
(45,306,l),
(45,274,l),
(157,274,l),
(157,0,l)
);
},
{
closed = 1;
nodes = (
(196,274,l),
(412,274,l),
(412,306,l),
(196,306,l),
(196,620,l),
(308,621,ls),
(482,621,o),
(625,552,o),
(625,331,cs),
(625,118,o),
(505,39,o),
(325,39,cs),
(196,39,l)
);
}
);
width = 733;
},
{
layerId = "6DD95C5A-998B-41AB-BDFB-84A73C209871";
shapes = (
{
closed = 1;
nodes = (
(388,0,ls),
(596,0,o),
(746,103,o),
(746,331,cs),
(746,565,o),
(575,660,o),
(373,660,cs),
(175,660,l),
(175,345,l),
(56,345,l),
(56,236,l),
(175,236,l),
(175,0,l)
);
},
{
closed = 1;
nodes = (
(321,236,l),
(488,236,l),
(488,345,l),
(321,345,l),
(321,552,l),
(373,552,ls),
(506,552,o),
(596,498,o),
(596,331,cs),
(596,166,o),
(527,108,o),
(388,108,cs),
(320,108,l)
);
}
);
width = 760;
},
{
layerId = "1FDC7037-1F88-4969-8535-0F79C1EF19DB";
shapes = (
{
closed = 1;
nodes = (
(315,0,ls),
(511,0,o),
(658,97,o),
(658,331,cs),
(658,568,o),
(491,660,o),
(298,660,cs),
(154,660,l),
(154,300,l),
(43,300,l),
(43,281,l),
(154,281,l),
(154,0,l)
);
},
{
closed = 1;
nodes = (
(176,281,l),
(400,281,l),
(400,300,l),
(176,300,l),
(176,632,l),
(298,633,ls),
(478,633,o),
(630,560,o),
(630,331,cs),
(630,110,o),
(501,27,o),
(315,27,cs),
(176,27,l)
);
}
);
width = 729;
},
{
guides = (
{
pos = (0,-330);
},
{
pos = (0,-220);
},
{
pos = (0,-110);
},
{
},
{
pos = (0,110);
},
{
pos = (0,220);
},
{
pos = (0,330);
},
{
pos = (0,440);
},
{
pos = (0,550);
},
{
pos = (0,660);
},
{
pos = (0,770);
}
);
layerId = "3ED9E848-BE83-4CAC-8EFF-D71BD2B4F667";
shapes = (
{
closed = 1;
nodes = (
(598,550,ls),
(640,550,o),
(656,585,o),
(619,606,cs),
(555,643,o),
(475,660,o),
(389,660,cs),
(225,660,ls),
(196,660,o),
(180,644,o),
(180,615,cs),
(180,550,l)
);
},
{
closed = 1;
nodes = (
(225,110,ls),
(196,110,o),
(180,94,o),
(180,65,cs),
(180,45,ls),
(180,16,o),
(196,0,o),
(225,0,cs),
(403,0,ls),
(490,0,o),
(567,17,o),
(627,54,cs),
(663,76,o),
(647,110,o),
(605,110,cs)
);
},
{
closed = 1;
nodes = (
(610,220,ls),
(585,220,o),
(571,209,o),
(557,187,cs),
(528,142,o),
(478,125,o),
(403,125,cs),
(351,125,l),
(351,175,ls),
(351,204,o),
(335,220,o),
(306,220,cs),
(225,220,ls),
(196,220,o),
(180,204,o),
(180,175,cs),
(180,155,ls),
(180,126,o),
(196,110,o),
(225,110,cs),
(659,110,ls),
(682,110,o),
(700,117,o),
(714,137,cs),
(720,146,o),
(726,157,o),
(731,168,cs),
(746,198,o),
(728,220,o),
(695,220,cs)
);
},
{
closed = 1;
nodes = (
(103,330,ls),
(74,330,o),
(58,314,o),
(58,285,cs),
(58,271,ls),
(58,242,o),
(74,226,o),
(103,226,cs),
(180,226,l),
(180,226,ls),
(180,223,o),
(196,220,o),
(225,220,cs),
(351,220,l),
(351,226,l),
(462,226,ls),
(491,226,o),
(507,242,o),
(507,271,cs),
(507,285,ls),
(507,314,o),
(491,330,o),
(462,330,cs)
);
},
{
closed = 1;
nodes = (
(632,330,ls),
(604,330,o),
(589,315,o),
(586,286,cs),
(586,280,o),
(585,274,o),
(584,269,cs),
(580,238,o),
(592,220,o),
(623,220,cs),
(710,220,ls),
(737,220,o),
(755,233,o),
(759,260,cs),
(761,268,o),
(762,276,o),
(763,284,cs),
(766,314,o),
(748,330,o),
(719,330,cs)
);
},
{
closed = 1;
nodes = (
(225,440,ls),
(196,440,o),
(180,424,o),
(180,395,cs),
(180,355,l),
(103,355,ls),
(74,355,o),
(58,350,o),
(58,342,cs),
(58,342,ls),
(58,334,o),
(74,330,o),
(103,330,cs),
(462,330,ls),
(491,330,o),
(507,335,o),
(507,343,cs),
(507,343,ls),
(507,351,o),
(491,355,o),
(462,355,cs),
(351,355,l),
(351,395,ls),
(351,424,o),
(335,440,o),
(306,440,cs)
);
},
{
closed = 1;
nodes = (
(621,440,ls),
(590,440,o),
(579,422,o),
(584,391,cs),
(587,373,o),
(588,353,o),
(588,331,cs),
(588,331,o),
(588,330,o),
(588,330,c),
(765,330,l),
(765,330,o),
(765,331,o),
(765,331,cs),
(765,356,o),
(763,379,o),
(759,401,cs),
(755,428,o),
(737,440,o),
(710,440,cs)
);
},
{
closed = 1;
nodes = (
(225,550,ls),
(196,550,o),
(180,534,o),
(180,505,cs),
(180,485,ls),
(180,456,o),
(196,440,o),
(225,440,cs),
(306,440,ls),
(335,440,o),
(351,456,o),
(351,485,cs),
(351,535,l),
(389,535,ls),
(462,535,o),
(518,518,o),
(552,471,cs),
(567,451,o),
(581,440,o),
(606,440,cs),
(694,440,ls),
(727,440,o),
(745,462,o),
(729,492,cs),
(723,504,o),
(717,514,o),
(710,524,cs),
(696,543,o),
(678,550,o),
(655,550,cs)
);
}
);
width = 767;
}
);
note = Eth;
unicode = 208;
},
{
glyphname = E;
kernLeft = B;
kernRight = E;
lastChange = "2024-07-19 12:14:18 +0000";
layers = (
{
anchors = (
{
name = bottom;
pos = (314,0);
},
{
name = ogonek;
pos = (539,0);
},
{
name = top;
pos = (314,660);
}
);
layerId = "F5467FAD-1970-4982-B3D3-939C01050498";
shapes = (
{
closed = 1;
nodes = (
(553,0,l),
(553,28,l),
(95,28,l),
(95,319,l),
(532,319,l),
(532,349,l),
(95,349,l),
(95,631,l),
(542,631,l),
(542,660,l),
(56,660,l),
(56,0,l)
);
}
);
width = 597;
},
{
anchors = (
{
name = bottom;
pos = (333,0);
},
{
name = ogonek;
pos = (483,0);
},
{
name = top;
pos = (333,660);
}
);
layerId = "6DD95C5A-998B-41AB-BDFB-84A73C209871";
shapes = (
{
closed = 1;
nodes = (
(593,0,l),
(593,117,l),
(192,117,l),
(192,279,l),
(574,279,l),
(574,396,l),
(192,396,l),
(192,543,l),
(584,543,l),
(584,660,l),
(47,660,l),
(47,0,l)
);
}
);
width = 631;
},
{
anchors = (
{
name = bottom;
pos = (311,0);
},
{
name = ogonek;
pos = (549,0);
},
{
name = top;
pos = (311,660);
}
);
layerId = "1FDC7037-1F88-4969-8535-0F79C1EF19DB";
shapes = (
{
closed = 1;
nodes = (
(546,0,l),
(546,14,l),
(80,14,l),
(80,325,l),
(525,325,l),
(525,341,l),
(80,341,l),
(80,645,l),
(536,645,l),
(536,660,l),
(57,660,l),
(57,0,l)
);
}
);
width = 591;
},
{
anchors = (
{
name = bottom;
pos = (338,0);
},
{
name = ogonek;
pos = (469,0);
},
{
name = top;
pos = (338,660);
}
);
guides = (
{
pos = (0,-330);
},
{
pos = (0,-220);
},
{
pos = (0,-110);
},
{
},
{
pos = (0,110);
},
{
pos = (0,220);
},
{
pos = (0,330);
},
{
pos = (0,440);
},
{
pos = (0,550);
},
{
pos = (0,660);
},
{
pos = (0,770);
}
);
layerId = "3ED9E848-BE83-4CAC-8EFF-D71BD2B4F667";
shapes = (
{
closed = 1;
nodes = (
(90,660,ls),
(61,660,o),
(45,644,o),
(45,615,cs),
(45,595,ls),
(45,566,o),
(61,550,o),
(90,550,cs),
(549,550,ls),
(578,550,o),
(594,566,o),
(594,595,cs),
(594,660,l)
);
},
{
closed = 1;
nodes = (
(90,110,ls),
(61,110,o),
(45,94,o),
(45,65,cs),
(45,45,ls),
(45,16,o),
(61,0,o),
(90,0,cs),
(559,0,ls),
(588,0,o),
(604,16,o),
(604,45,cs),
(604,65,ls),
(604,94,o),
(588,110,o),
(559,110,cs)
);
},
{
closed = 1;
nodes = (
(90,220,ls),
(61,220,o),
(45,204,o),
(45,175,cs),
(45,155,ls),
(45,126,o),
(61,110,o),
(90,110,cs),
(559,110,ls),
(588,110,o),
(604,116,o),
(604,125,cs),
(604,125,ls),
(604,134,o),
(588,139,o),
(559,139,cs),
(216,139,l),
(216,175,ls),
(216,204,o),
(200,220,o),
(171,220,cs)
);
},
{
closed = 1;
nodes = (
(90,330,ls),
(61,330,o),
(45,314,o),
(45,285,cs),
(45,265,ls),
(45,236,o),
(61,220,o),
(90,220,cs),
(171,220,ls),
(200,220,o),
(216,236,o),
(216,265,cs),
(216,270,l),
(540,270,ls),
(569,270,o),
(585,281,o),
(585,300,cs),
(585,300,ls),
(585,319,o),
(569,330,o),
(540,330,cs)
);
},
{
closed = 1;
nodes = (
(90,440,ls),
(61,440,o),
(45,424,o),
(45,395,cs),
(45,375,ls),
(45,346,o),
(61,330,o),
(90,330,cs),
(540,330,ls),
(569,330,o),
(585,344,o),
(585,369,cs),
(585,369,ls),
(585,394,o),
(569,407,o),
(540,407,cs),
(216,407,l),
(216,407,ls),
(216,428,o),
(200,440,o),
(171,440,cs)
);
},
{
closed = 1;
nodes = (
(90,550,ls),
(61,550,o),
(45,534,o),
(45,505,cs),
(45,485,ls),
(45,456,o),
(61,440,o),
(90,440,cs),
(171,440,ls),
(200,440,o),
(216,456,o),
(216,485,cs),
(216,521,l),
(549,521,ls),
(578,521,o),
(594,527,o),
(594,536,cs),
(594,536,ls),
(594,545,o),
(578,550,o),
(549,550,cs)
);
}
);
width = 639;
}
);
note = E;
unicode = 69;
},
{
glyphname = Schwa;
kernLeft = C;
kernRight = O;
lastChange = "2024-07-19 12:08:54 +0000";
layers = (
{
layerId = "F5467FAD-1970-4982-B3D3-939C01050498";
shapes = (
{
closed = 1;
nodes = (
(628,327,l),
(31,327,l),
(29,309,o),
(28,291,o),
(28,274,cs),
(28,106,o),
(141,-5,o),
(324,-5,cs),
(505,-5,o),
(658,113,o),
(658,322,cs),
(658,554,o),
(498,664,o),
(316,664,cs),
(185,664,o),
(75,621,o),
(30,547,c),
(60,528,l),
(109,594,o),
(170,635,o),
(316,635,cs),
(476,635,o),
(622,538,o),
(620,315,cs),
(618,139,o),
(506,25,o),
(324,25,cs),
(161,25,o),
(58,132,o),
(73,290,c),
(628,290,l)
);
}
);
width = 687;
},
{
layerId = "6DD95C5A-998B-41AB-BDFB-84A73C209871";
shapes = (
{
closed = 1;
nodes = (
(595,380,l),
(66,374,l),
(58,339,o),
(55,307,o),
(55,276,cs),
(55,104,o),
(179,-5,o),
(379,-5,cs),
(577,-5,o),
(716,121,o),
(716,323,cs),
(716,549,o),
(572,665,o),
(367,665,cs),
(223,665,o),
(92,604,o),
(47,486,c),
(158,422,l),
(188,499,o),
(246,555,o),
(348,555,cs),
(503,555,o),
(571,474,o),
(571,323,cs),
(571,163,o),
(468,104,o),
(374,104,cs),
(270,104,o),
(207,142,o),
(218,246,c),
(587,246,l)
);
}
);
width = 763;
},
{
layerId = "1FDC7037-1F88-4969-8535-0F79C1EF19DB";
shapes = (
{
closed = 1;
nodes = (
(635,319,l),
(26,320,l),
(25,305,o),
(25,289,o),
(25,274,cs),
(25,106,o),
(135,-5,o),
(317,-5,cs),
(495,-5,o),
(650,112,o),
(650,322,cs),
(650,555,o),
(487,664,o),
(308,664,cs),
(180,664,o),
(74,624,o),
(28,556,c),
(45,545,l),
(98,609,o),
(158,647,o),
(312,647,cs),
(473,647,o),
(632,549,o),
(628,314,cs),
(626,135,o),
(514,12,o),
(318,12,cs),
(145,12,o),
(35,130,o),
(50,298,c),
(636,298,l)
);
}
);
width = 675;
},
{
guides = (
{
pos = (0,-330);
},
{
pos = (0,-220);
},
{
pos = (0,-110);
},
{
},
{
pos = (0,110);
},
{
pos = (0,220);
},
{
pos = (0,330);
},
{
pos = (0,440);
},
{
pos = (0,550);
},
{
pos = (0,660);
},
{
pos = (0,770);
}
);
layerId = "3ED9E848-BE83-4CAC-8EFF-D71BD2B4F667";
shapes = (
{
closed = 1;
nodes = (
(321,0,l),
(344,-3,o),
(368,-5,o),
(393,-5,cs),
(416,-5,o),
(439,-3,o),
(460,0,c)
);
},
{
closed = 1;
nodes = (
(197,110,ls),
(156,110,o),
(140,77,o),
(174,54,cs),
(214,27,o),
(264,8,o),
(321,0,c),
(460,0,l),
(514,8,o),
(562,27,o),
(602,54,cs),
(636,77,o),
(620,110,o),
(579,110,cs)
);
},
{
closed = 1;
nodes = (
(453,660,l),
(430,663,o),
(405,665,o),
(380,665,cs),
(356,665,o),
(333,663,o),
(310,660,c)
);
},
{
closed = 1;
nodes = (
(575,220,ls),
(550,220,o),
(536,209,o),
(521,189,cs),
(485,141,o),
(431,124,o),
(388,124,cs),
(320,124,o),
(274,136,o),
(259,178,cs),
(250,205,o),
(239,220,o),
(212,220,cs),
(119,220,ls),
(87,220,o),
(69,200,o),
(80,170,cs),
(84,159,o),
(89,149,o),
(95,139,cs),
(107,118,o),
(125,110,o),
(149,110,cs),
(628,110,ls),
(652,110,o),
(669,117,o),
(682,138,cs),
(688,148,o),
(693,158,o),
(698,168,cs),
(713,199,o),
(695,220,o),
(662,220,cs)
);
},
{
closed = 1;
nodes = (
(583,330,l),
(584,346,ls),
(586,376,o),
(570,392,o),
(540,392,cs),
(116,387,ls),
(89,387,o),
(70,358,o),
(70,358,cs),
(70,358,o),
(70,358,o),
(70,358,cs),
(67,340,o),
(84,330,o),
(115,330,cs),
(559,330,l),
(559,328,o),
(559,327,o),
(559,325,cs),
(559,305,o),
(557,286,o),
(554,269,cs),
(549,238,o),
(559,220,o),
(591,220,cs),
(677,220,ls),
(704,220,o),
(722,233,o),
(726,260,cs),
(729,280,o),
(731,301,o),
(731,323,cs),
(731,324,o),
(731,325,o),
(731,327,cs),
(731,329,o),
(715,330,o),
(686,330,cs)
);
},
{
closed = 1;
nodes = (
(154,440,ls),
(135,440,o),
(129,427,o),
(145,418,cs),
(145,418,ls),
(169,404,o),
(192,418,o),
(192,418,cs),
(192,418,o),
(192,418,o),
(192,418,cs),
(197,431,o),
(182,440,o),
(154,440,cs)
);
},
{
closed = 1;
nodes = (
(591,440,ls),
(559,440,o),
(549,422,o),
(554,391,cs),
(557,372,o),
(558,352,o),
(559,330,c),
(109,330,ls),
(81,330,o),
(63,316,o),
(62,287,cs),
(62,284,o),
(62,280,o),
(62,276,cs),
(62,267,o),
(62,257,o),
(63,248,cs),
(65,229,o),
(82,220,o),
(110,220,cs),
(254,220,l),
(254,225,o),
(254,230,o),
(255,235,c),
(533,235,ls),
(561,235,o),
(578,251,o),
(580,279,cs),
(583,330,l),
(684,330,ls),
(714,330,o),
(731,347,o),
(728,377,cs),
(727,385,o),
(726,393,o),
(725,401,cs),
(720,427,o),
(702,440,o),
(675,440,cs)
);
},
{
closed = 1;
nodes = (
(130,550,ls),
(106,550,o),
(89,543,o),
(76,522,cs),
(74,518,o),
(71,514,o),
(69,510,cs),
(55,485,o),
(62,465,o),
(80,455,cs),
(80,455,ls),
(98,444,o),
(115,440,o),
(136,440,cs),
(167,440,ls),
(191,440,o),
(206,450,o),
(221,470,cs),
(252,510,o),
(297,536,o),
(356,536,cs),
(439,536,o),
(492,513,o),
(523,471,cs),
(537,451,o),
(551,440,o),
(576,440,cs),
(661,440,ls),
(694,440,o),
(711,461,o),
(697,492,cs),
(692,503,o),
(687,512,o),
(681,522,cs),
(668,543,o),
(651,550,o),
(627,550,cs)
);
},
{
closed = 1;
nodes = (
(310,660,l),
(255,652,o),
(204,634,o),
(160,606,cs),
(125,583,o),
(140,550,o),
(182,550,cs),
(577,550,ls),
(618,550,o),
(634,583,o),
(600,606,cs),
(559,634,o),
(509,652,o),
(453,660,c)
);
}
);
width = 783;
}
);
metricLeft = O;
metricRight = O;
unicode = 399;
},
{
glyphname = F;
kernLeft = B;
kernRight = F;
lastChange = "2024-07-19 21:15:44 +0000";
layers = (
{
layerId = "F5467FAD-1970-4982-B3D3-939C01050498";
shapes = (
{
closed = 1;
nodes = (
(95,0,l),
(95,319,l),
(532,319,l),
(532,349,l),
(95,349,l),
(95,631,l),
(542,631,l),
(542,660,l),
(56,660,l),
(56,0,l)
);
}
);
width = 575;
},
{
layerId = "6DD95C5A-998B-41AB-BDFB-84A73C209871";
shapes = (
{
closed = 1;
nodes = (
(202,0,l),
(202,279,l),
(584,279,l),
(584,396,l),
(202,396,l),
(202,543,l),
(593,543,l),
(593,660,l),
(57,660,l),
(57,0,l)
);
}
);
width = 631;
},
{
layerId = "1FDC7037-1F88-4969-8535-0F79C1EF19DB";
shapes = (
{
closed = 1;
nodes = (
(78,0,l),
(78,325,l),
(523,325,l),
(523,341,l),
(78,341,l),
(78,645,l),
(534,645,l),
(534,660,l),
(56,660,l),
(56,0,l)
);
}
);
width = 567;
},
{
guides = (
{
pos = (0,-330);
},
{
pos = (0,-220);
},
{
pos = (0,-110);
},
{
},
{
pos = (0,110);
},
{
pos = (0,220);
},
{
pos = (0,330);
},
{
pos = (0,440);
},
{
pos = (0,550);
},
{
pos = (0,660);
},
{
pos = (0,770);
}
);
layerId = "3ED9E848-BE83-4CAC-8EFF-D71BD2B4F667";
shapes = (
{
closed = 1;
nodes = (
(102,660,ls),
(73,660,o),
(57,644,o),
(57,615,cs),
(57,595,ls),
(57,566,o),
(73,550,o),
(102,550,cs),
(560,550,ls),
(589,550,o),
(605,566,o),
(605,595,cs),
(605,660,l)
);
},
{
closed = 1;
nodes = (
(102,110,ls),
(73,110,o),
(57,94,o),
(57,65,cs),
(57,45,ls),
(57,16,o),
(73,0,o),
(102,0,cs),
(183,0,ls),
(212,0,o),
(228,16,o),
(228,45,cs),
(228,65,ls),
(228,94,o),
(212,110,o),
(183,110,cs)
);
},
{
closed = 1;
nodes = (
(102,220,ls),
(73,220,o),
(57,204,o),
(57,175,cs),
(57,155,ls),
(57,126,o),
(73,110,o),
(102,110,cs),
(183,110,ls),
(212,110,o),
(228,126,o),
(228,155,cs),
(228,175,ls),
(228,204,o),
(212,220,o),
(183,220,cs)
);
},
{
closed = 1;
nodes = (
(102,330,ls),
(73,330,o),
(57,314,o),
(57,285,cs),
(57,265,ls),
(57,236,o),
(73,220,o),
(102,220,cs),
(183,220,ls),
(212,220,o),
(228,236,o),
(228,265,cs),
(228,270,l),
(552,270,ls),
(581,270,o),
(597,281,o),
(597,300,cs),
(597,300,ls),
(597,319,o),
(581,330,o),
(552,330,cs)
);
},
{
closed = 1;
nodes = (
(102,440,ls),
(73,440,o),
(57,424,o),
(57,395,cs),
(57,375,ls),
(57,346,o),
(73,330,o),
(102,330,cs),
(552,330,ls),
(581,330,o),
(597,344,o),
(597,369,cs),
(597,369,ls),
(597,394,o),
(581,407,o),
(552,407,cs),
(228,407,l),
(228,407,ls),
(228,428,o),
(212,440,o),
(183,440,cs)
);
},
{
closed = 1;
nodes = (
(102,550,ls),
(73,550,o),
(57,534,o),
(57,505,cs),
(57,485,ls),
(57,456,o),
(73,440,o),
(102,440,cs),
(183,440,ls),
(212,440,o),
(228,456,o),
(228,485,cs),
(228,521,l),
(560,521,ls),
(589,521,o),
(605,527,o),
(605,536,cs),
(605,536,ls),
(605,545,o),
(589,550,o),
(560,550,cs)
);
}
);
width = 644;
}
);
note = F;
unicode = 70;
},
{
glyphname = G;
kernLeft = C;
kernRight = G;
lastChange = "2024-07-19 12:08:54 +0000";
layers = (
{
anchors = (
{
name = bottom;
pos = (362,0);
},
{
name = top;
pos = (362,660);
}
);
layerId = "F5467FAD-1970-4982-B3D3-939C01050498";
shapes = (
{
closed = 1;
nodes = (
(518,-5,o),
(604,91,o),
(623,234,c),
(623,0,l),
(653,0,l),
(653,349,l),
(384,349,l),
(384,320,l),
(613,320,l),
(613,279,ls),
(613,179,o),
(545,25,o),
(361,25,cs),
(200,25,o),
(81,157,o),
(81,328,cs),
(81,504,o),
(201,636,o),
(362,636,cs),
(445,636,o),
(522,598,o),
(573,535,c),
(612,554,l),
(554,624,o),
(471,665,o),
(362,665,cs),
(163,665,o),
(30,515,o),
(30,328,cs),
(30,141,o),
(165,-5,o),
(361,-5,cs)
);
}
);
width = 695;
},
{
anchors = (
{
name = bottom;
pos = (391,0);
},
{
name = top;
pos = (392,660);
}
);
layerId = "6DD95C5A-998B-41AB-BDFB-84A73C209871";
shapes = (
{
closed = 1;
nodes = (
(502,-5,o),
(568,72,o),
(568,154,c),
(568,0,l),
(703,0,l),
(703,388,l),
(358,388,l),
(358,279,l),
(559,279,l),
(559,276,ls),
(559,187,o),
(515,104,o),
(392,104,cs),
(271,104,o),
(201,193,o),
(201,328,cs),
(201,464,o),
(285,556,o),
(392,556,cs),
(463,556,o),
(516,524,o),
(555,450,c),
(683,514,l),
(631,601,o),
(526,665,o),
(392,665,cs),
(186,665,o),
(47,507,o),
(47,328,cs),
(47,151,o),
(167,-5,o),
(388,-5,cs)
);
}
);
width = 760;
},
{
anchors = (
{
name = bottom;
pos = (357,0);
},
{
name = top;
pos = (357,660);
}
);
layerId = "1FDC7037-1F88-4969-8535-0F79C1EF19DB";
shapes = (
{
closed = 1;
nodes = (
(521,-5,o),
(610,95,o),
(632,246,c),
(632,0,l),
(644,0,l),
(644,342,l),
(388,342,l),
(388,326,l),
(621,326,l),
(621,279,ls),
(621,178,o),
(550,12,o),
(356,12,cs),
(189,12,o),
(62,151,o),
(62,328,cs),
(62,510,o),
(188,648,o),
(357,648,cs),
(442,648,o),
(523,609,o),
(576,548,c),
(601,561,l),
(542,628,o),
(462,665,o),
(357,665,cs),
(159,665,o),
(27,516,o),
(27,328,cs),
(27,139,o),
(165,-5,o),
(357,-5,cs)
);
}
);
width = 685;
},
{
anchors = (
{
name = bottom;
pos = (399,0);
},
{
name = top;
pos = (400,660);
}
);
guides = (
{
pos = (0,-330);
},
{
pos = (0,-220);
},
{
pos = (0,-110);
},
{
},
{
pos = (0,110);
},
{
pos = (0,220);
},
{
pos = (0,330);
},
{
pos = (0,440);
},
{
pos = (0,550);
},
{
pos = (0,660);
},
{
pos = (0,770);
}
);
layerId = "3ED9E848-BE83-4CAC-8EFF-D71BD2B4F667";
shapes = (
{
closed = 1;
nodes = (
(463,660,l),
(443,663,o),
(422,665,o),
(400,665,cs),
(379,665,o),
(358,663,o),
(338,660,c)
);
},
{
closed = 1;
nodes = (
(327,0,l),
(348,-3,o),
(370,-5,o),
(394,-5,cs),
(402,-5,o),
(410,-5,o),
(417,-4,cs),
(412,-4,o),
(371,0,o),
(384,0,cs)
);
},
{
closed = 1;
nodes = (
(209,110,ls),
(168,110,o),
(152,77,o),
(186,54,cs),
(219,32,o),
(257,15,o),
(300,5,cs),
(320,1,o),
(334,0,o),
(354,0,cs),
(412,0,ls),
(432,0,o),
(447,1,o),
(466,9,cs),
(495,20,o),
(516,37,o),
(531,59,cs),
(551,87,o),
(530,110,o),
(497,110,cs)
);
},
{
closed = 1;
nodes = (
(599,110,ls),
(570,110,o),
(554,94,o),
(554,65,cs),
(554,45,ls),
(554,16,o),
(570,0,o),
(599,0,cs),
(671,0,ls),
(700,0,o),
(716,16,o),
(716,45,cs),
(716,65,ls),
(716,94,o),
(700,110,o),
(671,110,cs)
);
},
{
closed = 1;
nodes = (
(671,330,ls),
(700,330,o),
(716,342,o),
(716,364,cs),
(716,364,ls),
(716,385,o),
(700,397,o),
(671,397,cs),
(397,397,ls),
(368,397,o),
(352,385,o),
(352,364,cs),
(352,364,ls),
(352,343,o),
(368,330,o),
(397,330,cs)
);
},
{
closed = 1;
nodes = (
(578,220,ls),
(552,220,o),
(539,208,o),
(526,185,cs),
(504,148,o),
(465,124,o),
(400,124,cs),
(339,124,o),
(294,147,o),
(266,188,cs),
(252,209,o),
(238,220,o),
(213,220,cs),
(124,220,ls),
(90,220,o),
(73,198,o),
(88,168,cs),
(93,157,o),
(99,147,o),
(105,138,cs),
(118,117,o),
(135,110,o),
(159,110,cs),
(509,110,ls),
(537,110,o),
(554,134,o),
(554,134,cs),
(554,134,o),
(554,134,o),
(554,134,c),
(554,134,ls),
(554,119,o),
(570,110,o),
(599,110,cs),
(671,110,ls),
(700,110,o),
(716,126,o),
(716,155,cs),
(716,175,ls),
(716,204,o),
(700,220,o),
(671,220,cs)
);
},
{
closed = 1;
nodes = (
(51,330,l),
(51,329,o),
(51,329,o),
(51,328,cs),
(51,305,o),
(53,281,o),
(57,259,cs),
(62,232,o),
(81,220,o),
(107,220,cs),
(197,220,ls),
(229,220,o),
(240,238,o),
(235,269,cs),
(232,288,o),
(230,307,o),
(230,328,cs),
(230,329,o),
(230,329,o),
(230,330,c)
);
},
{
closed = 1;
nodes = (
(397,330,ls),
(368,330,o),
(352,319,o),
(352,300,cs),
(352,300,ls),
(352,281,o),
(368,269,o),
(397,269,cs),
(546,269,l),
(546,275,ls),
(546,265,o),
(546,256,o),
(545,247,cs),
(543,230,o),
(558,220,o),
(588,220,cs),
(671,220,ls),
(700,220,o),
(716,236,o),
(716,265,cs),
(716,285,ls),
(716,314,o),
(700,330,o),
(671,330,cs)
);
},
{
closed = 1;
nodes = (
(109,440,ls),
(83,440,o),
(65,428,o),
(59,402,cs),
(57,394,o),
(56,385,o),
(54,377,cs),
(50,347,o),
(68,330,o),
(98,330,cs),
(187,330,ls),
(215,330,o),
(229,345,o),
(233,373,cs),
(234,379,o),
(236,384,o),
(237,390,cs),
(244,422,o),
(233,440,o),
(201,440,cs)
);
},
{
closed = 1;
nodes = (
(545,440,l),
(547,436,o),
(549,433,o),
(551,429,c),
(551,429,ls),
(559,433,o),
(564,440,o),
(559,440,cs)
);
},
{
closed = 1;
nodes = (
(169,550,ls),
(146,550,o),
(128,543,o),
(114,524,cs),
(107,514,o),
(101,503,o),
(95,493,cs),
(78,463,o),
(95,440,o),
(129,440,cs),
(218,440,ls),
(242,440,o),
(258,450,o),
(272,471,cs),
(303,513,o),
(349,537,o),
(400,537,cs),
(454,537,o),
(494,518,o),
(526,471,cs),
(541,450,o),
(550,440,o),
(559,440,cs),
(559,440,ls),
(569,440,o),
(580,444,o),
(599,453,cs),
(658,483,ls),
(685,496,o),
(685,528,o),
(685,528,cs),
(685,528,o),
(685,528,o),
(685,528,cs),
(674,544,o),
(657,550,o),
(634,550,cs)
);
},
{
closed = 1;
nodes = (
(365,660,ls),
(345,660,o),
(331,659,o),
(311,654,cs),
(271,644,o),
(233,628,o),
(200,606,cs),
(165,583,o),
(180,550,o),
(222,550,cs),
(582,550,ls),
(624,550,o),
(639,583,o),
(604,606,cs),
(571,628,o),
(532,645,o),
(490,655,cs),
(470,659,o),
(456,660,o),
(436,660,cs)
);
}
);
width = 776;
}
);
note = G;
unicode = 71;
},
{
glyphname = H;
kernLeft = B;
kernRight = H;
lastChange = "2024-07-19 12:08:54 +0000";
layers = (
{
anchors = (
{
name = bottom;
pos = (331,0);
},
{
name = top;
pos = (331,660);
}
);
layerId = "F5467FAD-1970-4982-B3D3-939C01050498";
shapes = (
{
closed = 1;
nodes = (
(92,0,l),
(92,328,l),
(569,328,l),
(569,0,l),
(608,0,l),
(608,660,l),
(569,660,l),
(569,368,l),
(92,368,l),
(92,660,l),
(53,660,l),
(53,0,l)
);
}
);
width = 661;
},
{
anchors = (
{
name = bottom;
pos = (346,0);
},
{
name = top;
pos = (346,660);
}
);
layerId = "6DD95C5A-998B-41AB-BDFB-84A73C209871";
shapes = (
{
closed = 1;
nodes = (
(192,0,l),
(192,287,l),
(499,287,l),
(499,0,l),
(644,0,l),
(644,660,l),
(499,660,l),
(499,405,l),
(192,405,l),
(192,660,l),
(47,660,l),
(47,0,l)
);
}
);
width = 691;
},
{
anchors = (
{
name = bottom;
pos = (328,0);
},
{
name = top;
pos = (328,660);
}
);
layerId = "1FDC7037-1F88-4969-8535-0F79C1EF19DB";
shapes = (
{
closed = 1;
nodes = (
(76,0,l),
(76,335,l),
(580,335,l),
(580,0,l),
(603,0,l),
(603,660,l),
(580,660,l),
(580,362,l),
(76,362,l),
(76,660,l),
(54,660,l),
(54,0,l)
);
}
);
width = 656;
},
{
anchors = (
{
name = bottom;
pos = (350,0);
},
{
name = top;
pos = (350,660);
}
);
guides = (
{
pos = (0,-330);
},
{
pos = (0,-220);
},
{
pos = (0,-110);
},
{
},
{
pos = (0,110);
},
{
pos = (0,220);
},
{
pos = (0,330);
},
{
pos = (0,440);
},
{
pos = (0,550);
},
{
pos = (0,660);
},
{
pos = (0,770);
}
);
layerId = "3ED9E848-BE83-4CAC-8EFF-D71BD2B4F667";
shapes = (
{
closed = 1;
nodes = (
(91,110,ls),
(62,110,o),
(46,94,o),
(46,65,cs),
(46,45,ls),
(46,16,o),
(62,0,o),
(91,0,cs),
(172,0,ls),
(201,0,o),
(217,16,o),
(217,45,cs),
(217,65,ls),
(217,94,o),
(201,110,o),
(172,110,cs)
);
},
{
closed = 1;
nodes = (
(527,110,ls),
(498,110,o),
(482,94,o),
(482,65,cs),
(482,45,ls),
(482,16,o),
(498,0,o),
(527,0,cs),
(608,0,ls),
(637,0,o),
(653,16,o),
(653,45,cs),
(653,65,ls),
(653,94,o),
(637,110,o),
(608,110,cs)
);
},
{
closed = 1;
nodes = (
(91,220,ls),
(62,220,o),
(46,204,o),
(46,175,cs),
(46,155,ls),
(46,126,o),
(62,110,o),
(91,110,cs),
(172,110,ls),
(201,110,o),
(217,126,o),
(217,155,cs),
(217,175,ls),
(217,204,o),
(201,220,o),
(172,220,cs)
);
},
{
closed = 1;
nodes = (
(527,220,ls),
(498,220,o),
(482,204,o),
(482,175,cs),
(482,155,ls),
(482,126,o),
(498,110,o),
(527,110,cs),
(608,110,ls),
(637,110,o),
(653,126,o),
(653,155,cs),
(653,175,ls),
(653,204,o),
(637,220,o),
(608,220,cs)
);
},
{
closed = 1;
nodes = (
(91,330,ls),
(62,330,o),
(46,314,o),
(46,285,cs),
(46,265,ls),
(46,236,o),
(62,220,o),
(91,220,cs),
(172,220,ls),
(201,220,o),
(217,236,o),
(217,265,cs),
(217,276,l),
(482,276,l),
(482,265,ls),
(482,236,o),
(498,220,o),
(527,220,cs),
(608,220,ls),
(637,220,o),
(653,236,o),
(653,265,cs),
(653,285,ls),
(653,314,o),
(637,330,o),
(608,330,cs)
);
},
{
closed = 1;
nodes = (
(653,660,l),
(527,660,ls),
(498,660,o),
(482,644,o),
(482,615,cs),
(482,595,ls),
(482,566,o),
(498,550,o),
(527,550,cs),
(608,550,ls),
(637,550,o),
(653,566,o),
(653,595,cs),
(653,615,ls),
(653,644,o),
(637,660,o),
(608,660,cs),
(217,660,l),
(91,660,ls),
(62,660,o),
(46,644,o),
(46,615,cs),
(46,595,ls),
(46,566,o),
(62,550,o),
(91,550,cs),
(172,550,ls),
(201,550,o),
(217,566,o),
(217,595,cs),
(217,660,l)
);
},
{
closed = 1;
nodes = (
(527,440,ls),
(498,440,o),
(482,431,o),
(482,414,cs),
(482,414,l),
(217,414,l),
(217,414,ls),
(217,431,o),
(201,440,o),
(172,440,cs),
(91,440,ls),
(62,440,o),
(46,424,o),
(46,395,cs),
(46,375,ls),
(46,346,o),
(62,330,o),
(91,330,cs),
(608,330,ls),
(637,330,o),
(653,346,o),
(653,375,cs),
(653,395,ls),
(653,424,o),
(637,440,o),
(608,440,cs)
);
},
{
closed = 1;
nodes = (
(91,550,ls),
(62,550,o),
(46,534,o),
(46,505,cs),
(46,485,ls),
(46,456,o),
(62,440,o),
(91,440,cs),
(172,440,ls),
(201,440,o),
(217,456,o),
(217,485,cs),
(217,505,ls),
(217,534,o),
(201,550,o),
(172,550,cs)
);
},
{
closed = 1;
nodes = (
(527,550,ls),
(498,550,o),
(482,534,o),
(482,505,cs),
(482,485,ls),
(482,456,o),
(498,440,o),
(527,440,cs),
(608,440,ls),
(637,440,o),
(653,456,o),
(653,485,cs),
(653,505,ls),
(653,534,o),
(637,550,o),
(608,550,cs)
);
}
);
width = 699;
}
);
note = H;
unicode = 72;
},
{
glyphname = Hbar;
lastChange = "2024-07-19 12:08:54 +0000";
layers = (
{
layerId = "F5467FAD-1970-4982-B3D3-939C01050498";
shapes = (
{
closed = 1;
nodes = (
(716,516,l),
(19,516,l),
(19,476,l),
(716,476,l)
);
},
{
pos = (37,0);
ref = H;
}
);
width = 735;
},
{
layerId = "6DD95C5A-998B-41AB-BDFB-84A73C209871";
shapes = (
{
closed = 1;
nodes = (
(757,574,l),
(19,574,l),
(19,456,l),
(757,456,l)
);
},
{
pos = (42,0);
ref = H;
}
);
width = 776;
},
{
layerId = "1FDC7037-1F88-4969-8535-0F79C1EF19DB";
shapes = (
{
closed = 1;
nodes = (
(709,506,l),
(19,506,l),
(19,479,l),
(709,479,l)
);
},
{
pos = (36,0);
ref = H;
}
);
width = 728;
},
{
guides = (
{
pos = (0,-330);
},
{
pos = (0,-220);
},
{
pos = (0,-110);
},
{
},
{
pos = (0,110);
},
{
pos = (0,220);
},
{
pos = (0,330);
},
{
pos = (0,440);
},
{
pos = (0,550);
},
{
pos = (0,660);
},
{
pos = (0,770);
}
);
layerId = "3ED9E848-BE83-4CAC-8EFF-D71BD2B4F667";
shapes = (
{
closed = 1;
nodes = (
(723,550,ls),
(752,550,o),
(768,557,o),
(768,569,cs),
(768,569,ls),
(768,581,o),
(752,588,o),
(723,588,cs),
(64,588,ls),
(35,588,o),
(19,581,o),
(19,569,cs),
(19,569,ls),
(19,557,o),
(35,550,o),
(64,550,cs)
);
},
{
pos = (43,0);
ref = H;
},
{
closed = 1;
nodes = (
(64,550,ls),
(35,550,o),
(19,534,o),
(19,505,cs),
(19,497,ls),
(19,468,o),
(35,452,o),
(64,452,cs),
(723,452,ls),
(752,452,o),
(768,468,o),
(768,497,cs),
(768,505,ls),
(768,534,o),
(752,550,o),
(723,550,cs)
);
}
);
width = 786;
}
);
unicode = 294;
},
{
glyphname = I;
kernLeft = I;
kernRight = I;
lastChange = "2024-07-19 12:08:54 +0000";
layers = (
{
anchors = (
{
name = bottom;
pos = (97,0);
},
{
name = ogonek;
pos = (78,0);
},
{
name = top;
pos = (97,660);
}
);
layerId = "F5467FAD-1970-4982-B3D3-939C01050498";
shapes = (
{
closed = 1;
nodes = (
(118,0,l),
(118,660,l),
(78,660,l),
(78,0,l)
);
}
);
width = 196;
},
{
anchors = (
{
name = bottom;
pos = (139,0);
},
{
name = ogonek;
pos = (66,0);
},
{
name = top;
pos = (139,660);
}
);
layerId = "6DD95C5A-998B-41AB-BDFB-84A73C209871";
shapes = (
{
closed = 1;
nodes = (
(211,0,l),
(211,660,l),
(66,660,l),
(66,0,l)
);
}
);
width = 277;
},
{
anchors = (
{
name = bottom;
pos = (91,0);
},
{
name = ogonek;
pos = (80,0);
},
{
name = top;
pos = (91,660);
}
);
layerId = "1FDC7037-1F88-4969-8535-0F79C1EF19DB";
shapes = (
{
closed = 1;
nodes = (
(103,0,l),
(103,660,l),
(80,660,l),
(80,0,l)
);
}
);
width = 183;
},
{
anchors = (
{
name = bottom;
pos = (149,0);
},
{
name = ogonek;
pos = (63,0);
},
{
name = top;
pos = (149,660);
}
);
guides = (
{
pos = (0,-330);
},
{
pos = (0,-220);
},
{
pos = (0,-110);
},
{
},
{
pos = (0,110);
},
{
pos = (0,220);
},
{
pos = (0,330);
},
{
pos = (0,440);
},
{
pos = (0,550);
},
{
pos = (0,660);
},
{
pos = (0,770);
},
{
pos = (0,-330);
},
{
pos = (0,-220);
},
{
pos = (0,-110);
},
{
},
{
pos = (0,110);
},
{
pos = (0,220);
},
{
pos = (0,330);
},
{
pos = (0,440);
},
{
pos = (0,550);
},
{
pos = (0,660);
},
{
pos = (0,770);
}
);
layerId = "3ED9E848-BE83-4CAC-8EFF-D71BD2B4F667";
shapes = (
{
closed = 1;
nodes = (
(108,660,ls),
(79,660,o),
(63,644,o),
(63,615,cs),
(63,595,ls),
(63,566,o),
(79,550,o),
(108,550,cs),
(189,550,ls),
(218,550,o),
(234,566,o),
(234,595,cs),
(234,615,ls),
(234,644,o),
(218,660,o),
(189,660,cs)
);
},
{
closed = 1;
nodes = (
(108,110,ls),
(79,110,o),
(63,94,o),
(63,65,cs),
(63,45,ls),
(63,16,o),
(79,0,o),
(108,0,cs),
(189,0,ls),
(218,0,o),
(234,16,o),
(234,45,cs),
(234,65,ls),
(234,94,o),
(218,110,o),
(189,110,cs)
);
},
{
closed = 1;
nodes = (
(108,220,ls),
(79,220,o),
(63,204,o),
(63,175,cs),
(63,155,ls),
(63,126,o),
(79,110,o),
(108,110,cs),
(189,110,ls),
(218,110,o),
(234,126,o),
(234,155,cs),
(234,175,ls),
(234,204,o),
(218,220,o),
(189,220,cs)
);
},
{
closed = 1;
nodes = (
(108,330,ls),
(79,330,o),
(63,314,o),
(63,285,cs),
(63,265,ls),
(63,236,o),
(79,220,o),
(108,220,cs),
(189,220,ls),
(218,220,o),
(234,236,o),
(234,265,cs),
(234,285,ls),
(234,314,o),
(218,330,o),
(189,330,cs)
);
},
{
closed = 1;
nodes = (
(108,440,ls),
(79,440,o),
(63,424,o),
(63,395,cs),
(63,375,ls),
(63,346,o),
(79,330,o),
(108,330,cs),
(189,330,ls),
(218,330,o),
(234,346,o),
(234,375,cs),
(234,395,ls),
(234,424,o),
(218,440,o),
(189,440,cs)
);
},
{
closed = 1;
nodes = (
(108,550,ls),
(79,550,o),
(63,534,o),
(63,505,cs),
(63,485,ls),
(63,456,o),
(79,440,o),
(108,440,cs),
(189,440,ls),
(218,440,o),
(234,456,o),
(234,485,cs),
(234,505,ls),
(234,534,o),
(218,550,o),
(189,550,cs)
);
}
);
width = 297;
}
);
note = I;
unicode = 73;
},
{
glyphname = Iacute;
kernLeft = I;
kernRight = I;
lastChange = "2024-07-19 21:09:57 +0000";
layers = (
{
layerId = "F5467FAD-1970-4982-B3D3-939C01050498";
shapes = (
{
closed = 1;
nodes = (
(118,0,l),
(118,660,l),
(78,660,l),
(78,0,l)
);
},
{
closed = 1;
nodes = (
(176,843,l),
(155,880,l),
(41,773,l),
(58,769,l)
);
}
);
width = 196;
},
{
layerId = "6DD95C5A-998B-41AB-BDFB-84A73C209871";
shapes = (
{
closed = 1;
nodes = (
(211,0,l),
(211,660,l),
(66,660,l),
(66,0,l)
);
},
{
closed = 1;
nodes = (
(273,800,l),
(201,920,l),
(0,733,l),
(111,699,l)
);
}
);
width = 277;
},
{
layerId = "1FDC7037-1F88-4969-8535-0F79C1EF19DB";
shapes = (
{
closed = 1;
nodes = (
(103,0,l),
(103,660,l),
(80,660,l),
(80,0,l)
);
},
{
closed = 1;
nodes = (
(161,850,l),
(147,873,l),
(48,780,l),
(49,780,l)
);
}
);
width = 183;
},
{
guides = (
{
pos = (0,-330);
},
{
pos = (0,-220);
},
{
pos = (0,-110);
},
{
},
{
pos = (0,110);
},
{
pos = (0,220);
},
{
pos = (0,330);
},
{
pos = (0,440);
},
{
pos = (0,550);
},
{
pos = (0,660);
},
{
pos = (0,770);
}
);
layerId = "3ED9E848-BE83-4CAC-8EFF-D71BD2B4F667";
shapes = (
{
closed = 1;
nodes = (
(108,660,ls),
(79,660,o),
(63,644,o),
(63,615,cs),
(63,595,ls),
(63,566,o),
(79,550,o),
(108,550,cs),
(189,550,ls),
(218,550,o),
(234,566,o),
(234,595,cs),
(234,660,l)
);
},
{
closed = 1;
nodes = (
(236,770,ls),
(257,770,o),
(271,773,o),
(282,780,cs),
(282,780,ls),
(292,786,o),
(289,802,o),
(274,827,cs),
(238,887,ls),
(222,915,o),
(198,918,o),
(175,896,cs),
(100,825,ls),
(70,797,o),
(81,770,o),
(122,770,cs)
);
},
{
closed = 1;
nodes = (
(108,110,ls),
(79,110,o),
(63,94,o),
(63,65,cs),
(63,45,ls),
(63,16,o),
(79,0,o),
(108,0,cs),
(189,0,ls),
(218,0,o),
(234,16,o),
(234,45,cs),
(234,65,ls),
(234,94,o),
(218,110,o),
(189,110,cs)
);
},
{
closed = 1;
nodes = (
(108,220,ls),
(79,220,o),
(63,204,o),
(63,175,cs),
(63,155,ls),
(63,126,o),
(79,110,o),
(108,110,cs),
(189,110,ls),
(218,110,o),
(234,126,o),
(234,155,cs),
(234,175,ls),
(234,204,o),
(218,220,o),
(189,220,cs)
);
},
{
closed = 1;
nodes = (
(108,330,ls),
(79,330,o),
(63,314,o),
(63,285,cs),
(63,265,ls),
(63,236,o),
(79,220,o),
(108,220,cs),
(189,220,ls),
(218,220,o),
(234,236,o),
(234,265,cs),
(234,285,ls),
(234,314,o),
(218,330,o),
(189,330,cs)
);
},
{
closed = 1;
nodes = (
(108,440,ls),
(79,440,o),
(63,424,o),
(63,395,cs),
(63,375,ls),
(63,346,o),
(79,330,o),
(108,330,cs),
(189,330,ls),
(218,330,o),
(234,346,o),
(234,375,cs),
(234,395,ls),
(234,424,o),
(218,440,o),
(189,440,cs)
);
},
{
closed = 1;
nodes = (
(108,550,ls),
(79,550,o),
(63,534,o),
(63,505,cs),
(63,485,ls),
(63,456,o),
(79,440,o),
(108,440,cs),
(189,440,ls),
(218,440,o),
(234,456,o),
(234,485,cs),
(234,505,ls),
(234,534,o),
(218,550,o),
(189,550,cs)
);
},
{
closed = 1;
nodes = (
(73,770,ls),
(50,770,o),
(34,764,o),
(18,748,cs),
(16,746,ls),
(2,732,o),
(14,715,o),
(49,704,cs),
(92,691,ls),
(114,684,o),
(132,686,o),
(152,699,cs),
(195,726,ls),
(225,745,o),
(207,770,o),
(163,770,cs)
);
}
);
width = 297;
}
);
note = Iacute;
unicode = 205;
},
{
glyphname = J;
kernLeft = J;
kernRight = J;
lastChange = "2024-07-19 21:09:51 +0000";
layers = (
{
anchors = (
{
name = top;
pos = (438,660);
}
);
layerId = "F5467FAD-1970-4982-B3D3-939C01050498";
shapes = (
{
closed = 1;
nodes = (
(355,-11,o),
(460,56,o),
(460,184,c),
(459,660,l),
(419,660,l),
(419,184,ls),
(419,71,o),
(328,14,o),
(236,14,cs),
(148,14,o),
(104,53,o),
(80,93,c),
(47,72,l),
(79,23,o),
(138,-11,o),
(236,-11,cs)
);
}
);
width = 520;
},
{
anchors = (
{
name = top;
pos = (424,660);
}
);
layerId = "6DD95C5A-998B-41AB-BDFB-84A73C209871";
shapes = (
{
closed = 1;
nodes = (
(397,-11,o),
(506,77,o),
(506,242,cs),
(505,660,l),
(360,660,l),
(360,225,ls),
(360,133,o),
(310,94,o),
(253,94,cs),
(174,94,o),
(163,138,o),
(142,196,c),
(23,113,l),
(49,50,o),
(122,-11,o),
(253,-11,cs)
);
}
);
width = 582;
},
{
anchors = (
{
name = top;
pos = (440,660);
}
);
layerId = "1FDC7037-1F88-4969-8535-0F79C1EF19DB";
shapes = (
{
closed = 1;
nodes = (
(348,-11,o),
(453,52,o),
(453,174,c),
(452,660,l),
(428,660,l),
(428,177,ls),
(428,60,o),
(331,1,o),
(233,1,cs),
(144,1,o),
(94,40,o),
(70,77,c),
(51,65,l),
(84,18,o),
(141,-11,o),
(233,-11,cs)
);
}
);
width = 510;
},
{
anchors = (
{
name = top;
pos = (421,660);
}
);
guides = (
{
pos = (0,-330);
},
{
pos = (0,-220);
},
{
pos = (0,-110);
},
{
},
{
pos = (0,110);
},
{
pos = (0,220);
},
{
pos = (0,330);
},
{
pos = (0,440);
},
{
pos = (0,550);
},
{
pos = (0,660);
},
{
pos = (0,770);
}
);
layerId = "3ED9E848-BE83-4CAC-8EFF-D71BD2B4F667";
shapes = (
{
closed = 1;
nodes = (
(158,220,l),
(157,221,o),
(157,221,o),
(157,222,c),
(154,220,l)
);
},
{
closed = 1;
nodes = (
(254,0,ls),
(268,0,o),
(256,-11,o),
(256,-11,cs),
(256,-11,o),
(256,-11,o),
(256,-11,cs),
(271,-11,o),
(285,-10,o),
(299,-8,cs),
(293,-9,o),
(243,0,o),
(254,0,cs)
);
},
{
closed = 1;
nodes = (
(91,110,ls),
(54,110,o),
(35,82,o),
(63,56,cs),
(82,37,o),
(108,21,o),
(139,9,cs),
(159,1,o),
(174,0,o),
(194,0,cs),
(313,0,ls),
(333,0,o),
(348,1,o),
(367,9,cs),
(395,20,o),
(420,35,o),
(441,55,cs),
(469,81,o),
(452,110,o),
(414,110,cs)
);
},
{
closed = 1;
nodes = (
(391,660,ls),
(362,660,o),
(346,644,o),
(346,615,cs),
(346,595,ls),
(346,566,o),
(362,550,o),
(391,550,cs),
(473,550,ls),
(502,550,o),
(518,565,o),
(518,595,cs),
(517,660,l)
);
},
{
closed = 1;
nodes = (
(387,220,ls),
(360,220,o),
(347,206,o),
(339,178,cs),
(325,133,o),
(293,114,o),
(256,114,cs),
(182,114,o),
(177,157,o),
(158,220,c),
(156,220,ls),
(155,220,o),
(147,214,o),
(129,202,cs),
(17,124,l),
(18,121,o),
(19,119,o),
(20,117,cs),
(22,112,o),
(35,110,o),
(60,110,cs),
(447,110,ls),
(472,110,o),
(490,120,o),
(499,143,cs),
(502,152,o),
(505,162,o),
(508,171,cs),
(515,202,o),
(498,220,o),
(467,220,cs)
);
},
{
closed = 1;
nodes = (
(391,330,ls),
(362,330,o),
(346,314,o),
(346,285,cs),
(346,236,ls),
(346,233,o),
(346,230,o),
(346,228,cs),
(346,223,o),
(362,220,o),
(391,220,cs),
(472,220,ls),
(500,220,o),
(518,256,o),
(518,256,cs),
(518,256,o),
(518,256,o),
(518,256,c),
(518,285,ls),
(518,314,o),
(502,330,o),
(473,330,cs)
);
},
{
closed = 1;
nodes = (
(391,440,ls),
(362,440,o),
(346,424,o),
(346,395,cs),
(346,375,ls),
(346,346,o),
(362,330,o),
(391,330,cs),
(473,330,ls),
(502,330,o),
(518,346,o),
(518,375,cs),
(518,395,ls),
(518,424,o),
(502,440,o),
(473,440,cs)
);
},
{
closed = 1;
nodes = (
(391,550,ls),
(362,550,o),
(346,534,o),
(346,505,cs),
(346,485,ls),
(346,456,o),
(362,440,o),
(391,440,cs),
(473,440,ls),
(502,440,o),
(518,456,o),
(518,485,cs),
(518,505,ls),
(518,534,o),
(502,550,o),
(473,550,cs)
);
}
);
width = 597;
}
);
note = J;
unicode = 74;
},
{
glyphname = K;
kernLeft = B;
kernRight = K;
lastChange = "2024-07-19 12:08:54 +0000";
layers = (
{
anchors = (
{
name = bottom;
pos = (263,0);
},
{
name = top;
pos = (263,660);
}
);
layerId = "F5467FAD-1970-4982-B3D3-939C01050498";
shapes = (
{
closed = 1;
nodes = (
(93,0,l),
(93,244,l),
(222,386,l),
(473,0,l),
(521,0,l),
(250,416,l),
(472,660,l),
(429,660,l),
(93,293,l),
(93,660,l),
(53,660,l),
(53,0,l)
);
}
);
width = 554;
},
{
anchors = (
{
name = bottom;
pos = (329,0);
},
{
name = top;
pos = (329,660);
}
);
layerId = "6DD95C5A-998B-41AB-BDFB-84A73C209871";
shapes = (
{
closed = 1;
nodes = (
(192,0,l),
(192,224,l),
(258,296,l),
(454,0,l),
(617,0,l),
(353,401,l),
(590,660,l),
(423,660,l),
(192,408,l),
(192,660,l),
(47,660,l),
(47,0,l)
);
}
);
width = 640;
},
{
anchors = (
{
name = bottom;
pos = (253,0);
},
{
name = top;
pos = (253,660);
}
);
layerId = "1FDC7037-1F88-4969-8535-0F79C1EF19DB";
shapes = (
{
closed = 1;
nodes = (
(77,0,l),
(77,248,l),
(216,400,l),
(476,0,l),
(505,0,l),
(234,419,l),
(454,660,l),
(430,660,l),
(77,274,l),
(77,660,l),
(54,660,l),
(54,0,l)
);
}
);
width = 539;
},
{
anchors = (
{
name = bottom;
pos = (345,0);
},
{
name = top;
pos = (345,660);
}
);
guides = (
{
pos = (0,-330);
},
{
pos = (0,-220);
},
{
pos = (0,-110);
},
{
},
{
pos = (0,110);
},
{
pos = (0,220);
},
{
pos = (0,330);
},
{
pos = (0,440);
},
{
pos = (0,550);
},
{
pos = (0,660);
},
{
pos = (0,770);
}
);
layerId = "3ED9E848-BE83-4CAC-8EFF-D71BD2B4F667";
shapes = (
{
closed = 1;
nodes = (
(91,110,ls),
(62,110,o),
(46,94,o),
(46,65,cs),
(46,45,ls),
(46,16,o),
(62,0,o),
(91,0,cs),
(172,0,ls),
(201,0,o),
(217,16,o),
(217,45,cs),
(217,65,ls),
(217,94,o),
(201,110,o),
(172,110,cs)
);
},
{
closed = 1;
nodes = (
(441,110,ls),
(404,110,o),
(392,87,o),
(412,56,cs),
(430,29,ls),
(443,9,o),
(460,0,o),
(484,0,cs),
(575,0,ls),
(612,0,o),
(624,23,o),
(604,54,cs),
(586,81,ls),
(573,101,o),
(556,110,o),
(532,110,cs)
);
},
{
closed = 1;
nodes = (
(91,220,ls),
(62,220,o),
(46,204,o),
(46,175,cs),
(46,155,ls),
(46,126,o),
(62,110,o),
(91,110,cs),
(172,110,ls),
(201,110,o),
(217,126,o),
(217,155,cs),
(217,175,ls),
(217,204,o),
(201,220,o),
(172,220,cs)
);
},
{
closed = 1;
nodes = (
(369,220,ls),
(333,220,o),
(320,196,o),
(340,166,cs),
(357,139,ls),
(370,119,o),
(387,110,o),
(411,110,cs),
(502,110,ls),
(538,110,o),
(551,134,o),
(531,164,cs),
(514,191,ls),
(501,211,o),
(484,220,o),
(460,220,cs)
);
},
{
closed = 1;
nodes = (
(91,330,ls),
(62,330,o),
(46,314,o),
(46,285,cs),
(46,265,ls),
(46,236,o),
(62,220,o),
(91,220,cs),
(184,220,ls),
(207,220,o),
(224,227,o),
(240,244,cs),
(268,274,l),
(285,249,ls),
(298,229,o),
(315,220,o),
(339,220,cs),
(430,220,ls),
(467,220,o),
(479,243,o),
(459,274,cs),
(441,301,ls),
(428,321,o),
(411,330,o),
(387,330,cs)
);
},
{
closed = 1;
nodes = (
(620,660,l),
(455,660,ls),
(432,660,o),
(415,653,o),
(400,636,cs),
(372,605,ls),
(346,576,o),
(357,550,o),
(396,550,cs),
(486,550,ls),
(509,550,o),
(525,557,o),
(541,574,cs),
(570,605,ls),
(596,634,o),
(584,660,o),
(545,660,cs),
(217,660,l),
(91,660,ls),
(62,660,o),
(46,644,o),
(46,615,cs),
(46,595,ls),
(46,566,o),
(62,550,o),
(91,550,cs),
(172,550,ls),
(201,550,o),
(217,566,o),
(217,595,cs),
(217,660,l)
);
},
{
closed = 1;
nodes = (
(220,440,l),
(217,437,l),
(217,437,ls),
(217,439,o),
(201,440,o),
(172,440,cs),
(91,440,ls),
(62,440,o),
(46,424,o),
(46,395,cs),
(46,375,ls),
(46,346,o),
(62,330,o),
(91,330,cs),
(357,330,ls),
(393,330,o),
(406,354,o),
(386,384,cs),
(378,397,l),
(378,397,ls),
(399,419,o),
(381,440,o),
(342,440,cs)
);
},
{
closed = 1;
nodes = (
(91,550,ls),
(62,550,o),
(46,534,o),
(46,505,cs),
(46,485,ls),
(46,456,o),
(62,440,o),
(91,440,cs),
(172,440,ls),
(201,440,o),
(217,456,o),
(217,485,cs),
(217,505,ls),
(217,534,o),
(201,550,o),
(172,550,cs)
);
},
{
closed = 1;
nodes = (
(354,550,ls),
(331,550,o),
(314,543,o),
(299,526,cs),
(271,495,ls),
(245,466,o),
(256,440,o),
(295,440,cs),
(385,440,ls),
(408,440,o),
(424,447,o),
(440,464,cs),
(469,495,ls),
(495,524,o),
(483,550,o),
(444,550,cs)
);
}
);
width = 661;
}
);
note = K;
unicode = 75;
},
{
glyphname = L;
kernLeft = B;
kernRight = L;
lastChange = "2024-07-19 21:10:03 +0000";
layers = (
{
anchors = (
{
name = bottom;
pos = (281,0);
},
{
name = top;
pos = (154,660);
}
);
layerId = "F5467FAD-1970-4982-B3D3-939C01050498";
shapes = (
{
closed = 1;
nodes = (
(505,0,l),
(505,28,l),
(92,28,l),
(92,660,l),
(53,660,l),
(53,0,l)
);
}
);
width = 544;
},
{
anchors = (
{
name = bottom;
pos = (317,0);
},
{
name = top;
pos = (230,660);
}
);
layerId = "6DD95C5A-998B-41AB-BDFB-84A73C209871";
shapes = (
{
closed = 1;
nodes = (
(552,0,l),
(552,117,l),
(191,117,l),
(191,660,l),
(47,660,l),
(47,0,l)
);
}
);
width = 580;
},
{
anchors = (
{
name = bottom;
pos = (275,0);
},
{
name = top;
pos = (150,660);
}
);
layerId = "1FDC7037-1F88-4969-8535-0F79C1EF19DB";
shapes = (
{
closed = 1;
nodes = (
(497,0,l),
(497,14,l),
(76,14,l),
(76,660,l),
(54,660,l),
(54,0,l)
);
}
);
width = 538;
},
{
anchors = (
{
name = bottom;
pos = (325,0);
},
{
name = top;
pos = (248,660);
}
);
guides = (
{
pos = (0,-330);
},
{
pos = (0,-220);
},
{
pos = (0,-110);
},
{
},
{
pos = (0,110);
},
{
pos = (0,220);
},
{
pos = (0,330);
},
{
pos = (0,440);
},
{
pos = (0,550);
},
{
pos = (0,660);
},
{
pos = (0,770);
}
);
layerId = "3ED9E848-BE83-4CAC-8EFF-D71BD2B4F667";
shapes = (
{
closed = 1;
nodes = (
(91,660,ls),
(62,660,o),
(46,644,o),
(46,615,cs),
(46,595,ls),
(46,566,o),
(62,550,o),
(91,550,cs),
(171,550,ls),
(200,550,o),
(216,566,o),
(216,595,cs),
(216,660,l)
);
},
{
closed = 1;
nodes = (
(91,110,ls),
(62,110,o),
(46,94,o),
(46,65,cs),
(46,45,ls),
(46,16,o),
(62,0,o),
(91,0,cs),
(518,0,ls),
(547,0,o),
(563,16,o),
(563,45,cs),
(563,65,ls),
(563,94,o),
(547,110,o),
(518,110,cs)
);
},
{
closed = 1;
nodes = (
(91,220,ls),
(62,220,o),
(46,204,o),
(46,175,cs),
(46,155,ls),
(46,126,o),
(62,110,o),
(91,110,cs),
(518,110,ls),
(547,110,o),
(563,116,o),
(563,125,cs),
(563,125,ls),
(563,134,o),
(547,139,o),
(518,139,cs),
(216,139,l),
(216,175,ls),
(216,204,o),
(200,220,o),
(171,220,cs)
);
},
{
closed = 1;
nodes = (
(91,330,ls),
(62,330,o),
(46,314,o),
(46,285,cs),
(46,265,ls),
(46,236,o),
(62,220,o),
(91,220,cs),
(171,220,ls),
(200,220,o),
(216,236,o),
(216,265,cs),
(216,285,ls),
(216,314,o),
(200,330,o),
(171,330,cs)
);
},
{
closed = 1;
nodes = (
(91,440,ls),
(62,440,o),
(46,424,o),
(46,395,cs),
(46,375,ls),
(46,346,o),
(62,330,o),
(91,330,cs),
(171,330,ls),
(200,330,o),
(216,346,o),
(216,375,cs),
(216,395,ls),
(216,424,o),
(200,440,o),
(171,440,cs)
);
},
{
closed = 1;
nodes = (
(91,550,ls),
(62,550,o),
(46,534,o),
(46,505,cs),
(46,485,ls),
(46,456,o),
(62,440,o),
(91,440,cs),
(171,440,ls),
(200,440,o),
(216,456,o),
(216,485,cs),
(216,505,ls),
(216,534,o),
(200,550,o),
(171,550,cs)
);
}
);
width = 589;
}
);
note = L;
unicode = 76;
},
{
glyphname = Lslash;
lastChange = "2024-07-19 21:10:08 +0000";
layers = (
{
layerId = "F5467FAD-1970-4982-B3D3-939C01050498";
shapes = (
{
closed = 1;
nodes = (
(613,0,l),
(613,28,l),
(201,28,l),
(201,369,l),
(324,405,l),
(324,438,l),
(201,403,l),
(201,660,l),
(161,660,l),
(161,391,l),
(51,360,l),
(51,326,l),
(161,357,l),
(161,0,l)
);
}
);
width = 657;
},
{
layerId = "6DD95C5A-998B-41AB-BDFB-84A73C209871";
shapes = (
{
closed = 1;
nodes = (
(660,0,l),
(660,117,l),
(300,117,l),
(300,343,l),
(383,367,l),
(381,485,l),
(300,461,l),
(300,660,l),
(156,660,l),
(156,420,l),
(32,385,l),
(33,267,l),
(156,302,l),
(156,0,l)
);
}
);
width = 657;
},
{
layerId = "1FDC7037-1F88-4969-8535-0F79C1EF19DB";
shapes = (
{
closed = 1;
nodes = (
(605,0,l),
(605,14,l),
(185,14,l),
(185,373,l),
(315,410,l),
(315,431,l),
(185,394,l),
(185,660,l),
(162,660,l),
(162,388,l),
(54,356,l),
(54,336,l),
(162,367,l),
(162,0,l)
);
}
);
width = 657;
},
{
guides = (
{
pos = (0,-330);
},
{
pos = (0,-220);
},
{
pos = (0,-110);
},
{
},
{
pos = (0,110);
},
{
pos = (0,220);
},
{
pos = (0,330);
},
{
pos = (0,440);
},
{
pos = (0,550);
},
{
pos = (0,660);
},
{
pos = (0,770);
}
);
layerId = "3ED9E848-BE83-4CAC-8EFF-D71BD2B4F667";
shapes = (
{
closed = 1;
nodes = (
(155,45,ls),
(155,16,o),
(171,0,o),
(200,0,cs),
(626,0,ls),
(655,0,o),
(671,16,o),
(671,45,cs),
(671,94,ls),
(671,123,o),
(655,139,o),
(626,139,cs),
(369,139,ls),
(340,139,o),
(324,152,o),
(324,175,cs),
(324,175,ls),
(324,204,o),
(308,220,o),
(279,220,cs),
(200,220,ls),
(171,220,o),
(155,204,o),
(155,175,cs),
(155,110,l)
);
},
{
closed = 1;
nodes = (
(200,660,ls),
(171,660,o),
(155,644,o),
(155,615,cs),
(155,595,ls),
(155,566,o),
(171,550,o),
(200,550,cs),
(279,550,ls),
(308,550,o),
(324,566,o),
(324,595,cs),
(324,660,l)
);
},
{
closed = 1;
nodes = (
(73,330,ls),
(44,330,o),
(27,316,o),
(28,292,cs),
(28,292,ls),
(28,269,o),
(47,258,o),
(78,267,cs),
(155,289,l),
(155,265,ls),
(155,236,o),
(171,220,o),
(200,220,cs),
(279,220,ls),
(308,220,o),
(324,236,o),
(324,265,cs),
(324,285,ls),
(324,314,o),
(308,330,o),
(279,330,cs)
);
},
{
closed = 1;
nodes = (
(200,440,ls),
(171,440,o),
(155,435,o),
(155,427,cs),
(155,427,l),
(65,401,ls),
(39,393,o),
(27,380,o),
(27,360,cs),
(27,360,ls),
(27,341,o),
(43,330,o),
(72,330,cs),
(279,330,ls),
(308,330,o),
(324,333,o),
(324,337,cs),
(324,337,l),
(359,347,ls),
(384,354,o),
(397,371,o),
(397,397,cs),
(397,399,ls),
(397,426,o),
(380,440,o),
(351,440,cs)
);
},
{
closed = 1;
nodes = (
(200,550,ls),
(171,550,o),
(155,534,o),
(155,505,cs),
(155,485,ls),
(155,456,o),
(171,440,o),
(200,440,cs),
(351,440,ls),
(380,440,o),
(396,450,o),
(396,468,cs),
(396,468,ls),
(396,486,o),
(376,491,o),
(345,482,cs),
(324,476,l),
(324,505,ls),
(324,534,o),
(308,550,o),
(279,550,cs)
);
}
);
width = 657;
}
);
note = Lslash;
unicode = 321;
},
{
glyphname = M;
kernLeft = B;
kernRight = H;
lastChange = "2024-07-19 21:10:27 +0000";
layers = (
{
anchors = (
{
name = bottom;
pos = (374,0);
},
{
name = top;
pos = (374,660);
}
);
layerId = "F5467FAD-1970-4982-B3D3-939C01050498";
shapes = (
{
closed = 1;
nodes = (
(92,0,l),
(92,582,l),
(350,0,l),
(399,0,l),
(655,582,l),
(655,0,l),
(695,0,l),
(695,660,l),
(641,660,l),
(374,40,l),
(106,660,l),
(53,660,l),
(53,0,l)
);
}
);
width = 748;
},
{
anchors = (
{
name = bottom;
pos = (440,0);
},
{
name = top;
pos = (440,660);
}
);
layerId = "6DD95C5A-998B-41AB-BDFB-84A73C209871";
shapes = (
{
closed = 1;
nodes = (
(192,0,l),
(192,384,l),
(363,0,l),
(518,0,l),
(688,386,l),
(688,0,l),
(834,0,l),
(834,660,l),
(652,661,l),
(440,171,l),
(229,661,l),
(47,660,l),
(47,0,l)
);
}
);
width = 881;
},
{
anchors = (
{
name = bottom;
pos = (364,0);
},
{
name = top;
pos = (364,660);
}
);
layerId = "1FDC7037-1F88-4969-8535-0F79C1EF19DB";
shapes = (
{
closed = 1;
nodes = (
(76,0,l),
(76,613,l),
(348,0,l),
(380,0,l),
(650,613,l),
(650,0,l),
(672,0,l),
(672,660,l),
(639,660,l),
(364,18,l),
(86,660,l),
(54,660,l),
(54,0,l)
);
}
);
width = 727;
},
{
anchors = (
{
name = bottom;
pos = (456,0);
},
{
name = top;
pos = (456,660);
}
);
guides = (
{
pos = (0,-330);
},
{
pos = (0,-220);
},
{
pos = (0,-110);
},
{
},
{
pos = (0,110);
},
{
pos = (0,220);
},
{
pos = (0,330);
},
{
pos = (0,440);
},
{
pos = (0,550);
},
{
pos = (0,660);
},
{
pos = (0,770);
}
);
layerId = "3ED9E848-BE83-4CAC-8EFF-D71BD2B4F667";
shapes = (
{
closed = 1;
nodes = (
(91,110,ls),
(62,110,o),
(46,94,o),
(46,65,cs),
(46,45,ls),
(46,16,o),
(62,0,o),
(91,0,cs),
(172,0,ls),
(201,0,o),
(217,16,o),
(217,45,cs),
(217,65,ls),
(217,94,o),
(201,110,o),
(172,110,cs)
);
},
{
closed = 1;
nodes = (
(375,110,ls),
(341,110,o),
(327,89,o),
(341,57,cs),
(351,34,ls),
(361,11,o),
(378,0,o),
(403,0,cs),
(510,0,ls),
(535,0,o),
(552,11,o),
(562,34,cs),
(573,57,ls),
(587,89,o),
(572,110,o),
(538,110,cs)
);
},
{
closed = 1;
nodes = (
(742,110,ls),
(713,110,o),
(697,94,o),
(697,65,cs),
(697,45,ls),
(697,16,o),
(713,0,o),
(742,0,cs),
(823,0,ls),
(852,0,o),
(868,16,o),
(868,45,cs),
(868,65,ls),
(868,94,o),
(852,110,o),
(823,110,cs)
);
},
{
closed = 1;
nodes = (
(91,220,ls),
(62,220,o),
(46,204,o),
(46,175,cs),
(46,155,ls),
(46,126,o),
(62,110,o),
(91,110,cs),
(172,110,ls),
(201,110,o),
(217,126,o),
(217,155,cs),
(217,175,ls),
(217,204,o),
(201,220,o),
(172,220,cs)
);
},
{
closed = 1;
nodes = (
(501,220,ls),
(476,220,o),
(461,214,o),
(456,203,cs),
(456,203,l),
(456,203,ls),
(451,214,o),
(436,220,o),
(411,220,cs),
(326,220,ls),
(292,220,o),
(278,199,o),
(292,167,cs),
(302,144,ls),
(312,121,o),
(329,110,o),
(354,110,cs),
(559,110,ls),
(584,110,o),
(601,121,o),
(611,144,cs),
(622,167,ls),
(636,199,o),
(621,220,o),
(587,220,cs)
);
},
{
closed = 1;
nodes = (
(742,220,ls),
(713,220,o),
(697,204,o),
(697,175,cs),
(697,155,ls),
(697,126,o),
(713,110,o),
(742,110,cs),
(823,110,ls),
(852,110,o),
(868,126,o),
(868,155,cs),
(868,175,ls),
(868,204,o),
(852,220,o),
(823,220,cs)
);
},
{
closed = 1;
nodes = (
(91,330,ls),
(62,330,o),
(46,314,o),
(46,285,cs),
(46,265,ls),
(46,236,o),
(62,220,o),
(91,220,cs),
(172,220,ls),
(201,220,o),
(217,236,o),
(217,265,cs),
(217,285,ls),
(217,314,o),
(201,330,o),
(172,330,cs)
);
},
{
closed = 1;
nodes = (
(277,330,ls),
(243,330,o),
(229,309,o),
(243,277,cs),
(253,254,ls),
(263,231,o),
(280,220,o),
(305,220,cs),
(392,220,ls),
(426,220,o),
(440,240,o),
(427,272,cs),
(417,296,ls),
(407,319,o),
(390,330,o),
(365,330,cs)
);
},
{
closed = 1;
nodes = (
(548,330,ls),
(523,330,o),
(506,320,o),
(496,296,cs),
(486,273,ls),
(472,241,o),
(486,220,o),
(520,220,cs),
(608,220,ls),
(633,220,o),
(650,230,o),
(660,254,cs),
(670,277,ls),
(684,309,o),
(670,330,o),
(636,330,cs)
);
},
{
closed = 1;
nodes = (
(742,330,ls),
(713,330,o),
(697,314,o),
(697,285,cs),
(697,265,ls),
(697,236,o),
(713,220,o),
(742,220,cs),
(823,220,ls),
(852,220,o),
(868,236,o),
(868,265,cs),
(868,285,ls),
(868,314,o),
(852,330,o),
(823,330,cs)
);
},
{
closed = 1;
nodes = (
(91,440,ls),
(62,440,o),
(46,424,o),
(46,395,cs),
(46,375,ls),
(46,346,o),
(62,330,o),
(91,330,cs),
(217,330,l),
(217,335,l),
(217,335,ls),
(218,332,o),
(232,330,o),
(257,330,cs),
(345,330,ls),
(379,330,o),
(392,352,o),
(379,383,cs),
(369,406,ls),
(359,430,o),
(342,440,o),
(317,440,cs)
);
},
{
closed = 1;
nodes = (
(596,440,ls),
(571,440,o),
(554,430,o),
(544,406,cs),
(534,383,ls),
(520,351,o),
(534,330,o),
(568,330,cs),
(693,330,l),
(697,338,l),
(697,338,ls),
(697,333,o),
(713,330,o),
(742,330,cs),
(823,330,ls),
(852,330,o),
(868,346,o),
(868,375,cs),
(868,395,ls),
(868,424,o),
(852,440,o),
(823,440,cs)
);
},
{
closed = 1;
nodes = (
(91,550,ls),
(62,550,o),
(46,534,o),
(46,505,cs),
(46,485,ls),
(46,456,o),
(62,440,o),
(91,440,cs),
(297,440,ls),
(331,440,o),
(345,460,o),
(332,492,cs),
(322,516,ls),
(312,539,o),
(295,550,o),
(270,550,cs)
);
},
{
closed = 1;
nodes = (
(643,550,ls),
(618,550,o),
(601,539,o),
(591,516,cs),
(581,492,ls),
(568,461,o),
(582,440,o),
(616,440,cs),
(823,440,ls),
(852,440,o),
(868,456,o),
(868,485,cs),
(868,505,ls),
(868,534,o),
(852,550,o),
(823,550,cs)
);
},
{
closed = 1;
nodes = (
(91,660,ls),
(62,660,o),
(46,644,o),
(46,615,cs),
(46,595,ls),
(46,566,o),
(62,550,o),
(91,550,cs),
(250,550,ls),
(284,550,o),
(297,572,o),
(284,603,cs),
(274,626,ls),
(264,650,o),
(247,660,o),
(222,660,cs)
);
},
{
closed = 1;
nodes = (
(691,660,ls),
(666,660,o),
(649,650,o),
(639,626,cs),
(629,603,ls),
(615,571,o),
(629,550,o),
(663,550,cs),
(823,550,ls),
(852,550,o),
(868,566,o),
(868,595,cs),
(868,615,ls),
(868,644,o),
(852,660,o),
(823,660,cs)
);
}
);
width = 914;
}
);
note = M;
unicode = 77;
},
{
glyphname = N;
kernLeft = B;
kernRight = H;
lastChange = "2024-07-19 12:08:54 +0000";
layers = (
{
anchors = (
{
name = bottom;
pos = (283,0);
},
{
name = top;
pos = (283,660);
}
);
layerId = "F5467FAD-1970-4982-B3D3-939C01050498";
shapes = (
{
closed = 1;
nodes = (
(93,0,l),
(93,589,l),
(470,0,l),
(512,0,l),
(512,660,l),
(472,660,l),
(472,66,l),
(94,660,l),
(53,660,l),
(53,0,l)
);
}
);
width = 565;
},
{
anchors = (
{
name = bottom;
pos = (321,0);
},
{
name = top;
pos = (321,660);
}
);
layerId = "6DD95C5A-998B-41AB-BDFB-84A73C209871";
shapes = (
{
closed = 1;
nodes = (
(192,0,l),
(192,411,l),
(450,0,l),
(593,0,l),
(593,660,l),
(448,660,l),
(448,256,l),
(192,660,l),
(47,660,l),
(47,0,l)
);
}
);
width = 640;
},
{
anchors = (
{
name = bottom;
pos = (277,0);
},
{
name = top;
pos = (277,660);
}
);
layerId = "1FDC7037-1F88-4969-8535-0F79C1EF19DB";
shapes = (
{
closed = 1;
nodes = (
(77,0,l),
(77,618,l),
(472,0,l),
(499,0,l),
(499,660,l),
(475,660,l),
(475,35,l),
(78,660,l),
(54,660,l),
(54,0,l)
);
}
);
width = 553;
},
{
anchors = (
{
name = bottom;
pos = (330,0);
},
{
name = top;
pos = (330,660);
}
);
guides = (
{
pos = (0,-330);
},
{
pos = (0,-220);
},
{
pos = (0,-110);
},
{
},
{
pos = (0,110);
},
{
pos = (0,220);
},
{
pos = (0,330);
},
{
pos = (0,440);
},
{
pos = (0,550);
},
{
pos = (0,660);
},
{
pos = (0,770);
}
);
layerId = "3ED9E848-BE83-4CAC-8EFF-D71BD2B4F667";
shapes = (
{
closed = 1;
nodes = (
(91,110,ls),
(62,110,o),
(46,94,o),
(46,65,cs),
(46,45,ls),
(46,16,o),
(62,0,o),
(91,0,cs),
(172,0,ls),
(201,0,o),
(217,16,o),
(217,45,cs),
(217,65,ls),
(217,94,o),
(201,110,o),
(172,110,cs)
);
},
{
closed = 1;
nodes = (
(441,110,ls),
(405,110,o),
(391,87,o),
(410,56,cs),
(426,30,ls),
(439,9,o),
(456,0,o),
(480,0,cs),
(568,0,ls),
(597,0,o),
(613,16,o),
(613,45,cs),
(613,65,ls),
(613,94,o),
(597,110,o),
(568,110,cs)
);
},
{
closed = 1;
nodes = (
(91,220,ls),
(62,220,o),
(46,204,o),
(46,175,cs),
(46,155,ls),
(46,126,o),
(62,110,o),
(91,110,cs),
(172,110,ls),
(201,110,o),
(217,126,o),
(217,155,cs),
(217,175,ls),
(217,204,o),
(201,220,o),
(172,220,cs)
);
},
{
closed = 1;
nodes = (
(373,220,ls),
(337,220,o),
(323,197,o),
(342,166,cs),
(358,140,ls),
(371,119,o),
(388,110,o),
(412,110,cs),
(568,110,ls),
(597,110,o),
(613,126,o),
(613,155,cs),
(613,175,ls),
(613,204,o),
(597,220,o),
(568,220,cs)
);
},
{
closed = 1;
nodes = (
(91,330,ls),
(62,330,o),
(46,314,o),
(46,285,cs),
(46,265,ls),
(46,236,o),
(62,220,o),
(91,220,cs),
(172,220,ls),
(201,220,o),
(217,236,o),
(217,265,cs),
(217,285,ls),
(217,314,o),
(201,330,o),
(172,330,cs)
);
},
{
closed = 1;
nodes = (
(613,660,l),
(487,660,ls),
(458,660,o),
(442,644,o),
(442,615,cs),
(442,595,ls),
(442,566,o),
(458,550,o),
(487,550,cs),
(568,550,ls),
(597,550,o),
(613,566,o),
(613,595,cs),
(613,615,ls),
(613,644,o),
(597,660,o),
(568,660,cs),
(217,660,l),
(91,660,ls),
(62,660,o),
(46,644,o),
(46,615,cs),
(46,595,ls),
(46,566,o),
(62,550,o),
(91,550,cs),
(223,550,ls),
(259,550,o),
(271,573,o),
(252,604,cs),
(217,660,l)
);
},
{
closed = 1;
nodes = (
(487,330,ls),
(458,330,o),
(442,320,o),
(442,304,cs),
(442,304,l),
(442,304,ls),
(431,322,o),
(415,330,o),
(391,330,cs),
(305,330,ls),
(269,330,o),
(255,307,o),
(274,276,cs),
(290,250,ls),
(303,229,o),
(320,220,o),
(344,220,cs),
(568,220,ls),
(597,220,o),
(613,236,o),
(613,265,cs),
(613,285,ls),
(613,314,o),
(597,330,o),
(568,330,cs)
);
},
{
closed = 1;
nodes = (
(91,440,ls),
(62,440,o),
(46,424,o),
(46,395,cs),
(46,375,ls),
(46,346,o),
(62,330,o),
(91,330,cs),
(172,330,ls),
(201,330,o),
(217,344,o),
(217,368,cs),
(217,368,l),
(222,360,ls),
(235,340,o),
(252,330,o),
(276,330,cs),
(362,330,ls),
(398,330,o),
(410,353,o),
(391,384,cs),
(375,410,ls),
(362,430,o),
(345,440,o),
(321,440,cs)
);
},
{
closed = 1;
nodes = (
(487,440,ls),
(458,440,o),
(442,424,o),
(442,395,cs),
(442,375,ls),
(442,346,o),
(458,330,o),
(487,330,cs),
(568,330,ls),
(597,330,o),
(613,346,o),
(613,375,cs),
(613,395,ls),
(613,424,o),
(597,440,o),
(568,440,cs)
);
},
{
closed = 1;
nodes = (
(91,550,ls),
(62,550,o),
(46,534,o),
(46,505,cs),
(46,485,ls),
(46,456,o),
(62,440,o),
(91,440,cs),
(292,440,ls),
(328,440,o),
(341,463,o),
(322,494,cs),
(306,520,ls),
(293,540,o),
(276,550,o),
(252,550,cs)
);
},
{
closed = 1;
nodes = (
(487,550,ls),
(458,550,o),
(442,534,o),
(442,505,cs),
(442,485,ls),
(442,456,o),
(458,440,o),
(487,440,cs),
(568,440,ls),
(597,440,o),
(613,456,o),
(613,485,cs),
(613,505,ls),
(613,534,o),
(597,550,o),
(568,550,cs)
);
}
);
width = 659;
}
);
note = N;
unicode = 78;
},
{
glyphname = Nhookleft;
lastChange = "2024-07-20 00:23:15 +0000";
layers = (
{
layerId = "F5467FAD-1970-4982-B3D3-939C01050498";
shapes = (
{
closed = 1;
nodes = (
(53,0,l),
(53,-118,ls),
(53,-150,o),
(39,-157,o),
(24,-157,cs),
(3,-157,o),
(-24,-148,o),
(-48,-127,c),
(-52,-159,l),
(-38,-174,o),
(-8,-191,o),
(24,-191,cs),
(79,-191,o),
(93,-150,o),
(93,-118,cs),
(93,0,l)
);
},
{
ref = N;
}
);
width = 566;
},
{
layerId = "6DD95C5A-998B-41AB-BDFB-84A73C209871";
shapes = (
{
closed = 1;
nodes = (
(47,0,l),
(47,-61,ls),
(47,-93,o),
(34,-100,o),
(19,-100,cs),
(-2,-100,o),
(-28,-91,o),
(-53,-71,c),
(-53,-159,l),
(-29,-174,o),
(4,-191,o),
(55,-191,cs),
(124,-191,o),
(192,-150,o),
(192,-61,cs),
(192,0,l)
);
},
{
ref = N;
}
);
width = 640;
},
{
layerId = "1FDC7037-1F88-4969-8535-0F79C1EF19DB";
shapes = (
{
closed = 1;
nodes = (
(54,0,l),
(54,-127,ls),
(54,-159,o),
(40,-166,o),
(25,-166,cs),
(4,-166,o),
(-23,-157,o),
(-47,-137,c),
(-52,-159,l),
(-39,-174,o),
(-9,-191,o),
(19,-191,cs),
(72,-191,o),
(77,-150,o),
(77,-127,cs),
(77,0,l)
);
},
{
ref = N;
}
);
width = 554;
},
{
guides = (
{
pos = (0,-330);
},
{
pos = (0,-220);
},
{
pos = (0,-110);
},
{
},
{
pos = (0,110);
},
{
pos = (0,220);
},
{
pos = (0,330);
},
{
pos = (0,440);
},
{
pos = (0,550);
},
{
pos = (0,660);
},
{
pos = (0,770);
}
);
layerId = "3ED9E848-BE83-4CAC-8EFF-D71BD2B4F667";
shapes = (
{
ref = N;
},
{
closed = 1;
nodes = (
(91,0,ls),
(62,0,o),
(46,-16,o),
(46,-45,cs),
(46,-47,ls),
(46,-79,o),
(33,-86,o),
(18,-86,cs),
(7,-86,o),
(-6,-83,o),
(-20,-78,cs),
(-42,-68,o),
(-54,-80,o),
(-53,-114,cs),
(-53,-123,ls),
(-53,-148,o),
(-44,-165,o),
(-21,-175,cs),
(0,-184,o),
(27,-191,o),
(62,-191,cs),
(118,-191,o),
(179,-167,o),
(204,-110,cs),
(212,-92,o),
(217,-71,o),
(217,-47,cs),
(217,0,l)
);
}
);
width = 659;
}
);
unicode = 413;
},
{
glyphname = Eng;
lastChange = "2024-07-20 00:15:50 +0000";
layers = (
{
layerId = "F5467FAD-1970-4982-B3D3-939C01050498";
shapes = (
{
closed = 1;
nodes = (
(470,0,l),
(470,-118,ls),
(470,-143,o),
(459,-157,o),
(426,-157,cs),
(405,-157,o),
(386,-148,o),
(361,-127,c),
(357,-159,l),
(375,-174,o),
(402,-191,o),
(433,-191,cs),
(488,-191,o),
(512,-159,o),
(512,-118,cs),
(512,0,l)
);
},
{
ref = N;
}
);
width = 565;
},
{
layerId = "6DD95C5A-998B-41AB-BDFB-84A73C209871";
shapes = (
{
closed = 1;
nodes = (
(450,0,l),
(450,-61,ls),
(450,-93,o),
(435,-100,o),
(420,-100,cs),
(399,-100,o),
(372,-91,o),
(348,-71,c),
(348,-159,l),
(372,-174,o),
(405,-191,o),
(455,-191,cs),
(524,-191,o),
(593,-150,o),
(593,-61,cs),
(593,0,l)
);
},
{
ref = N;
}
);
width = 640;
},
{
layerId = "1FDC7037-1F88-4969-8535-0F79C1EF19DB";
shapes = (
{
closed = 1;
nodes = (
(472,0,l),
(472,-127,ls),
(472,-151,o),
(463,-166,o),
(427,-166,cs),
(406,-166,o),
(388,-157,o),
(363,-137,c),
(359,-159,l),
(376,-174,o),
(402,-191,o),
(429,-191,cs),
(483,-191,o),
(499,-161,o),
(499,-127,cs),
(499,0,l)
);
},
{
ref = N;
}
);
width = 553;
},
{
guides = (
{
pos = (0,-330);
},
{
pos = (0,-220);
},
{
pos = (0,-110);
},
{
},
{
pos = (0,110);
},
{
pos = (0,220);
},
{
pos = (0,330);
},
{
pos = (0,440);
},
{
pos = (0,550);
},
{
pos = (0,660);
},
{
pos = (0,770);
}
);
layerId = "3ED9E848-BE83-4CAC-8EFF-D71BD2B4F667";
shapes = (
{
closed = 1;
nodes = (
(490,0,ls),
(461,0,o),
(445,-16,o),
(445,-45,cs),
(445,-47,ls),
(445,-81,o),
(429,-86,o),
(418,-86,cs),
(407,-86,o),
(393,-83,o),
(380,-78,cs),
(357,-68,o),
(345,-68,o),
(346,-84,cs),
(346,-84,ls),
(346,-102,o),
(362,-110,o),
(391,-110,cs),
(561,-110,ls),
(587,-110,o),
(607,-99,o),
(611,-73,cs),
(612,-65,o),
(613,-56,o),
(613,-47,cs),
(613,0,l)
);
},
{
ref = N;
},
{
closed = 1;
nodes = (
(391,-110,ls),
(362,-110,o),
(346,-119,o),
(346,-135,cs),
(346,-135,ls),
(346,-152,o),
(355,-166,o),
(378,-175,cs),
(399,-184,o),
(426,-191,o),
(461,-191,cs),
(493,-191,o),
(527,-182,o),
(554,-164,cs),
(586,-142,o),
(566,-110,o),
(528,-110,cs)
);
}
);
width = 659;
}
);
unicode = 330;
},
{
glyphname = O;
kernLeft = C;
kernRight = O;
lastChange = "2024-07-19 12:08:54 +0000";
layers = (
{
anchors = (
{
name = bottom;
pos = (390,0);
},
{
name = ogonek;
pos = (358,0);
},
{
name = top;
pos = (357,660);
}
);
layerId = "F5467FAD-1970-4982-B3D3-939C01050498";
shapes = (
{
closed = 1;
nodes = (
(556,-5,o),
(687,142,o),
(687,328,cs),
(687,515,o),
(556,665,o),
(357,665,cs),
(158,665,o),
(28,515,o),
(28,328,cs),
(28,143,o),
(159,-5,o),
(357,-5,cs)
);
},
{
closed = 1;
nodes = (
(184,25,o),
(69,155,o),
(69,328,cs),
(69,503,o),
(185,636,o),
(357,636,cs),
(531,636,o),
(646,503,o),
(646,328,cs),
(646,155,o),
(531,25,o),
(357,25,cs)
);
}
);
width = 715;
},
{
anchors = (
{
name = bottom;
pos = (390,0);
},
{
name = ogonek;
pos = (358,0);
},
{
name = top;
pos = (390,660);
}
);
layerId = "6DD95C5A-998B-41AB-BDFB-84A73C209871";
shapes = (
{
closed = 1;
nodes = (
(598,-5,o),
(734,151,o),
(734,328,cs),
(734,507,o),
(598,665,o),
(390,665,cs),
(183,665,o),
(47,507,o),
(47,328,cs),
(47,151,o),
(184,-5,o),
(390,-5,cs)
);
},
{
closed = 1;
nodes = (
(273,104,o),
(192,194,o),
(192,328,cs),
(192,464,o),
(273,556,o),
(390,556,cs),
(508,556,o),
(588,464,o),
(588,328,cs),
(588,194,o),
(508,104,o),
(390,104,cs)
);
}
);
width = 781;
},
{
anchors = (
{
name = bottom;
pos = (390,0);
},
{
name = ogonek;
pos = (358,0);
},
{
name = top;
pos = (352,660);
}
);
layerId = "1FDC7037-1F88-4969-8535-0F79C1EF19DB";
shapes = (
{
closed = 1;
nodes = (
(550,-5,o),
(679,141,o),
(679,328,cs),
(679,516,o),
(550,665,o),
(352,665,cs),
(155,665,o),
(25,516,o),
(25,328,cs),
(25,142,o),
(156,-5,o),
(352,-5,cs)
);
},
{
closed = 1;
nodes = (
(170,12,o),
(49,148,o),
(49,328,cs),
(49,509,o),
(171,648,o),
(352,648,cs),
(535,648,o),
(655,509,o),
(655,328,cs),
(655,148,o),
(535,12,o),
(352,12,cs)
);
}
);
width = 704;
},
{
anchors = (
{
name = bottom;
pos = (390,0);
},
{
name = ogonek;
pos = (358,0);
},
{
name = top;
pos = (399,660);
}
);
guides = (
{
pos = (0,-330);
},
{
pos = (0,-220);
},
{
pos = (0,-110);
},
{
},
{
pos = (0,110);
},
{
pos = (0,220);
},
{
pos = (0,330);
},
{
pos = (0,440);
},
{
pos = (0,550);
},
{
pos = (0,660);
},
{
pos = (0,770);
}
);
layerId = "3ED9E848-BE83-4CAC-8EFF-D71BD2B4F667";
shapes = (
{
closed = 1;
nodes = (
(461,660,l),
(441,663,o),
(420,665,o),
(399,665,cs),
(377,665,o),
(356,663,o),
(336,660,c)
);
},
{
closed = 1;
nodes = (
(336,0,l),
(356,-3,o),
(377,-5,o),
(399,-5,cs),
(421,-5,o),
(442,-3,o),
(462,0,c)
);
},
{
closed = 1;
nodes = (
(220,110,ls),
(178,110,o),
(164,77,o),
(198,54,cs),
(231,32,o),
(268,15,o),
(309,5,cs),
(329,1,o),
(343,0,o),
(363,0,cs),
(435,0,ls),
(455,0,o),
(469,1,o),
(489,6,cs),
(530,16,o),
(567,32,o),
(600,54,cs),
(635,77,o),
(620,110,o),
(578,110,cs)
);
},
{
closed = 1;
nodes = (
(588,220,ls),
(564,220,o),
(548,210,o),
(533,189,cs),
(502,148,o),
(455,124,o),
(399,124,cs),
(342,124,o),
(295,148,o),
(264,189,cs),
(249,210,o),
(233,220,o),
(209,220,cs),
(128,220,ls),
(94,220,o),
(77,198,o),
(94,167,cs),
(100,156,o),
(106,146,o),
(113,136,cs),
(127,117,o),
(145,110,o),
(168,110,cs),
(630,110,ls),
(653,110,o),
(671,117,o),
(685,137,cs),
(691,146,o),
(698,157,o),
(704,167,cs),
(720,198,o),
(703,220,o),
(669,220,cs)
);
},
{
closed = 1;
nodes = (
(52,330,l),
(52,329,o),
(52,329,o),
(52,328,cs),
(52,304,o),
(54,281,o),
(59,258,cs),
(65,232,o),
(83,220,o),
(109,220,cs),
(192,220,ls),
(224,220,o),
(235,238,o),
(229,270,cs),
(225,288,o),
(223,307,o),
(223,328,cs),
(223,329,o),
(223,329,o),
(223,330,c)
);
},
{
closed = 1;
nodes = (
(574,330,l),
(574,329,o),
(574,329,o),
(574,328,cs),
(574,307,o),
(572,288,o),
(568,270,cs),
(562,238,o),
(573,220,o),
(605,220,cs),
(688,220,ls),
(714,220,o),
(732,232,o),
(738,258,cs),
(743,281,o),
(745,304,o),
(745,328,cs),
(745,329,o),
(745,329,o),
(745,330,c)
);
},
{
closed = 1;
nodes = (
(110,440,ls),
(84,440,o),
(66,428,o),
(60,402,cs),
(58,394,o),
(57,385,o),
(55,377,cs),
(51,347,o),
(69,330,o),
(99,330,cs),
(180,330,ls),
(208,330,o),
(222,345,o),
(226,373,cs),
(227,379,o),
(228,385,o),
(229,390,cs),
(236,422,o),
(225,440,o),
(193,440,cs)
);
},
{
closed = 1;
nodes = (
(604,440,ls),
(572,440,o),
(561,422,o),
(568,390,cs),
(569,384,o),
(570,379,o),
(571,373,cs),
(575,345,o),
(589,330,o),
(617,330,cs),
(698,330,ls),
(728,330,o),
(746,347,o),
(742,377,cs),
(740,385,o),
(739,394,o),
(737,402,cs),
(731,428,o),
(713,440,o),
(687,440,cs)
);
},
{
closed = 1;
nodes = (
(169,550,ls),
(146,550,o),
(128,543,o),
(114,524,cs),
(107,514,o),
(101,503,o),
(95,493,cs),
(78,462,o),
(95,440,o),
(129,440,cs),
(210,440,ls),
(234,440,o),
(250,450,o),
(265,471,cs),
(296,513,o),
(342,537,o),
(399,537,cs),
(455,537,o),
(502,513,o),
(533,471,cs),
(547,450,o),
(563,440,o),
(587,440,cs),
(668,440,ls),
(702,440,o),
(719,462,o),
(702,493,cs),
(696,504,o),
(690,514,o),
(683,524,cs),
(669,543,o),
(651,550,o),
(628,550,cs)
);
},
{
closed = 1;
nodes = (
(363,660,ls),
(343,660,o),
(329,659,o),
(309,654,cs),
(269,644,o),
(231,628,o),
(199,606,cs),
(164,583,o),
(179,550,o),
(221,550,cs),
(576,550,ls),
(618,550,o),
(632,583,o),
(598,606,cs),
(565,628,o),
(529,645,o),
(488,655,cs),
(468,659,o),
(454,660,o),
(434,660,cs)
);
}
);
width = 797;
}
);
note = O;
unicode = 79;
},
{
glyphname = Oslash;
kernLeft = C;
kernRight = O;
lastChange = "2024-07-19 12:08:54 +0000";
layers = (
{
layerId = "F5467FAD-1970-4982-B3D3-939C01050498";
shapes = (
{
closed = 1;
nodes = (
(222,-70,l),
(255,-70,l),
(494,740,l),
(461,740,l)
);
},
{
ref = O;
}
);
width = 715;
},
{
layerId = "6DD95C5A-998B-41AB-BDFB-84A73C209871";
shapes = (
{
closed = 1;
nodes = (
(217,-60,l),
(330,-60,l),
(565,731,l),
(452,731,l)
);
},
{
ref = O;
}
);
width = 781;
},
{
layerId = "1FDC7037-1F88-4969-8535-0F79C1EF19DB";
shapes = (
{
closed = 1;
nodes = (
(223,-72,l),
(242,-72,l),
(483,742,l),
(463,742,l)
);
},
{
ref = O;
}
);
width = 704;
},
{
guides = (
{
pos = (0,-330);
},
{
pos = (0,-220);
},
{
pos = (0,-110);
},
{
},
{
pos = (0,110);
},
{
pos = (0,220);
},
{
pos = (0,330);
},
{
pos = (0,440);
},
{
pos = (0,550);
},
{
pos = (0,660);
},
{
pos = (0,770);
}
);
layerId = "3ED9E848-BE83-4CAC-8EFF-D71BD2B4F667";
shapes = (
{
closed = 1;
nodes = (
(523,660,ls),
(549,660,o),
(565,672,o),
(572,695,cs),
(572,695,ls),
(578,717,o),
(561,729,o),
(529,729,cs),
(489,729,ls),
(463,729,o),
(447,718,o),
(440,695,cs),
(440,695,ls),
(434,673,o),
(451,660,o),
(483,660,cs)
);
},
{
ref = O;
},
{
closed = 1;
nodes = (
(273,0,ls),
(247,0,o),
(230,-9,o),
(225,-29,cs),
(225,-29,ls),
(220,-46,o),
(237,-58,o),
(269,-58,cs),
(310,-58,ls),
(336,-58,o),
(352,-48,o),
(358,-29,cs),
(358,-29,ls),
(363,-12,o),
(345,0,o),
(313,0,cs)
);
},
{
closed = 1;
nodes = (
(305,110,ls),
(279,110,o),
(263,99,o),
(255,73,cs),
(248,51,ls),
(239,19,o),
(254,0,o),
(286,0,cs),
(327,0,ls),
(353,0,o),
(369,11,o),
(377,37,cs),
(384,59,ls),
(393,91,o),
(378,110,o),
(346,110,cs)
);
},
{
closed = 1;
nodes = (
(338,220,ls),
(312,220,o),
(296,209,o),
(288,183,cs),
(281,161,ls),
(272,129,o),
(287,110,o),
(319,110,cs),
(360,110,ls),
(386,110,o),
(402,121,o),
(410,147,cs),
(417,169,ls),
(426,201,o),
(411,220,o),
(379,220,cs)
);
},
{
closed = 1;
nodes = (
(371,330,ls),
(345,330,o),
(329,319,o),
(321,293,cs),
(314,271,ls),
(305,239,o),
(320,220,o),
(352,220,cs),
(393,220,ls),
(419,220,o),
(436,233,o),
(443,258,cs),
(449,279,ls),
(458,311,o),
(443,330,o),
(411,330,cs)
);
},
{
closed = 1;
nodes = (
(404,440,ls),
(378,440,o),
(362,429,o),
(354,403,cs),
(347,381,ls),
(338,349,o),
(353,330,o),
(385,330,cs),
(425,330,ls),
(451,330,o),
(467,341,o),
(475,367,cs),
(482,389,ls),
(491,421,o),
(476,440,o),
(444,440,cs)
);
},
{
closed = 1;
nodes = (
(436,550,ls),
(410,550,o),
(393,537,o),
(386,512,cs),
(380,491,ls),
(371,459,o),
(386,440,o),
(418,440,cs),
(458,440,ls),
(484,440,o),
(501,453,o),
(508,478,cs),
(514,499,ls),
(523,531,o),
(508,550,o),
(476,550,cs)
);
},
{
closed = 1;
nodes = (
(469,660,ls),
(443,660,o),
(427,649,o),
(419,623,cs),
(412,601,ls),
(403,569,o),
(418,550,o),
(450,550,cs),
(490,550,ls),
(516,550,o),
(532,561,o),
(540,587,cs),
(547,609,ls),
(556,641,o),
(541,660,o),
(509,660,cs)
);
}
);
width = 797;
}
);
note = Oslash;
unicode = 216;
},
{
glyphname = OE;
kernLeft = C;
kernRight = E;
lastChange = "2024-07-19 22:40:40 +0000";
layers = (
{
layerId = "F5467FAD-1970-4982-B3D3-939C01050498";
shapes = (
{
closed = 1;
nodes = (
(422,-5,o),
(495,23,o),
(550,69,c),
(550,0,l),
(1047,0,l),
(1047,28,l),
(589,28,l),
(589,319,l),
(1026,319,l),
(1026,349,l),
(589,349,l),
(589,631,l),
(1036,631,l),
(1036,660,l),
(550,660,l),
(550,589,l),
(495,637,o),
(422,665,o),
(336,665,cs),
(137,665,o),
(8,515,o),
(8,328,cs),
(8,143,o),
(138,-5,o),
(336,-5,cs)
);
},
{
closed = 1;
nodes = (
(162,25,o),
(47,155,o),
(47,328,cs),
(47,503,o),
(163,636,o),
(336,636,cs),
(442,636,o),
(512,606,o),
(550,530,c),
(550,132,l),
(512,56,o),
(442,25,o),
(336,25,cs)
);
}
);
width = 1091;
},
{
layerId = "6DD95C5A-998B-41AB-BDFB-84A73C209871";
shapes = (
{
closed = 1;
nodes = (
(429,-5,o),
(491,12,o),
(541,41,c),
(541,0,l),
(1087,0,l),
(1087,117,l),
(687,117,l),
(687,279,l),
(1068,279,l),
(1068,396,l),
(687,396,l),
(687,543,l),
(1078,543,l),
(1078,660,l),
(541,660,l),
(541,620,l),
(491,648,o),
(429,665,o),
(362,665,cs),
(155,665,o),
(19,507,o),
(19,328,cs),
(19,151,o),
(157,-5,o),
(362,-5,cs)
);
},
{
closed = 1;
nodes = (
(244,104,o),
(164,194,o),
(164,328,cs),
(164,464,o),
(245,556,o),
(362,556,cs),
(446,556,o),
(511,509,o),
(541,433,c),
(541,224,l),
(511,150,o),
(446,104,o),
(362,104,cs)
);
}
);
width = 1091;
},
{
layerId = "1FDC7037-1F88-4969-8535-0F79C1EF19DB";
shapes = (
{
closed = 1;
nodes = (
(421,-5,o),
(495,25,o),
(551,74,c),
(551,0,l),
(1040,0,l),
(1040,14,l),
(574,14,l),
(574,325,l),
(1019,325,l),
(1019,341,l),
(574,341,l),
(574,645,l),
(1030,645,l),
(1030,660,l),
(551,660,l),
(551,586,l),
(495,635,o),
(421,665,o),
(332,665,cs),
(134,665,o),
(6,516,o),
(6,328,cs),
(6,142,o),
(135,-5,o),
(332,-5,cs)
);
},
{
closed = 1;
nodes = (
(149,12,o),
(28,148,o),
(28,328,cs),
(28,509,o),
(150,648,o),
(332,648,cs),
(441,648,o),
(512,621,o),
(551,545,c),
(551,117,l),
(512,41,o),
(441,12,o),
(332,12,cs)
);
}
);
width = 1091;
},
{
guides = (
{
pos = (0,-330);
},
{
pos = (0,-220);
},
{
pos = (0,-110);
},
{
},
{
pos = (0,110);
},
{
pos = (0,220);
},
{
pos = (0,330);
},
{
pos = (0,440);
},
{
pos = (0,550);
},
{
pos = (0,660);
},
{
pos = (0,770);
}
);
layerId = "3ED9E848-BE83-4CAC-8EFF-D71BD2B4F667";
shapes = (
{
closed = 1;
nodes = (
(149,60,o),
(208,23,o),
(279,5,cs),
(299,1,o),
(313,0,o),
(333,0,cs),
(404,0,ls),
(424,0,o),
(438,1,o),
(458,5,cs),
(472,9,o),
(486,13,o),
(499,17,cs),
(526,26,o),
(21,21,o),
(539,33,cs),
(539,33,ls),
(539,12,o),
(555,0,o),
(584,0,cs),
(1091,0,l),
(1095,0,ls),
(1097,0,o),
(1098,16,o),
(1098,45,cs),
(1098,94,ls),
(1098,123,o),
(1082,139,o),
(1053,139,cs),
(755,139,ls),
(726,139,o),
(710,152,o),
(710,175,cs),
(710,175,ls),
(710,204,o),
(694,220,o),
(665,220,cs),
(562,220,ls),
(538,220,o),
(523,210,o),
(507,191,cs),
(474,149,o),
(425,124,o),
(369,124,cs),
(312,124,o),
(265,148,o),
(234,189,cs),
(219,210,o),
(203,220,o),
(179,220,cs),
(98,220,ls),
(64,220,o),
(47,198,o),
(64,167,cs),
(75,147,o),
(89,127,o),
(104,110,cs)
);
},
{
closed = 1;
nodes = (
(306,0,l),
(326,-3,o),
(347,-5,o),
(369,-5,cs),
(390,-5,o),
(411,-3,o),
(431,0,c)
);
},
{
closed = 1;
nodes = (
(539,0,l),
(1091,0,l)
);
},
{
closed = 1;
nodes = (
(431,660,l),
(411,663,o),
(390,665,o),
(369,665,cs),
(347,665,o),
(326,663,o),
(306,660,c)
);
},
{
closed = 1;
nodes = (
(22,330,l),
(22,329,o),
(22,329,o),
(22,328,cs),
(22,304,o),
(24,281,o),
(29,258,cs),
(35,232,o),
(53,220,o),
(79,220,cs),
(162,220,ls),
(194,220,o),
(205,238,o),
(199,270,cs),
(195,288,o),
(193,307,o),
(193,328,cs),
(193,329,o),
(193,329,o),
(193,330,c)
);
},
{
closed = 1;
nodes = (
(584,330,ls),
(555,330,o),
(539,314,o),
(539,285,cs),
(539,247,l),
(537,243,o),
(535,238,o),
(533,234,cs),
(529,225,o),
(551,220,o),
(585,220,cs),
(665,220,ls),
(694,220,o),
(710,236,o),
(710,265,cs),
(710,270,l),
(1034,270,ls),
(1063,270,o),
(1079,281,o),
(1079,300,cs),
(1079,300,ls),
(1079,319,o),
(1063,330,o),
(1034,330,cs)
);
},
{
closed = 1;
nodes = (
(80,440,ls),
(54,440,o),
(36,428,o),
(30,402,cs),
(28,394,o),
(27,385,o),
(25,377,cs),
(21,347,o),
(39,330,o),
(69,330,cs),
(150,330,ls),
(178,330,o),
(192,345,o),
(196,373,cs),
(197,379,o),
(198,385,o),
(199,390,cs),
(206,422,o),
(195,440,o),
(163,440,cs)
);
},
{
closed = 1;
nodes = (
(583,440,ls),
(549,440,o),
(539,409,o),
(539,409,cs),
(539,409,o),
(539,409,o),
(539,409,c),
(539,375,ls),
(539,346,o),
(555,330,o),
(584,330,cs),
(1034,330,ls),
(1063,330,o),
(1079,344,o),
(1079,369,cs),
(1079,369,ls),
(1079,394,o),
(1063,407,o),
(1034,407,cs),
(710,407,l),
(710,407,ls),
(710,428,o),
(694,440,o),
(665,440,cs)
);
},
{
closed = 1;
nodes = (
(139,550,ls),
(116,550,o),
(98,543,o),
(84,524,cs),
(77,514,o),
(71,503,o),
(65,493,cs),
(48,462,o),
(65,440,o),
(99,440,cs),
(180,440,ls),
(204,440,o),
(220,450,o),
(235,471,cs),
(266,513,o),
(312,537,o),
(369,537,cs),
(424,537,o),
(472,511,o),
(506,469,cs),
(521,450,o),
(536,440,o),
(560,440,cs),
(665,440,ls),
(694,440,o),
(710,456,o),
(710,485,cs),
(710,521,l),
(1043,521,ls),
(1072,521,o),
(1088,527,o),
(1088,536,cs),
(1088,536,ls),
(1088,545,o),
(1072,550,o),
(1043,550,cs)
);
},
{
closed = 1;
nodes = (
(333,660,ls),
(313,660,o),
(299,659,o),
(279,654,cs),
(239,644,o),
(201,628,o),
(169,606,cs),
(134,583,o),
(149,550,o),
(191,550,cs),
(1043,550,ls),
(1072,550,o),
(1088,566,o),
(1088,595,cs),
(1088,615,ls),
(1088,644,o),
(1072,660,o),
(1043,660,cs),
(584,660,ls),
(555,660,o),
(539,648,o),
(539,626,cs),
(539,626,l),
(514,638,o),
(487,648,o),
(458,655,cs),
(438,659,o),
(424,660,o),
(404,660,cs)
);
}
);
width = 1091;
}
);
note = OE;
unicode = 338;
},
{
glyphname = P;
kernLeft = B;
kernRight = P;
lastChange = "2024-07-19 21:15:47 +0000";
layers = (
{
layerId = "F5467FAD-1970-4982-B3D3-939C01050498";
shapes = (
{
closed = 1;
nodes = (
(87,0,l),
(87,321,l),
(218,321,ls),
(322,321,o),
(414,361,o),
(414,490,cs),
(414,618,o),
(316,660,o),
(223,660,cs),
(47,660,l),
(47,0,l)
);
},
{
closed = 1;
nodes = (
(87,631,l),
(221,631,ls),
(308,631,o),
(374,586,o),
(374,490,cs),
(374,396,o),
(311,347,o),
(218,347,cs),
(87,347,l)
);
}
);
width = 452;
},
{
layerId = "6DD95C5A-998B-41AB-BDFB-84A73C209871";
shapes = (
{
closed = 1;
nodes = (
(192,0,l),
(192,280,l),
(280,280,ls),
(389,280,o),
(508,329,o),
(508,471,cs),
(508,610,o),
(384,660,o),
(286,660,cs),
(47,660,l),
(47,0,l)
);
},
{
closed = 1;
nodes = (
(192,552,l),
(283,552,ls),
(334,552,o),
(372,531,o),
(372,471,cs),
(372,409,o),
(334,386,o),
(280,386,cs),
(192,386,l)
);
}
);
width = 546;
},
{
layerId = "1FDC7037-1F88-4969-8535-0F79C1EF19DB";
shapes = (
{
closed = 1;
nodes = (
(70,0,l),
(70,327,l),
(207,327,ls),
(311,327,o),
(399,366,o),
(399,493,cs),
(399,619,o),
(305,660,o),
(213,660,cs),
(47,660,l),
(47,0,l)
);
},
{
closed = 1;
nodes = (
(70,643,l),
(210,643,ls),
(305,643,o),
(374,594,o),
(374,493,cs),
(374,394,o),
(307,340,o),
(207,340,cs),
(70,340,l)
);
}
);
width = 437;
},
{
guides = (
{
pos = (0,-330);
},
{
pos = (0,-220);
},
{
pos = (0,-110);
},
{
},
{
pos = (0,110);
},
{
pos = (0,220);
},
{
pos = (0,330);
},
{
pos = (0,440);
},
{
pos = (0,550);
},
{
pos = (0,660);
},
{
pos = (0,770);
}
);
layerId = "3ED9E848-BE83-4CAC-8EFF-D71BD2B4F667";
shapes = (
{
closed = 1;
nodes = (
(442,550,ls),
(480,550,o),
(499,580,o),
(469,605,cs),
(422,644,o),
(357,660,o),
(301,660,cs),
(92,660,ls),
(63,660,o),
(47,644,o),
(47,615,cs),
(47,550,l)
);
},
{
closed = 1;
nodes = (
(92,110,ls),
(63,110,o),
(47,94,o),
(47,65,cs),
(47,45,ls),
(47,16,o),
(63,0,o),
(92,0,cs),
(174,0,ls),
(203,0,o),
(219,16,o),
(219,45,cs),
(219,65,ls),
(219,94,o),
(203,110,o),
(174,110,cs)
);
},
{
closed = 1;
nodes = (
(92,220,ls),
(63,220,o),
(47,204,o),
(47,175,cs),
(47,155,ls),
(47,126,o),
(63,110,o),
(92,110,cs),
(174,110,ls),
(203,110,o),
(219,126,o),
(219,155,cs),
(219,175,ls),
(219,204,o),
(203,220,o),
(174,220,cs)
);
},
{
closed = 1;
nodes = (
(92,330,ls),
(63,330,o),
(47,314,o),
(47,285,cs),
(47,265,ls),
(47,236,o),
(63,220,o),
(92,220,cs),
(174,220,ls),
(203,220,o),
(219,236,o),
(219,265,cs),
(219,270,l),
(295,270,ls),
(327,270,o),
(360,274,o),
(391,284,cs),
(426,294,o),
(401,330,o),
(356,330,cs)
);
},
{
closed = 1;
nodes = (
(404,440,ls),
(380,440,o),
(370,427,o),
(351,410,cs),
(337,399,o),
(317,395,o),
(295,395,cs),
(219,395,l),
(219,395,ls),
(219,424,o),
(203,440,o),
(174,440,cs),
(92,440,ls),
(63,440,o),
(47,424,o),
(47,395,cs),
(47,375,ls),
(47,346,o),
(63,330,o),
(92,330,cs),
(443,330,ls),
(466,330,o),
(483,335,o),
(497,354,cs),
(505,365,o),
(512,377,o),
(518,390,cs),
(530,420,o),
(511,440,o),
(479,440,cs)
);
},
{
closed = 1;
nodes = (
(92,550,ls),
(63,550,o),
(47,534,o),
(47,505,cs),
(47,485,ls),
(47,456,o),
(63,440,o),
(92,440,cs),
(174,440,ls),
(203,440,o),
(219,456,o),
(219,485,cs),
(219,532,l),
(298,532,ls),
(340,532,o),
(372,518,o),
(372,466,cs),
(372,461,o),
(372,457,o),
(371,453,cs),
(370,445,o),
(387,440,o),
(417,440,cs),
(487,440,ls),
(515,440,o),
(532,466,o),
(532,466,cs),
(532,466,o),
(532,466,o),
(532,466,cs),
(532,484,o),
(530,500,o),
(526,515,cs),
(520,540,o),
(500,550,o),
(475,550,cs)
);
}
);
width = 569;
}
);
note = P;
unicode = 80;
},
{
glyphname = Thorn;
lastChange = "2024-07-19 22:40:42 +0000";
layers = (
{
layerId = "F5467FAD-1970-4982-B3D3-939C01050498";
shapes = (
{
closed = 1;
nodes = (
(128,0,l),
(128,208,l),
(273,208,ls),
(375,208,o),
(470,253,o),
(470,382,cs),
(470,509,o),
(371,552,o),
(278,552,cs),
(128,552,l),
(128,660,l),
(88,660,l),
(88,0,l)
);
},
{
closed = 1;
nodes = (
(128,522,l),
(275,522,ls),
(363,522,o),
(429,478,o),
(429,382,cs),
(429,289,o),
(366,239,o),
(273,239,cs),
(128,239,l)
);
}
);
width = 501;
},
{
layerId = "6DD95C5A-998B-41AB-BDFB-84A73C209871";
shapes = (
{
closed = 1;
nodes = (
(175,0,l),
(175,182,l),
(272,182,ls),
(380,182,o),
(499,235,o),
(499,376,cs),
(499,515,o),
(374,566,o),
(277,566,cs),
(175,566,l),
(175,660,l),
(30,660,l),
(30,0,l)
);
},
{
closed = 1;
nodes = (
(175,457,l),
(274,457,ls),
(324,457,o),
(354,437,o),
(354,376,cs),
(354,315,o),
(324,291,o),
(272,291,cs),
(175,291,l)
);
}
);
width = 501;
},
{
layerId = "1FDC7037-1F88-4969-8535-0F79C1EF19DB";
shapes = (
{
closed = 1;
nodes = (
(121,0,l),
(121,212,l),
(273,212,ls),
(374,212,o),
(465,256,o),
(465,383,cs),
(465,508,o),
(370,550,o),
(278,550,cs),
(121,550,l),
(121,660,l),
(97,660,l),
(97,0,l)
);
},
{
closed = 1;
nodes = (
(121,533,l),
(275,533,ls),
(370,533,o),
(441,485,o),
(441,383,cs),
(441,285,o),
(372,230,o),
(273,230,cs),
(121,230,l)
);
}
);
width = 501;
},
{
guides = (
{
pos = (0,-330);
},
{
pos = (0,-220);
},
{
pos = (0,-110);
},
{
},
{
pos = (0,110);
},
{
pos = (0,220);
},
{
pos = (0,330);
},
{
pos = (0,440);
},
{
pos = (0,550);
},
{
pos = (0,660);
},
{
pos = (0,770);
}
);
layerId = "3ED9E848-BE83-4CAC-8EFF-D71BD2B4F667";
shapes = (
{
closed = 1;
nodes = (
(61,660,ls),
(32,660,o),
(16,644,o),
(16,615,cs),
(16,595,ls),
(16,566,o),
(32,550,o),
(61,550,cs),
(199,550,ls),
(208,550,o),
(277,570,o),
(277,570,cs),
(277,570,o),
(277,570,o),
(277,570,cs),
(232,570,ls),
(203,570,o),
(187,586,o),
(187,615,cs),
(187,660,l)
);
},
{
closed = 1;
nodes = (
(61,110,ls),
(32,110,o),
(16,94,o),
(16,65,cs),
(16,45,ls),
(16,16,o),
(32,0,o),
(61,0,cs),
(142,0,ls),
(171,0,o),
(187,16,o),
(187,45,cs),
(187,65,ls),
(187,94,o),
(171,110,o),
(142,110,cs)
);
},
{
closed = 1;
nodes = (
(61,220,ls),
(32,220,o),
(16,204,o),
(16,175,cs),
(16,155,ls),
(16,126,o),
(32,110,o),
(61,110,cs),
(142,110,ls),
(171,110,o),
(187,126,o),
(187,155,cs),
(187,175,l),
(272,175,ls),
(299,175,o),
(327,179,o),
(354,186,cs),
(374,191,o),
(307,220,o),
(266,220,cs)
);
},
{
closed = 1;
nodes = (
(61,440,ls),
(32,440,o),
(16,424,o),
(16,395,cs),
(16,375,ls),
(16,346,o),
(32,330,o),
(61,330,cs),
(142,330,ls),
(171,330,o),
(187,346,o),
(187,375,cs),
(187,395,ls),
(187,424,o),
(171,440,o),
(142,440,cs)
);
},
{
closed = 1;
nodes = (
(290,440,l),
(320,436,o),
(335,419,o),
(335,375,cs),
(335,355,o),
(332,341,o),
(326,330,cs),
(317,312,o),
(298,305,o),
(272,305,cs),
(187,305,l),
(187,305,ls),
(187,321,o),
(171,330,o),
(142,330,cs),
(61,330,ls),
(32,330,o),
(16,314,o),
(16,285,cs),
(16,265,ls),
(16,236,o),
(32,220,o),
(61,220,cs),
(398,220,ls),
(420,220,o),
(437,224,o),
(453,240,cs),
(485,271,o),
(506,316,o),
(506,375,cs),
(506,387,o),
(505,398,o),
(503,408,cs),
(500,430,o),
(481,440,o),
(455,440,cs)
);
},
{
closed = 1;
nodes = (
(61,550,ls),
(32,550,o),
(16,534,o),
(16,505,cs),
(16,485,ls),
(16,456,o),
(32,440,o),
(61,440,cs),
(187,440,l),
(187,441,l),
(274,441,ls),
(280,441,o),
(285,441,o),
(290,440,c),
(432,440,ls),
(468,440,o),
(487,466,o),
(463,494,cs),
(448,512,o),
(429,527,o),
(408,538,cs),
(390,548,o),
(374,550,o),
(353,550,cs)
);
}
);
width = 501;
}
);
note = Thorn;
unicode = 222;
},
{
glyphname = Q;
kernLeft = C;
kernRight = Q;
lastChange = "2024-07-19 12:08:54 +0000";
layers = (
{
layerId = "F5467FAD-1970-4982-B3D3-939C01050498";
shapes = (
{
closed = 1;
nodes = (
(429,-5,o),
(500,23,o),
(554,69,c),
(627,0,l),
(673,0,l),
(575,90,l),
(633,150,o),
(666,234,o),
(666,328,cs),
(666,515,o),
(536,665,o),
(348,665,cs),
(159,665,o),
(29,515,o),
(29,328,cs),
(29,143,o),
(160,-5,o),
(348,-5,cs)
);
},
{
closed = 1;
nodes = (
(185,25,o),
(69,155,o),
(69,328,cs),
(69,503,o),
(186,636,o),
(348,636,cs),
(511,636,o),
(626,503,o),
(626,328,cs),
(626,242,o),
(598,168,o),
(550,113,c),
(405,247,l),
(362,247,l),
(529,91,l),
(481,50,o),
(419,25,o),
(348,25,cs)
);
}
);
width = 728;
},
{
layerId = "6DD95C5A-998B-41AB-BDFB-84A73C209871";
shapes = (
{
closed = 1;
nodes = (
(447,-5,o),
(505,12,o),
(554,41,c),
(600,0,l),
(782,0,l),
(647,124,l),
(690,181,o),
(715,253,o),
(715,328,cs),
(715,507,o),
(579,665,o),
(381,665,cs),
(183,665,o),
(47,507,o),
(47,328,cs),
(47,151,o),
(184,-5,o),
(381,-5,cs)
);
},
{
closed = 1;
nodes = (
(273,104,o),
(192,194,o),
(192,328,cs),
(192,464,o),
(273,556,o),
(381,556,cs),
(489,556,o),
(570,464,o),
(570,328,cs),
(570,286,o),
(561,248,o),
(547,216,c),
(456,299,l),
(279,299,l),
(466,124,l),
(440,111,o),
(412,104,o),
(381,104,cs)
);
}
);
width = 788;
},
{
layerId = "1FDC7037-1F88-4969-8535-0F79C1EF19DB";
shapes = (
{
closed = 1;
nodes = (
(426,-5,o),
(499,25,o),
(554,74,c),
(632,0,l),
(656,0,l),
(564,84,l),
(623,145,o),
(658,231,o),
(658,328,cs),
(658,516,o),
(529,665,o),
(342,665,cs),
(156,665,o),
(26,516,o),
(26,328,cs),
(26,142,o),
(157,-5,o),
(342,-5,cs)
);
},
{
closed = 1;
nodes = (
(171,12,o),
(49,148,o),
(49,328,cs),
(49,509,o),
(172,648,o),
(342,648,cs),
(515,648,o),
(636,509,o),
(636,328,cs),
(636,236,o),
(604,155,o),
(551,97,c),
(396,239,l),
(375,239,l),
(538,87,l),
(488,40,o),
(420,12,o),
(342,12,cs)
);
}
);
width = 719;
},
{
guides = (
{
pos = (0,-330);
},
{
pos = (0,-220);
},
{
pos = (0,-110);
},
{
},
{
pos = (0,110);
},
{
pos = (0,220);
},
{
pos = (0,330);
},
{
pos = (0,440);
},
{
pos = (0,550);
},
{
pos = (0,660);
},
{
pos = (0,770);
}
);
layerId = "3ED9E848-BE83-4CAC-8EFF-D71BD2B4F667";
shapes = (
{
closed = 1;
nodes = (
(449,660,l),
(429,663,o),
(410,665,o),
(389,665,cs),
(368,665,o),
(349,663,o),
(329,660,c)
);
},
{
closed = 1;
nodes = (
(452,0,ls),
(500,0,o),
(389,-5,o),
(389,-5,cs),
(389,-5,o),
(389,-5,o),
(389,-5,cs),
(411,-5,o),
(432,-3,o),
(452,0,c)
);
},
{
closed = 1;
nodes = (
(593,0,l),
(803,0,l)
);
},
{
closed = 1;
nodes = (
(218,110,ls),
(177,110,o),
(162,77,o),
(196,54,cs),
(227,32,o),
(263,16,o),
(302,6,cs),
(322,1,o),
(336,0,o),
(356,0,cs),
(425,0,ls),
(445,0,o),
(459,1,o),
(478,5,cs),
(505,12,o),
(531,22,o),
(554,35,c),
(569,21,ls),
(586,6,o),
(603,0,o),
(625,0,cs),
(803,0,l),
(805,0,ls),
(806,0,o),
(779,27,o),
(749,55,cs),
(714,88,ls),
(698,103,o),
(681,110,o),
(658,110,cs)
);
},
{
closed = 1;
nodes = (
(438,220,ls),
(397,220,o),
(386,193,o),
(416,165,cs),
(451,132,l),
(430,126,o),
(410,124,o),
(389,124,cs),
(338,124,o),
(293,148,o),
(263,189,cs),
(249,210,o),
(234,220,o),
(209,220,cs),
(128,220,ls),
(94,220,o),
(77,198,o),
(93,167,cs),
(99,157,o),
(105,147,o),
(112,137,cs),
(126,117,o),
(144,110,o),
(167,110,cs),
(608,110,ls),
(649,110,o),
(677,122,o),
(665,133,cs),
(665,133,l),
(674,146,o),
(683,160,o),
(690,175,cs),
(703,201,o),
(685,220,o),
(651,220,cs)
);
},
{
closed = 1;
nodes = (
(52,330,l),
(52,329,o),
(52,329,o),
(52,328,cs),
(52,304,o),
(54,281,o),
(59,258,cs),
(65,232,o),
(83,220,o),
(109,220,cs),
(192,220,ls),
(224,220,o),
(235,238,o),
(229,270,cs),
(225,288,o),
(223,307,o),
(223,328,cs),
(223,329,o),
(223,329,o),
(223,330,c)
);
},
{
closed = 1;
nodes = (
(555,330,l),
(555,329,o),
(555,329,o),
(555,328,cs),
(555,296,o),
(552,268,o),
(546,241,c),
(494,290,ls),
(478,305,o),
(461,312,o),
(438,312,cs),
(339,312,ls),
(298,312,o),
(287,285,o),
(317,257,cs),
(333,242,ls),
(349,227,o),
(366,220,o),
(389,220,cs),
(670,220,ls),
(696,220,o),
(714,232,o),
(720,258,cs),
(725,281,o),
(727,304,o),
(727,328,cs),
(727,329,o),
(727,329,o),
(727,330,c)
);
},
{
closed = 1;
nodes = (
(110,440,ls),
(84,440,o),
(66,428,o),
(60,402,cs),
(58,394,o),
(57,385,o),
(55,377,cs),
(51,347,o),
(69,330,o),
(99,330,cs),
(180,330,ls),
(208,330,o),
(222,345,o),
(226,373,cs),
(227,379,o),
(228,385,o),
(229,390,cs),
(236,422,o),
(225,440,o),
(193,440,cs)
);
},
{
closed = 1;
nodes = (
(585,440,ls),
(553,440,o),
(542,422,o),
(549,390,cs),
(550,384,o),
(551,379,o),
(552,373,cs),
(556,345,o),
(570,330,o),
(598,330,cs),
(680,330,ls),
(710,330,o),
(728,347,o),
(724,377,cs),
(722,385,o),
(721,394,o),
(719,402,cs),
(713,428,o),
(695,440,o),
(669,440,cs)
);
},
{
closed = 1;
nodes = (
(168,550,ls),
(145,550,o),
(127,543,o),
(113,523,cs),
(107,514,o),
(100,503,o),
(94,493,cs),
(78,462,o),
(95,440,o),
(129,440,cs),
(210,440,ls),
(235,440,o),
(249,450,o),
(264,471,cs),
(294,513,o),
(338,537,o),
(389,537,cs),
(440,537,o),
(484,513,o),
(514,471,cs),
(529,450,o),
(543,440,o),
(568,440,cs),
(650,440,ls),
(684,440,o),
(701,462,o),
(684,493,cs),
(679,503,o),
(672,513,o),
(666,523,cs),
(652,543,o),
(634,550,o),
(611,550,cs)
);
},
{
closed = 1;
nodes = (
(356,660,ls),
(336,660,o),
(322,659,o),
(302,654,cs),
(264,644,o),
(228,628,o),
(197,606,cs),
(163,583,o),
(178,550,o),
(219,550,cs),
(560,550,ls),
(601,550,o),
(616,583,o),
(582,606,cs),
(551,628,o),
(515,644,o),
(476,654,cs),
(456,659,o),
(442,660,o),
(422,660,cs)
);
}
);
width = 803;
}
);
note = Q;
unicode = 81;
},
{
glyphname = R;
kernLeft = B;
kernRight = R;
lastChange = "2024-07-19 21:14:47 +0000";
layers = (
{
anchors = (
{
name = bottom;
pos = (262,0);
},
{
name = top;
pos = (234,660);
}
);
layerId = "F5467FAD-1970-4982-B3D3-939C01050498";
shapes = (
{
closed = 1;
nodes = (
(93,0,l),
(93,367,l),
(220,368,ls),
(226,368,o),
(232,368,o),
(239,369,c),
(481,0,l),
(528,0,l),
(284,372,l),
(357,386,o),
(410,426,o),
(410,521,cs),
(410,627,o),
(330,660,o),
(227,660,cs),
(53,660,l),
(53,0,l)
);
},
{
closed = 1;
nodes = (
(93,631,l),
(227,631,l),
(318,631,o),
(371,585,o),
(371,511,cs),
(371,438,o),
(320,389,o),
(223,389,cs),
(93,389,l)
);
}
);
width = 538;
},
{
anchors = (
{
name = bottom;
pos = (340,0);
},
{
name = top;
pos = (290,660);
}
);
layerId = "6DD95C5A-998B-41AB-BDFB-84A73C209871";
shapes = (
{
closed = 1;
nodes = (
(192,0,l),
(192,298,l),
(273,298,ls),
(276,298,o),
(279,298,o),
(282,298,c),
(471,0,l),
(634,0,l),
(423,333,l),
(473,361,o),
(508,408,o),
(508,479,cs),
(508,610,o),
(389,660,o),
(273,660,cs),
(47,660,l),
(47,0,l)
);
},
{
closed = 1;
nodes = (
(192,552,l),
(273,552,ls),
(332,552,o),
(363,532,o),
(363,479,cs),
(363,426,o),
(332,406,o),
(273,406,cs),
(192,406,l)
);
}
);
width = 643;
},
{
anchors = (
{
name = bottom;
pos = (250,0);
},
{
name = top;
pos = (224,660);
}
);
layerId = "1FDC7037-1F88-4969-8535-0F79C1EF19DB";
shapes = (
{
closed = 1;
nodes = (
(77,0,l),
(77,378,l),
(211,379,ls),
(219,379,o),
(224,379,o),
(231,379,c),
(483,0,l),
(511,0,l),
(261,379,l),
(339,389,o),
(394,429,o),
(394,528,cs),
(394,630,o),
(321,660,o),
(220,660,cs),
(54,660,l),
(54,0,l)
);
},
{
closed = 1;
nodes = (
(77,643,l),
(220,643,l),
(316,643,o),
(372,593,o),
(372,516,cs),
(372,440,o),
(318,386,o),
(216,386,cs),
(77,386,l)
);
}
);
width = 521;
},
{
anchors = (
{
name = bottom;
pos = (359,0);
},
{
name = top;
pos = (305,660);
}
);
guides = (
{
pos = (0,-330);
},
{
pos = (0,-220);
},
{
pos = (0,-110);
},
{
},
{
pos = (0,110);
},
{
pos = (0,220);
},
{
pos = (0,330);
},
{
pos = (0,440);
},
{
pos = (0,550);
},
{
pos = (0,660);
},
{
pos = (0,770);
}
);
layerId = "3ED9E848-BE83-4CAC-8EFF-D71BD2B4F667";
shapes = (
{
closed = 1;
nodes = (
(443,550,ls),
(481,550,o),
(500,580,o),
(469,605,cs),
(421,643,o),
(351,660,o),
(285,660,cs),
(91,660,ls),
(62,660,o),
(46,644,o),
(46,615,cs),
(46,550,l)
);
},
{
closed = 1;
nodes = (
(91,110,ls),
(62,110,o),
(46,94,o),
(46,65,cs),
(46,45,ls),
(46,16,o),
(62,0,o),
(91,0,cs),
(172,0,ls),
(201,0,o),
(217,16,o),
(217,45,cs),
(217,65,ls),
(217,94,o),
(201,110,o),
(172,110,cs)
);
},
{
closed = 1;
nodes = (
(463,110,ls),
(427,110,o),
(414,87,o),
(433,56,cs),
(449,30,ls),
(462,10,o),
(479,0,o),
(503,0,cs),
(596,0,ls),
(632,0,o),
(645,23,o),
(626,54,cs),
(610,80,ls),
(597,100,o),
(580,110,o),
(556,110,cs)
);
},
{
closed = 1;
nodes = (
(91,220,ls),
(62,220,o),
(46,204,o),
(46,175,cs),
(46,155,ls),
(46,126,o),
(62,110,o),
(91,110,cs),
(172,110,ls),
(201,110,o),
(217,126,o),
(217,155,cs),
(217,175,ls),
(217,204,o),
(201,220,o),
(172,220,cs)
);
},
{
closed = 1;
nodes = (
(394,220,ls),
(358,220,o),
(345,197,o),
(364,166,cs),
(380,140,ls),
(393,120,o),
(410,110,o),
(434,110,cs),
(527,110,ls),
(563,110,o),
(576,133,o),
(557,164,cs),
(541,190,ls),
(528,210,o),
(511,220,o),
(487,220,cs)
);
},
{
closed = 1;
nodes = (
(91,330,ls),
(62,330,o),
(46,314,o),
(46,285,cs),
(46,265,ls),
(46,236,o),
(62,220,o),
(91,220,cs),
(172,220,ls),
(201,220,o),
(217,236,o),
(217,265,cs),
(217,281,l),
(287,281,ls),
(289,281,o),
(290,281,o),
(292,281,c),
(311,250,ls),
(324,229,o),
(341,220,o),
(365,220,cs),
(458,220,ls),
(494,220,o),
(507,243,o),
(488,274,cs),
(457,323,l),
(459,324,o),
(460,325,o),
(462,327,cs),
(464,328,o),
(418,330,o),
(376,330,cs)
);
},
{
closed = 1;
nodes = (
(388,440,ls),
(365,440,o),
(354,427,o),
(332,418,cs),
(321,413,o),
(305,411,o),
(286,411,cs),
(217,411,l),
(217,411,ls),
(217,429,o),
(201,440,o),
(172,440,cs),
(91,440,ls),
(62,440,o),
(46,424,o),
(46,395,cs),
(46,375,ls),
(46,346,o),
(62,330,o),
(91,330,cs),
(434,330,ls),
(456,330,o),
(474,335,o),
(489,352,cs),
(499,363,o),
(508,375,o),
(515,389,cs),
(530,419,o),
(509,440,o),
(477,440,cs)
);
},
{
closed = 1;
nodes = (
(91,550,ls),
(62,550,o),
(46,534,o),
(46,505,cs),
(46,485,ls),
(46,456,o),
(62,440,o),
(91,440,cs),
(172,440,ls),
(201,440,o),
(217,456,o),
(217,485,cs),
(217,532,l),
(285,532,l),
(336,532,o),
(361,519,o),
(361,472,cs),
(361,466,o),
(361,461,o),
(360,456,cs),
(358,445,o),
(374,440,o),
(405,440,cs),
(488,440,ls),
(516,440,o),
(533,469,o),
(533,469,cs),
(533,469,o),
(533,469,o),
(533,469,cs),
(533,485,o),
(531,500,o),
(528,514,cs),
(522,539,o),
(503,550,o),
(477,550,cs)
);
}
);
width = 669;
}
);
note = R;
unicode = 82;
},
{
glyphname = S;
kernLeft = S;
kernRight = S;
lastChange = "2024-07-19 12:08:54 +0000";
layers = (
{
anchors = (
{
name = bottom;
pos = (288,0);
},
{
name = top;
pos = (289,660);
}
);
layerId = "F5467FAD-1970-4982-B3D3-939C01050498";
shapes = (
{
closed = 1;
nodes = (
(449,-7,o),
(518,69,o),
(518,170,cs),
(518,284,o),
(426,313,o),
(286,360,cs),
(150,405,o),
(124,445,o),
(124,513,cs),
(124,587,o),
(172,644,o),
(282,644,cs),
(356,644,o),
(412,614,o),
(431,559,c),
(471,570,l),
(444,635,o),
(371,668,o),
(282,668,cs),
(146,668,o),
(82,600,o),
(82,513,cs),
(82,425,o),
(145,377,o),
(275,335,cs),
(425,286,o),
(474,264,o),
(474,170,cs),
(474,80,o),
(416,19,o),
(287,19,cs),
(159,19,o),
(94,78,o),
(65,162,c),
(28,143,l),
(69,54,o),
(146,-7,o),
(287,-7,cs)
);
}
);
width = 546;
},
{
anchors = (
{
name = bottom;
pos = (303,0);
},
{
name = top;
pos = (304,660);
}
);
layerId = "6DD95C5A-998B-41AB-BDFB-84A73C209871";
shapes = (
{
closed = 1;
nodes = (
(467,-8,o),
(553,75,o),
(553,198,cs),
(553,323,o),
(400,369,o),
(319,399,cs),
(243,427,o),
(208,449,o),
(208,491,cs),
(208,536,o),
(247,565,o),
(298,565,cs),
(359,565,o),
(387,538,o),
(393,479,c),
(526,513,l),
(516,612,o),
(409,669,o),
(298,669,cs),
(168,669,o),
(67,604,o),
(67,491,cs),
(67,387,o),
(144,342,o),
(276,297,cs),
(356,270,o),
(412,250,o),
(412,189,cs),
(412,136,o),
(371,105,o),
(303,105,cs),
(209,105,o),
(162,152,o),
(129,243,c),
(11,184,l),
(45,79,o),
(136,-8,o),
(303,-8,cs)
);
}
);
width = 577;
},
{
anchors = (
{
name = bottom;
pos = (285,0);
},
{
name = top;
pos = (286,660);
}
);
layerId = "1FDC7037-1F88-4969-8535-0F79C1EF19DB";
shapes = (
{
closed = 1;
nodes = (
(446,-7,o),
(512,68,o),
(512,165,cs),
(512,277,o),
(430,305,o),
(280,354,cs),
(135,402,o),
(110,444,o),
(110,517,cs),
(110,596,o),
(159,656,o),
(279,656,cs),
(356,656,o),
(416,626,o),
(437,572,c),
(462,579,l),
(433,638,o),
(364,668,o),
(279,668,cs),
(142,668,o),
(85,599,o),
(85,517,cs),
(85,432,o),
(145,383,o),
(275,340,cs),
(437,289,o),
(485,266,o),
(485,167,cs),
(485,72,o),
(423,5,o),
(284,5,cs),
(152,5,o),
(83,67,o),
(55,149,c),
(31,137,l),
(73,50,o),
(148,-7,o),
(284,-7,cs)
);
}
);
width = 541;
},
{
anchors = (
{
name = bottom;
pos = (306,0);
},
{
name = top;
pos = (307,660);
}
);
guides = (
{
pos = (0,-330);
},
{
pos = (0,-220);
},
{
pos = (0,-110);
},
{
},
{
pos = (0,110);
},
{
pos = (0,220);
},
{
pos = (0,330);
},
{
pos = (0,440);
},
{
pos = (0,550);
},
{
pos = (0,660);
},
{
pos = (0,770);
}
);
layerId = "3ED9E848-BE83-4CAC-8EFF-D71BD2B4F667";
shapes = (
{
closed = 1;
nodes = (
(112,220,ls),
(142,220,o),
(154,241,o),
(154,241,cs),
(154,241,o),
(154,241,o),
(154,241,cs),
(148,255,o),
(130,256,o),
(103,242,cs),
(103,242,ls),
(87,234,o),
(93,220,o),
(112,220,cs)
);
},
{
closed = 1;
nodes = (
(306,0,ls),
(331,0,o),
(306,-8,o),
(306,-8,cs),
(306,-8,o),
(306,-8,o),
(306,-8,cs),
(320,-8,o),
(334,-7,o),
(347,-6,cs),
(335,-7,o),
(282,0,o),
(306,0,cs)
);
},
{
closed = 1;
nodes = (
(127,110,ls),
(87,110,o),
(70,79,o),
(102,54,cs),
(129,34,o),
(160,18,o),
(196,7,cs),
(216,1,o),
(230,0,o),
(250,0,cs),
(361,0,ls),
(381,0,o),
(395,1,o),
(415,7,cs),
(450,18,o),
(479,34,o),
(501,55,cs),
(529,82,o),
(510,110,o),
(473,110,cs)
);
},
{
closed = 1;
nodes = (
(300,660,ls),
(286,660,o),
(302,669,o),
(302,669,cs),
(302,669,o),
(302,669,o),
(302,669,cs),
(288,669,o),
(275,668,o),
(262,667,cs),
(270,668,o),
(316,660,o),
(300,660,cs)
);
},
{
closed = 1;
nodes = (
(442,220,ls),
(411,220,o),
(397,193,o),
(397,193,cs),
(397,193,o),
(397,193,o),
(397,193,cs),
(397,149,o),
(359,125,o),
(306,125,cs),
(249,125,o),
(211,146,o),
(181,189,cs),
(167,210,o),
(152,220,o),
(127,220,cs),
(89,220,ls),
(68,220,o),
(53,217,o),
(34,207,cs),
(34,207,ls),
(17,198,o),
(11,180,o),
(23,154,cs),
(25,149,o),
(28,145,o),
(30,140,cs),
(41,118,o),
(59,110,o),
(83,110,cs),
(503,110,ls),
(529,110,o),
(547,121,o),
(554,146,cs),
(559,164,o),
(561,184,o),
(561,205,cs),
(561,208,o),
(561,210,o),
(561,213,cs),
(561,217,o),
(544,220,o),
(516,220,cs)
);
},
{
closed = 1;
nodes = (
(311,330,ls),
(267,330,o),
(276,288,o),
(276,288,cs),
(276,288,o),
(276,288,o),
(276,288,cs),
(312,275,o),
(347,263,o),
(370,246,cs),
(388,230,o),
(402,220,o),
(425,220,cs),
(507,220,ls),
(539,220,o),
(560,241,o),
(544,270,cs),
(536,285,o),
(526,298,o),
(514,310,cs),
(498,326,o),
(481,330,o),
(459,330,cs)
);
},
{
closed = 1;
nodes = (
(129,440,ls),
(94,440,o),
(74,415,o),
(96,387,cs),
(109,371,o),
(126,357,o),
(147,344,cs),
(165,333,o),
(181,330,o),
(202,330,cs),
(372,330,ls),
(417,330,o),
(428,368,o),
(386,385,cs),
(363,395,o),
(342,402,o),
(327,408,cs),
(311,414,o),
(297,420,o),
(285,426,cs),
(266,435,o),
(250,440,o),
(229,440,cs)
);
},
{
closed = 1;
nodes = (
(114,550,ls),
(88,550,o),
(68,539,o),
(65,512,cs),
(64,504,o),
(63,495,o),
(63,486,cs),
(63,478,o),
(63,470,o),
(64,463,cs),
(66,447,o),
(84,440,o),
(111,440,cs),
(194,440,ls),
(230,440,o),
(229,486,o),
(229,486,cs),
(229,486,o),
(229,486,o),
(229,486,cs),
(229,522,o),
(266,545,o),
(302,545,cs),
(343,545,o),
(365,533,o),
(376,504,cs),
(386,476,o),
(400,463,o),
(428,470,cs),
(498,488,ls),
(525,495,o),
(535,525,o),
(535,525,cs),
(535,525,o),
(535,525,o),
(535,525,cs),
(531,542,o),
(514,550,o),
(488,550,cs)
);
},
{
closed = 1;
nodes = (
(250,660,ls),
(230,660,o),
(215,659,o),
(195,652,cs),
(163,642,o),
(135,625,o),
(113,604,cs),
(86,578,o),
(105,550,o),
(142,550,cs),
(460,550,ls),
(497,550,o),
(516,578,o),
(489,604,cs),
(467,625,o),
(437,642,o),
(405,652,cs),
(385,659,o),
(370,660,o),
(350,660,cs)
);
}
);
width = 585;
}
);
note = S;
unicode = 83;
},
{
glyphname = Germandbls;
lastChange = "2024-07-19 12:15:09 +0000";
layers = (
{
layerId = "F5467FAD-1970-4982-B3D3-939C01050498";
shapes = (
{
closed = 1;
nodes = (
(466,-9,o),
(569,64,o),
(569,190,cs),
(569,335,o),
(474,398,o),
(358,398,cs),
(352,398,o),
(345,397,o),
(338,397,c),
(555,633,l),
(555,660,l),
(47,660,l),
(47,0,l),
(89,0,l),
(89,633,l),
(513,633,l),
(290,388,l),
(315,362,l),
(330,366,o),
(344,367,o),
(361,367,cs),
(457,367,o),
(530,301,o),
(530,190,cs),
(530,77,o),
(445,12,o),
(351,12,cs),
(256,12,o),
(187,56,o),
(174,154,c),
(134,154,l),
(150,42,o),
(236,-9,o),
(351,-9,cs)
);
}
);
width = 616;
},
{
layerId = "6DD95C5A-998B-41AB-BDFB-84A73C209871";
shapes = (
{
closed = 1;
nodes = (
(596,-9,o),
(717,75,o),
(717,207,cs),
(717,308,o),
(653,376,o),
(570,400,cs),
(562,403,o),
(554,404,o),
(547,405,c),
(705,568,l),
(705,660,l),
(47,660,l),
(47,0,l),
(190,0,l),
(190,558,l),
(521,558,l),
(356,381,l),
(417,307,l),
(452,318,o),
(460,321,o),
(480,321,cs),
(533,321,o),
(572,284,o),
(572,207,cs),
(572,129,o),
(525,92,o),
(471,92,cs),
(404,92,o),
(365,123,o),
(368,216,c),
(223,216,l),
(219,67,o),
(331,-9,o),
(471,-9,cs)
);
}
);
width = 764;
},
{
layerId = "1FDC7037-1F88-4969-8535-0F79C1EF19DB";
shapes = (
{
closed = 1;
nodes = (
(445,-9,o),
(545,62,o),
(545,188,cs),
(545,339,o),
(446,402,o),
(324,398,cs),
(318,397,o),
(311,396,o),
(304,396,c),
(532,643,l),
(532,660,l),
(47,660,l),
(47,0,l),
(73,0,l),
(73,645,l),
(512,645,l),
(279,389,l),
(299,371,l),
(310,373,o),
(325,374,o),
(342,374,cs),
(445,374,o),
(523,304,o),
(523,188,cs),
(523,69,o),
(432,-1,o),
(332,-1,cs),
(233,-1,o),
(158,45,o),
(142,143,c),
(120,143,l),
(139,39,o),
(221,-9,o),
(332,-9,cs)
);
}
);
width = 592;
},
{
guides = (
{
pos = (0,-330);
},
{
pos = (0,-220);
},
{
pos = (0,-110);
},
{
},
{
pos = (0,110);
},
{
pos = (0,220);
},
{
pos = (0,330);
},
{
pos = (0,440);
},
{
pos = (0,550);
},
{
pos = (0,660);
},
{
pos = (0,770);
}
);
layerId = "3ED9E848-BE83-4CAC-8EFF-D71BD2B4F667";
shapes = (
{
closed = 1;
nodes = (
(415,220,l),
(415,222,o),
(415,224,o),
(416,226,cs),
(416,229,o),
(399,231,o),
(369,231,cs),
(245,231,l),
(245,229,o),
(245,227,o),
(245,226,cs),
(245,222,o),
(261,220,o),
(290,220,cs)
);
},
{
closed = 1;
nodes = (
(338,110,ls),
(300,110,o),
(283,81,o),
(311,55,cs),
(340,28,o),
(378,10,o),
(420,0,c),
(47,0,l),
(171,0,ls),
(200,0,o),
(216,16,o),
(216,45,cs),
(216,65,ls),
(216,94,o),
(200,110,o),
(171,110,cs),
(92,110,ls),
(63,110,o),
(47,94,o),
(47,65,cs),
(47,45,ls),
(47,16,o),
(63,0,o),
(92,0,cs),
(420,0,l),
(445,-6,o),
(472,-9,o),
(500,-9,cs),
(524,-9,o),
(548,-6,o),
(571,0,cs),
(611,10,o),
(649,29,o),
(679,55,cs),
(709,80,o),
(692,110,o),
(653,110,cs)
);
},
{
closed = 1;
nodes = (
(92,220,ls),
(63,220,o),
(47,204,o),
(47,175,cs),
(47,155,ls),
(47,126,o),
(63,110,o),
(92,110,cs),
(171,110,ls),
(200,110,o),
(216,126,o),
(216,155,cs),
(216,175,ls),
(216,204,o),
(200,220,o),
(171,220,cs)
);
},
{
closed = 1;
nodes = (
(92,660,ls),
(63,660,o),
(47,644,o),
(47,615,cs),
(47,595,ls),
(47,566,o),
(63,550,o),
(92,550,cs),
(740,550,l),
(741,551,ls),
(741,551,o),
(742,562,o),
(742,585,cs),
(742,660,l)
);
},
{
closed = 1;
nodes = (
(583,220,l),
(583,217,o),
(583,214,o),
(583,211,cs),
(583,142,o),
(545,112,o),
(500,112,cs),
(454,112,o),
(425,128,o),
(417,175,cs),
(412,204,o),
(399,220,o),
(371,220,cs),
(291,220,ls),
(262,220,o),
(243,204,o),
(247,174,cs),
(249,164,o),
(251,154,o),
(254,144,cs),
(261,120,o),
(280,110,o),
(305,110,cs),
(689,110,ls),
(714,110,o),
(733,119,o),
(741,143,cs),
(749,164,o),
(753,187,o),
(753,211,cs),
(753,213,o),
(753,214,o),
(753,216,cs),
(753,218,o),
(737,220,o),
(708,220,cs)
);
},
{
closed = 1;
nodes = (
(92,330,ls),
(63,330,o),
(47,314,o),
(47,285,cs),
(47,265,ls),
(47,236,o),
(63,220,o),
(92,220,cs),
(171,220,ls),
(200,220,o),
(216,236,o),
(216,265,cs),
(216,285,ls),
(216,314,o),
(200,330,o),
(171,330,cs)
);
},
{
closed = 1;
nodes = (
(484,330,ls),
(446,330,o),
(419,321,o),
(427,312,cs),
(427,312,ls),
(437,300,o),
(454,298,o),
(479,305,cs),
(490,308,o),
(497,309,o),
(509,309,cs),
(539,309,o),
(564,295,o),
(576,261,cs),
(585,234,o),
(597,220,o),
(624,220,cs),
(704,220,ls),
(734,220,o),
(754,238,o),
(745,268,cs),
(742,279,o),
(738,290,o),
(733,300,cs),
(722,322,o),
(704,330,o),
(680,330,cs)
);
},
{
closed = 1;
nodes = (
(92,440,ls),
(63,440,o),
(47,424,o),
(47,395,cs),
(47,375,ls),
(47,346,o),
(63,330,o),
(92,330,cs),
(171,330,ls),
(200,330,o),
(216,346,o),
(216,375,cs),
(216,395,ls),
(216,424,o),
(200,440,o),
(171,440,cs)
);
},
{
closed = 1;
nodes = (
(462,440,ls),
(439,440,o),
(423,433,o),
(407,416,cs),
(401,410,ls),
(382,390,o),
(379,371,o),
(392,355,cs),
(392,355,ls),
(406,337,o),
(423,330,o),
(446,330,cs),
(630,330,ls),
(671,330,o),
(688,365,o),
(652,386,cs),
(642,391,o),
(632,396,o),
(621,400,cs),
(614,404,o),
(606,405,o),
(599,407,c),
(599,407,ls),
(616,424,o),
(594,440,o),
(554,440,cs)
);
},
{
closed = 1;
nodes = (
(92,550,ls),
(63,550,o),
(47,534,o),
(47,505,cs),
(47,485,ls),
(47,456,o),
(63,440,o),
(92,440,cs),
(171,440,ls),
(200,440,o),
(216,456,o),
(216,485,cs),
(216,540,l),
(522,540,l),
(480,495,ls),
(453,466,o),
(466,440,o),
(505,440,cs),
(599,440,ls),
(622,440,o),
(639,446,o),
(655,463,cs),
(686,495,ls),
(714,524,o),
(702,550,o),
(662,550,cs)
);
}
);
width = 801;
}
);
unicode = 7838;
},
{
glyphname = T;
kernLeft = T;
kernRight = T;
lastChange = "2024-07-19 12:15:12 +0000";
layers = (
{
anchors = (
{
name = bottom;
pos = (314,0);
},
{
name = top;
pos = (315,660);
}
);
layerId = "F5467FAD-1970-4982-B3D3-939C01050498";
shapes = (
{
closed = 1;
nodes = (
(335,0,l),
(335,632,l),
(610,632,l),
(610,660,l),
(19,660,l),
(19,632,l),
(295,632,l),
(295,0,l)
);
}
);
width = 629;
},
{
anchors = (
{
name = bottom;
pos = (339,0);
},
{
name = top;
pos = (339,660);
}
);
layerId = "6DD95C5A-998B-41AB-BDFB-84A73C209871";
shapes = (
{
closed = 1;
nodes = (
(411,0,l),
(411,543,l),
(653,543,l),
(653,660,l),
(24,660,l),
(24,543,l),
(266,543,l),
(266,0,l)
);
}
);
width = 676;
},
{
anchors = (
{
name = bottom;
pos = (310,0);
},
{
name = top;
pos = (311,660);
}
);
layerId = "1FDC7037-1F88-4969-8535-0F79C1EF19DB";
shapes = (
{
closed = 1;
nodes = (
(323,0,l),
(323,646,l),
(604,646,l),
(604,660,l),
(18,660,l),
(18,646,l),
(300,646,l),
(300,0,l)
);
}
);
width = 621;
},
{
anchors = (
{
name = bottom;
pos = (344,0);
},
{
name = top;
pos = (345,660);
}
);
guides = (
{
pos = (0,-330);
},
{
pos = (0,-220);
},
{
pos = (0,-110);
},
{
},
{
pos = (0,110);
},
{
pos = (0,220);
},
{
pos = (0,330);
},
{
pos = (0,440);
},
{
pos = (0,550);
},
{
pos = (0,660);
},
{
pos = (0,770);
}
);
layerId = "3ED9E848-BE83-4CAC-8EFF-D71BD2B4F667";
shapes = (
{
closed = 1;
nodes = (
(70,660,ls),
(41,660,o),
(25,644,o),
(25,615,cs),
(25,595,ls),
(25,566,o),
(41,550,o),
(70,550,cs),
(618,550,ls),
(647,550,o),
(663,566,o),
(663,595,cs),
(663,660,l)
);
},
{
closed = 1;
nodes = (
(303,110,ls),
(274,110,o),
(258,94,o),
(258,65,cs),
(258,45,ls),
(258,16,o),
(274,0,o),
(303,0,cs),
(385,0,ls),
(414,0,o),
(430,16,o),
(430,45,cs),
(430,65,ls),
(430,94,o),
(414,110,o),
(385,110,cs)
);
},
{
closed = 1;
nodes = (
(303,220,ls),
(274,220,o),
(258,204,o),
(258,175,cs),
(258,155,ls),
(258,126,o),
(274,110,o),
(303,110,cs),
(385,110,ls),
(414,110,o),
(430,126,o),
(430,155,cs),
(430,175,ls),
(430,204,o),
(414,220,o),
(385,220,cs)
);
},
{
closed = 1;
nodes = (
(303,330,ls),
(274,330,o),
(258,314,o),
(258,285,cs),
(258,265,ls),
(258,236,o),
(274,220,o),
(303,220,cs),
(385,220,ls),
(414,220,o),
(430,236,o),
(430,265,cs),
(430,285,ls),
(430,314,o),
(414,330,o),
(385,330,cs)
);
},
{
closed = 1;
nodes = (
(303,440,ls),
(274,440,o),
(258,424,o),
(258,395,cs),
(258,375,ls),
(258,346,o),
(274,330,o),
(303,330,cs),
(385,330,ls),
(414,330,o),
(430,346,o),
(430,375,cs),
(430,395,ls),
(430,424,o),
(414,440,o),
(385,440,cs)
);
},
{
closed = 1;
nodes = (
(70,550,ls),
(41,550,o),
(25,544,o),
(25,535,cs),
(25,535,ls),
(25,526,o),
(41,521,o),
(70,521,cs),
(258,521,l),
(258,485,ls),
(258,456,o),
(274,440,o),
(303,440,cs),
(385,440,ls),
(414,440,o),
(430,456,o),
(430,485,cs),
(430,521,l),
(618,521,ls),
(647,521,o),
(663,527,o),
(663,536,cs),
(663,536,ls),
(663,545,o),
(647,550,o),
(618,550,cs)
);
}
);
width = 687;
}
);
note = T;
unicode = 84;
},
{
glyphname = Tbar;
lastChange = "2024-07-19 12:08:54 +0000";
layers = (
{
layerId = "F5467FAD-1970-4982-B3D3-939C01050498";
shapes = (
{
closed = 1;
nodes = (
(524,410,l),
(105,410,l),
(105,371,l),
(524,371,l)
);
},
{
ref = T;
}
);
width = 629;
},
{
layerId = "6DD95C5A-998B-41AB-BDFB-84A73C209871";
shapes = (
{
closed = 1;
nodes = (
(592,398,l),
(80,398,l),
(80,280,l),
(592,280,l)
);
},
{
pos = (-2,0);
ref = T;
}
);
width = 676;
},
{
layerId = "1FDC7037-1F88-4969-8535-0F79C1EF19DB";
shapes = (
{
closed = 1;
nodes = (
(513,412,l),
(108,412,l),
(108,385,l),
(513,385,l)
);
},
{
ref = T;
}
);
width = 621;
},
{
guides = (
{
pos = (0,-330);
},
{
pos = (0,-220);
},
{
pos = (0,-110);
},
{
},
{
pos = (0,110);
},
{
pos = (0,220);
},
{
pos = (0,330);
},
{
pos = (0,440);
},
{
pos = (0,550);
},
{
pos = (0,660);
},
{
pos = (0,770);
}
);
layerId = "3ED9E848-BE83-4CAC-8EFF-D71BD2B4F667";
shapes = (
{
closed = 1;
nodes = (
(564,330,ls),
(593,330,o),
(609,342,o),
(609,362,cs),
(609,362,ls),
(609,383,o),
(593,395,o),
(564,395,cs),
(119,395,ls),
(90,395,o),
(74,383,o),
(74,362,cs),
(74,362,ls),
(74,341,o),
(90,330,o),
(119,330,cs)
);
},
{
pos = (-2,0);
ref = T;
},
{
closed = 1;
nodes = (
(119,330,ls),
(90,330,o),
(74,317,o),
(74,293,cs),
(74,293,ls),
(74,270,o),
(90,257,o),
(119,257,cs),
(564,257,ls),
(593,257,o),
(609,270,o),
(609,293,cs),
(609,293,ls),
(609,316,o),
(593,330,o),
(564,330,cs)
);
}
);
width = 687;
}
);
unicode = 358;
},
{
glyphname = U;
kernLeft = U;
kernRight = U;
lastChange = "2024-07-19 12:08:54 +0000";
layers = (
{
anchors = (
{
name = bottom;
pos = (293,0);
},
{
name = ogonek;
pos = (322,0);
},
{
name = top;
pos = (293,660);
}
);
layerId = "F5467FAD-1970-4982-B3D3-939C01050498";
shapes = (
{
closed = 1;
nodes = (
(434,-11,o),
(530,55,o),
(530,200,c),
(529,660,l),
(489,660,l),
(489,200,ls),
(489,71,o),
(404,14,o),
(293,14,cs),
(183,14,o),
(97,71,o),
(97,200,cs),
(97,660,l),
(58,660,l),
(57,200,ls),
(57,55,o),
(153,-11,o),
(293,-11,cs)
);
}
);
width = 587;
},
{
anchors = (
{
name = bottom;
pos = (293,0);
},
{
name = ogonek;
pos = (322,0);
},
{
name = top;
pos = (293,660);
}
);
layerId = "6DD95C5A-998B-41AB-BDFB-84A73C209871";
shapes = (
{
closed = 1;
nodes = (
(442,-11,o),
(555,65,o),
(555,215,c),
(554,660,l),
(410,660,l),
(410,215,ls),
(410,125,o),
(364,94,o),
(293,94,cs),
(223,94,o),
(176,125,o),
(176,215,cs),
(176,660,l),
(32,660,l),
(31,215,ls),
(31,65,o),
(144,-11,o),
(293,-11,cs)
);
}
);
width = 587;
},
{
anchors = (
{
name = bottom;
pos = (293,0);
},
{
name = ogonek;
pos = (322,0);
},
{
name = top;
pos = (293,660);
}
);
layerId = "1FDC7037-1F88-4969-8535-0F79C1EF19DB";
shapes = (
{
closed = 1;
nodes = (
(433,-11,o),
(526,53,o),
(526,197,c),
(525,660,l),
(502,660,l),
(502,197,ls),
(502,62,o),
(410,1,o),
(293,1,cs),
(176,1,o),
(85,62,o),
(85,197,cs),
(85,660,l),
(61,660,l),
(60,197,ls),
(60,53,o),
(154,-11,o),
(293,-11,cs)
);
}
);
width = 587;
},
{
anchors = (
{
name = bottom;
pos = (293,0);
},
{
name = ogonek;
pos = (322,0);
},
{
name = top;
pos = (293,660);
}
);
guides = (
{
pos = (0,-330);
},
{
pos = (0,-220);
},
{
pos = (0,-110);
},
{
},
{
pos = (0,110);
},
{
pos = (0,220);
},
{
pos = (0,330);
},
{
pos = (0,440);
},
{
pos = (0,550);
},
{
pos = (0,660);
},
{
pos = (0,770);
}
);
layerId = "3ED9E848-BE83-4CAC-8EFF-D71BD2B4F667";
shapes = (
{
closed = 1;
nodes = (
(293,0,ls),
(309,0,o),
(293,-11,o),
(293,-11,cs),
(293,-11,o),
(293,-11,o),
(293,-11,cs),
(309,-11,o),
(324,-10,o),
(339,-8,cs),
(331,-9,o),
(277,0,o),
(293,0,cs)
);
},
{
closed = 1;
nodes = (
(121,110,ls),
(83,110,o),
(65,81,o),
(94,55,cs),
(116,34,o),
(144,19,o),
(174,8,cs),
(194,1,o),
(209,0,o),
(229,0,cs),
(357,0,ls),
(377,0,o),
(392,1,o),
(412,8,cs),
(442,19,o),
(469,35,o),
(492,55,cs),
(521,81,o),
(503,110,o),
(465,110,cs)
);
},
{
closed = 1;
nodes = (
(561,660,l),
(435,660,ls),
(406,660,o),
(390,644,o),
(390,615,cs),
(390,595,ls),
(390,566,o),
(406,550,o),
(435,550,cs),
(517,550,ls),
(546,550,o),
(561,565,o),
(561,595,cs),
(561,615,ls),
(561,645,o),
(545,660,o),
(516,660,cs),
(196,660,l),
(70,660,ls),
(41,660,o),
(25,644,o),
(25,615,cs),
(25,595,ls),
(25,566,o),
(41,550,o),
(70,550,cs),
(151,550,ls),
(180,550,o),
(196,566,o),
(196,595,cs),
(196,660,l)
);
},
{
closed = 1;
nodes = (
(433,220,ls),
(405,220,o),
(390,219,o),
(390,219,cs),
(390,219,ls),
(390,139,o),
(355,114,o),
(293,114,cs),
(232,114,o),
(196,139,o),
(196,219,cs),
(196,220,ls),
(196,220,o),
(181,220,o),
(153,220,cs),
(72,220,ls),
(42,220,o),
(25,219,o),
(25,219,cs),
(25,219,ls),
(25,192,o),
(29,167,o),
(36,144,cs),
(44,120,o),
(62,110,o),
(87,110,cs),
(499,110,ls),
(524,110,o),
(543,120,o),
(551,144,cs),
(558,166,o),
(562,191,o),
(562,219,c),
(562,220,ls),
(562,220,o),
(545,220,o),
(515,220,cs)
);
},
{
closed = 1;
nodes = (
(70,330,ls),
(41,330,o),
(25,314,o),
(25,285,cs),
(25,265,ls),
(25,236,o),
(41,220,o),
(70,220,cs),
(151,220,ls),
(180,220,o),
(196,236,o),
(196,265,cs),
(196,285,ls),
(196,314,o),
(180,330,o),
(151,330,cs)
);
},
{
closed = 1;
nodes = (
(435,330,ls),
(406,330,o),
(390,314,o),
(390,285,cs),
(390,265,ls),
(390,236,o),
(406,220,o),
(435,220,cs),
(517,220,ls),
(546,220,o),
(562,236,o),
(562,265,cs),
(562,285,ls),
(562,314,o),
(546,330,o),
(517,330,cs)
);
},
{
closed = 1;
nodes = (
(70,440,ls),
(41,440,o),
(25,424,o),
(25,395,cs),
(25,375,ls),
(25,346,o),
(41,330,o),
(70,330,cs),
(151,330,ls),
(180,330,o),
(196,346,o),
(196,375,cs),
(196,395,ls),
(196,424,o),
(180,440,o),
(151,440,cs)
);
},
{
closed = 1;
nodes = (
(435,440,ls),
(406,440,o),
(390,424,o),
(390,395,cs),
(390,375,ls),
(390,346,o),
(406,330,o),
(435,330,cs),
(517,330,ls),
(546,330,o),
(562,346,o),
(562,375,cs),
(562,395,ls),
(562,424,o),
(546,440,o),
(517,440,cs)
);
},
{
closed = 1;
nodes = (
(70,550,ls),
(41,550,o),
(25,534,o),
(25,505,cs),
(25,485,ls),
(25,456,o),
(41,440,o),
(70,440,cs),
(151,440,ls),
(180,440,o),
(196,456,o),
(196,485,cs),
(196,505,ls),
(196,534,o),
(180,550,o),
(151,550,cs)
);
},
{
closed = 1;
nodes = (
(435,550,ls),
(406,550,o),
(390,534,o),
(390,505,cs),
(390,485,ls),
(390,456,o),
(406,440,o),
(435,440,cs),
(517,440,ls),
(546,440,o),
(562,456,o),
(562,485,cs),
(562,505,ls),
(562,534,o),
(546,550,o),
(517,550,cs)
);
}
);
width = 587;
}
);
note = U;
unicode = 85;
},
{
glyphname = V;
kernLeft = V;
kernRight = V;
lastChange = "2024-07-19 21:15:50 +0000";
layers = (
{
layerId = "F5467FAD-1970-4982-B3D3-939C01050498";
shapes = (
{
closed = 1;
nodes = (
(303,0,l),
(529,660,l),
(493,660,l),
(274,24,l),
(291,24,l),
(74,660,l),
(38,660,l),
(263,0,l)
);
}
);
width = 567;
},
{
layerId = "6DD95C5A-998B-41AB-BDFB-84A73C209871";
shapes = (
{
closed = 1;
nodes = (
(372,0,l),
(599,660,l),
(455,660,l),
(283,158,l),
(310,158,l),
(139,660,l),
(-6,660,l),
(220,0,l)
);
}
);
width = 593;
},
{
layerId = "1FDC7037-1F88-4969-8535-0F79C1EF19DB";
shapes = (
{
closed = 1;
nodes = (
(291,0,l),
(518,660,l),
(500,660,l),
(273,2,l),
(289,2,l),
(63,660,l),
(44,660,l),
(270,0,l)
);
}
);
width = 563;
},
{
guides = (
{
pos = (0,-330);
},
{
pos = (0,-220);
},
{
pos = (0,-110);
},
{
},
{
pos = (0,110);
},
{
pos = (0,220);
},
{
pos = (0,330);
},
{
pos = (0,440);
},
{
pos = (0,550);
},
{
pos = (0,660);
},
{
pos = (0,770);
}
);
layerId = "3ED9E848-BE83-4CAC-8EFF-D71BD2B4F667";
shapes = (
{
closed = 1;
nodes = (
(226,110,ls),
(193,110,o),
(179,91,o),
(190,59,cs),
(197,37,ls),
(205,12,o),
(222,0,o),
(248,0,cs),
(350,0,ls),
(376,0,o),
(393,12,o),
(401,37,cs),
(409,59,ls),
(420,91,o),
(406,110,o),
(373,110,cs)
);
},
{
closed = 1;
nodes = (
(38,660,ls),
(5,660,o),
(-9,640,o),
(1,609,cs),
(9,586,ls),
(17,562,o),
(35,550,o),
(61,550,cs),
(139,550,ls),
(172,550,o),
(186,569,o),
(175,601,cs),
(155,660,l)
);
},
{
closed = 1;
nodes = (
(540,550,ls),
(566,550,o),
(583,562,o),
(591,587,cs),
(599,609,ls),
(609,640,o),
(595,660,o),
(562,660,cs),
(484,660,ls),
(458,660,o),
(441,648,o),
(433,623,cs),
(425,601,ls),
(415,570,o),
(429,550,o),
(462,550,cs)
);
},
{
closed = 1;
nodes = (
(372,330,ls),
(346,330,o),
(328,318,o),
(320,294,cs),
(295,220,l),
(188,220,ls),
(155,220,o),
(141,200,o),
(151,169,cs),
(159,146,ls),
(167,122,o),
(185,110,o),
(211,110,cs),
(388,110,ls),
(414,110,o),
(431,122,o),
(439,147,cs),
(447,169,ls),
(458,201,o),
(444,220,o),
(411,220,cs),
(305,220,l),
(280,293,ls),
(272,318,o),
(255,330,o),
(229,330,cs),
(151,330,ls),
(118,330,o),
(104,311,o),
(115,279,cs),
(122,257,ls),
(130,232,o),
(147,220,o),
(173,220,cs),
(295,220,l),
(295,220,ls),
(289,203,o),
(291,191,o),
(300,191,cs),
(300,191,ls),
(309,191,o),
(311,203,o),
(305,220,cs),
(305,220,l),
(426,220,ls),
(452,220,o),
(469,232,o),
(477,257,cs),
(485,279,ls),
(496,311,o),
(482,330,o),
(449,330,cs)
);
},
{
closed = 1;
nodes = (
(113,440,ls),
(80,440,o),
(66,420,o),
(76,389,cs),
(84,366,ls),
(92,342,o),
(110,330,o),
(136,330,cs),
(214,330,ls),
(247,330,o),
(261,350,o),
(251,381,cs),
(243,404,ls),
(235,428,o),
(217,440,o),
(191,440,cs)
);
},
{
closed = 1;
nodes = (
(409,440,ls),
(383,440,o),
(366,428,o),
(358,403,cs),
(350,381,ls),
(340,350,o),
(354,330,o),
(387,330,cs),
(464,330,ls),
(490,330,o),
(507,342,o),
(515,367,cs),
(523,389,ls),
(534,421,o),
(520,440,o),
(487,440,cs)
);
},
{
closed = 1;
nodes = (
(76,550,ls),
(43,550,o),
(29,531,o),
(40,499,cs),
(47,477,ls),
(55,452,o),
(72,440,o),
(98,440,cs),
(176,440,ls),
(209,440,o),
(223,459,o),
(212,491,cs),
(205,513,ls),
(197,538,o),
(180,550,o),
(154,550,cs)
);
},
{
closed = 1;
nodes = (
(447,550,ls),
(421,550,o),
(404,538,o),
(396,513,cs),
(388,491,ls),
(377,459,o),
(391,440,o),
(424,440,cs),
(502,440,ls),
(528,440,o),
(545,452,o),
(553,477,cs),
(561,499,ls),
(572,531,o),
(558,550,o),
(525,550,cs)
);
}
);
width = 600;
}
);
note = V;
unicode = 86;
},
{
glyphname = W;
kernLeft = W;
kernRight = W;
lastChange = "2024-07-19 12:08:54 +0000";
layers = (
{
anchors = (
{
name = bottom;
pos = (431,0);
},
{
name = top;
pos = (436,660);
}
);
layerId = "F5467FAD-1970-4982-B3D3-939C01050498";
shapes = (
{
closed = 1;
nodes = (
(265,0,l),
(454,660,l),
(418,660,l),
(242,44,l),
(248,44,l),
(74,660,l),
(38,660,l),
(225,0,l)
);
},
{
closed = 1;
nodes = (
(834,660,l),
(798,660,l),
(623,44,l),
(629,44,l),
(454,660,l),
(418,660,l),
(606,0,l),
(646,0,l)
);
}
);
width = 871;
},
{
anchors = (
{
name = bottom;
pos = (419,0);
},
{
name = top;
pos = (419,660);
}
);
layerId = "6DD95C5A-998B-41AB-BDFB-84A73C209871";
shapes = (
{
closed = 1;
nodes = (
(335,0,l),
(491,651,l),
(352,651,l),
(251,187,l),
(270,187,l),
(183,660,l),
(38,660,l),
(185,0,l)
);
},
{
closed = 1;
nodes = (
(805,660,l),
(660,660,l),
(573,187,l),
(592,187,l),
(491,651,l),
(352,651,l),
(508,0,l),
(658,0,l)
);
}
);
width = 843;
},
{
anchors = (
{
name = bottom;
pos = (433,0);
},
{
name = top;
pos = (438,660);
}
);
layerId = "1FDC7037-1F88-4969-8535-0F79C1EF19DB";
shapes = (
{
closed = 1;
nodes = (
(254,0,l),
(448,662,l),
(428,662,l),
(241,22,l),
(244,22,l),
(56,660,l),
(38,660,l),
(232,0,l)
);
},
{
closed = 1;
nodes = (
(838,660,l),
(819,660,l),
(631,22,l),
(635,22,l),
(448,662,l),
(428,662,l),
(622,0,l),
(644,0,l)
);
}
);
width = 876;
},
{
anchors = (
{
name = bottom;
pos = (416,0);
},
{
name = top;
pos = (415,660);
}
);
guides = (
{
pos = (0,-330);
},
{
pos = (0,-220);
},
{
pos = (0,-110);
},
{
},
{
pos = (0,110);
},
{
pos = (0,220);
},
{
pos = (0,330);
},
{
pos = (0,440);
},
{
pos = (0,550);
},
{
pos = (0,660);
},
{
pos = (0,770);
}
);
layerId = "3ED9E848-BE83-4CAC-8EFF-D71BD2B4F667";
shapes = (
{
closed = 1;
nodes = (
(478,550,ls),
(504,550,o),
(517,569,o),
(511,599,cs),
(509,609,ls),
(504,636,o),
(487,649,o),
(460,649,cs),
(387,649,ls),
(356,649,o),
(341,630,o),
(348,599,cs),
(359,550,l),
(358,550,ls),
(331,550,o),
(314,537,o),
(309,510,cs),
(305,489,ls),
(299,459,o),
(314,440,o),
(345,440,cs),
(384,440,l),
(409,330,l),
(315,330,ls),
(288,330,o),
(271,317,o),
(266,290,cs),
(263,271,ls),
(257,241,o),
(257,222,o),
(264,222,cs),
(264,222,ls),
(271,222,o),
(272,240,o),
(268,270,cs),
(265,289,ls),
(261,316,o),
(244,330,o),
(217,330,cs),
(156,330,ls),
(125,330,o),
(110,311,o),
(116,281,cs),
(120,260,ls),
(125,234,o),
(142,220,o),
(169,220,cs),
(362,220,ls),
(389,220,o),
(405,232,o),
(411,259,cs),
(427,330,l),
(512,330,ls),
(543,330,o),
(559,349,o),
(553,379,cs),
(549,400,ls),
(544,427,o),
(527,440,o),
(500,440,cs),
(453,440,l),
(478,550,l)
);
},
{
closed = 1;
nodes = (
(202,110,ls),
(171,110,o),
(155,91,o),
(162,61,cs),
(166,40,ls),
(172,14,o),
(188,0,o),
(215,0,cs),
(312,0,ls),
(339,0,o),
(355,12,o),
(361,39,cs),
(366,60,ls),
(373,91,o),
(357,110,o),
(326,110,cs)
);
},
{
closed = 1;
nodes = (
(510,110,ls),
(479,110,o),
(463,91,o),
(470,60,cs),
(475,39,ls),
(481,12,o),
(497,0,o),
(524,0,cs),
(620,0,ls),
(647,0,o),
(663,14,o),
(669,40,cs),
(674,61,ls),
(680,92,o),
(665,110,o),
(634,110,cs)
);
},
{
closed = 1;
nodes = (
(179,220,ls),
(148,220,o),
(132,201,o),
(139,171,cs),
(143,150,ls),
(149,124,o),
(165,110,o),
(192,110,cs),
(337,110,ls),
(364,110,o),
(380,122,o),
(386,149,cs),
(391,170,ls),
(398,201,o),
(382,220,o),
(351,220,cs)
);
},
{
closed = 1;
nodes = (
(485,220,ls),
(454,220,o),
(438,201,o),
(445,170,cs),
(450,149,ls),
(456,122,o),
(472,110,o),
(499,110,cs),
(643,110,ls),
(670,110,o),
(686,124,o),
(692,150,cs),
(697,171,ls),
(703,202,o),
(688,220,o),
(657,220,cs)
);
},
{
closed = 1;
nodes = (
(799,660,l),
(668,660,ls),
(641,660,o),
(624,645,o),
(620,618,cs),
(617,598,ls),
(613,567,o),
(629,550,o),
(659,550,cs),
(735,550,ls),
(762,550,o),
(778,564,o),
(784,590,cs),
(789,611,ls),
(795,642,o),
(780,660,o),
(749,660,cs),
(210,660,l),
(89,660,ls),
(58,660,o),
(42,641,o),
(49,611,cs),
(53,590,ls),
(59,564,o),
(75,550,o),
(102,550,cs),
(178,550,ls),
(209,550,o),
(225,568,o),
(220,598,cs),
(210,660,l)
);
},
{
closed = 1;
nodes = (
(134,440,ls),
(103,440,o),
(87,421,o),
(94,391,cs),
(98,370,ls),
(104,344,o),
(120,330,o),
(147,330,cs),
(210,330,ls),
(240,330,o),
(256,348,o),
(252,378,cs),
(249,398,ls),
(245,425,o),
(228,440,o),
(201,440,cs)
);
},
{
closed = 1;
nodes = (
(635,440,ls),
(608,440,o),
(591,425,o),
(587,398,cs),
(584,378,ls),
(580,347,o),
(596,330,o),
(626,330,cs),
(689,330,ls),
(716,330,o),
(732,344,o),
(738,370,cs),
(743,391,ls),
(749,422,o),
(734,440,o),
(703,440,cs)
);
},
{
closed = 1;
nodes = (
(111,550,ls),
(80,550,o),
(65,531,o),
(71,501,cs),
(75,480,ls),
(80,454,o),
(97,440,o),
(124,440,cs),
(194,440,ls),
(224,440,o),
(240,458,o),
(236,488,cs),
(233,508,ls),
(229,535,o),
(212,550,o),
(185,550,cs)
);
},
{
closed = 1;
nodes = (
(478,550,l),
(489,599,ls),
(496,630,o),
(481,649,o),
(450,649,cs),
(377,649,ls),
(350,649,o),
(333,635,o),
(328,609,cs),
(326,599,ls),
(320,569,o),
(333,550,o),
(359,550,cs),
(359,550,l),
(384,440,l),
(336,440,ls),
(309,440,o),
(292,427,o),
(287,400,cs),
(283,379,ls),
(277,349,o),
(293,330,o),
(324,330,cs),
(409,330,l),
(425,259,ls),
(431,232,o),
(447,220,o),
(474,220,cs),
(666,220,ls),
(693,220,o),
(709,234,o),
(715,260,cs),
(720,281,ls),
(726,312,o),
(711,330,o),
(680,330,cs),
(619,330,ls),
(592,330,o),
(575,316,o),
(571,289,cs),
(568,270,ls),
(564,240,o),
(565,222,o),
(572,222,cs),
(572,222,ls),
(579,222,o),
(580,241,o),
(574,271,cs),
(570,290,ls),
(565,317,o),
(548,330,o),
(521,330,cs),
(427,330,l),
(453,440,l),
(491,440,ls),
(522,440,o),
(538,459,o),
(532,489,cs),
(528,510,ls),
(523,537,o),
(513,550,o),
(499,550,cs)
);
},
{
closed = 1;
nodes = (
(652,550,ls),
(625,550,o),
(607,537,o),
(603,509,cs),
(600,488,ls),
(595,458,o),
(611,440,o),
(642,440,cs),
(712,440,ls),
(739,440,o),
(755,454,o),
(761,480,cs),
(766,501,ls),
(772,532,o),
(757,550,o),
(726,550,cs)
);
}
);
width = 836;
}
);
note = W;
unicode = 87;
},
{
glyphname = X;
kernLeft = X;
kernRight = X;
lastChange = "2024-07-19 12:08:54 +0000";
layers = (
{
layerId = "F5467FAD-1970-4982-B3D3-939C01050498";
shapes = (
{
closed = 1;
nodes = (
(332,340,l),
(584,660,l),
(538,660,l),
(311,373,l)
);
},
{
closed = 1;
nodes = (
(296,364,l),
(9,0,l),
(56,0,l),
(317,330,l)
);
},
{
closed = 1;
nodes = (
(99,660,l),
(53,660,l),
(559,0,l),
(605,0,l)
);
}
);
width = 615;
},
{
layerId = "6DD95C5A-998B-41AB-BDFB-84A73C209871";
shapes = (
{
closed = 1;
nodes = (
(460,336,l),
(718,660,l),
(546,660,l),
(376,445,l)
);
},
{
closed = 1;
nodes = (
(298,366,l),
(9,0,l),
(181,0,l),
(381,255,l)
);
},
{
closed = 1;
nodes = (
(223,660,l),
(51,660,l),
(558,0,l),
(729,0,l)
);
}
);
width = 738;
},
{
layerId = "1FDC7037-1F88-4969-8535-0F79C1EF19DB";
shapes = (
{
closed = 1;
nodes = (
(311,341,l),
(562,660,l),
(537,660,l),
(301,362,l)
);
},
{
closed = 1;
nodes = (
(296,364,l),
(9,0,l),
(36,0,l),
(306,342,l)
);
},
{
closed = 1;
nodes = (
(79,660,l),
(53,660,l),
(559,0,l),
(586,0,l)
);
}
);
width = 595;
},
{
guides = (
{
pos = (0,-330);
},
{
pos = (0,-220);
},
{
pos = (0,-110);
},
{
},
{
pos = (0,110);
},
{
pos = (0,220);
},
{
pos = (0,330);
},
{
pos = (0,440);
},
{
pos = (0,550);
},
{
pos = (0,660);
},
{
pos = (0,770);
}
);
layerId = "3ED9E848-BE83-4CAC-8EFF-D71BD2B4F667";
shapes = (
{
closed = 1;
nodes = (
(751,660,l),
(582,660,ls),
(559,660,o),
(541,651,o),
(527,633,cs),
(505,605,ls),
(482,575,o),
(493,550,o),
(531,550,cs),
(629,550,ls),
(652,550,o),
(669,558,o),
(684,576,cs),
(707,605,ls),
(731,635,o),
(718,660,o),
(680,660,cs),
(253,660,l),
(120,660,ls),
(82,660,o),
(70,635,o),
(93,605,cs),
(115,577,ls),
(129,558,o),
(146,550,o),
(170,550,cs),
(269,550,ls),
(307,550,o),
(319,575,o),
(296,605,cs),
(253,660,l)
);
},
{
closed = 1;
nodes = (
(542,110,ls),
(504,110,o),
(492,85,o),
(515,55,cs),
(558,0,l),
(9,0,l),
(178,0,ls),
(201,0,o),
(219,9,o),
(233,27,cs),
(255,55,ls),
(278,85,o),
(266,110,o),
(228,110,cs),
(130,110,ls),
(107,110,o),
(89,101,o),
(75,83,cs),
(53,55,ls),
(30,25,o),
(41,0,o),
(79,0,cs),
(558,0,l),
(690,0,ls),
(728,0,o),
(740,24,o),
(717,55,cs),
(696,83,ls),
(682,102,o),
(665,110,o),
(641,110,cs)
);
},
{
closed = 1;
nodes = (
(217,220,ls),
(194,220,o),
(176,211,o),
(162,193,cs),
(140,165,ls),
(117,135,o),
(128,110,o),
(166,110,cs),
(264,110,ls),
(287,110,o),
(305,119,o),
(319,137,cs),
(341,165,ls),
(364,195,o),
(352,220,o),
(314,220,cs)
);
},
{
closed = 1;
nodes = (
(458,220,ls),
(420,220,o),
(408,196,o),
(431,165,cs),
(452,137,ls),
(466,118,o),
(483,110,o),
(507,110,cs),
(606,110,ls),
(644,110,o),
(656,134,o),
(633,165,cs),
(612,193,ls),
(598,212,o),
(581,220,o),
(557,220,cs)
);
},
{
closed = 1;
nodes = (
(325,330,l),
(325,330,ls),
(309,352,o),
(292,359,o),
(284,348,cs),
(284,348,ls),
(277,338,o),
(286,330,o),
(305,330,cs),
(305,330,l),
(368,247,ls),
(382,228,o),
(399,220,o),
(423,220,cs),
(522,220,ls),
(560,220,o),
(572,244,o),
(549,275,cs),
(528,303,ls),
(514,322,o),
(497,330,o),
(473,330,cs)
);
},
{
closed = 1;
nodes = (
(205,550,ls),
(167,550,o),
(155,526,o),
(178,495,cs),
(199,467,ls),
(213,448,o),
(230,440,o),
(254,440,cs),
(410,440,l),
(460,376,ls),
(479,351,o),
(503,350,o),
(523,375,cs),
(533,388,ls),
(556,416,o),
(542,440,o),
(504,440,cs),
(422,440,l),
(359,523,ls),
(345,542,o),
(328,550,o),
(304,550,cs)
);
},
{
closed = 1;
nodes = (
(495,550,ls),
(472,550,o),
(455,542,o),
(440,524,cs),
(417,495,ls),
(400,473,o),
(398,456,o),
(410,440,cs),
(410,440,l),
(289,440,ls),
(251,440,o),
(239,415,o),
(262,385,cs),
(305,330,l),
(304,330,ls),
(281,330,o),
(263,321,o),
(249,303,cs),
(227,275,ls),
(204,245,o),
(215,220,o),
(253,220,cs),
(351,220,ls),
(374,220,o),
(386,223,o),
(391,228,cs),
(391,228,ls),
(395,233,o),
(389,247,o),
(373,268,cs),
(325,330,l),
(438,330,ls),
(476,330,o),
(488,355,o),
(465,385,cs),
(422,440,l),
(541,440,ls),
(564,440,o),
(581,448,o),
(596,466,cs),
(619,495,ls),
(643,525,o),
(630,550,o),
(592,550,cs)
);
}
);
width = 769;
}
);
note = X;
unicode = 88;
},
{
glyphname = Y;
kernLeft = Y;
kernRight = Y;
lastChange = "2024-07-19 12:08:54 +0000";
layers = (
{
anchors = (
{
name = bottom;
pos = (271,0);
},
{
name = top;
pos = (271,660);
}
);
layerId = "F5467FAD-1970-4982-B3D3-939C01050498";
shapes = (
{
closed = 1;
nodes = (
(290,0,l),
(290,292,l),
(531,660,l),
(488,660,l),
(270,318,l),
(53,660,l),
(9,660,l),
(250,292,l),
(250,0,l)
);
}
);
width = 540;
},
{
anchors = (
{
name = bottom;
pos = (332,0);
},
{
name = top;
pos = (332,660);
}
);
layerId = "6DD95C5A-998B-41AB-BDFB-84A73C209871";
shapes = (
{
closed = 1;
nodes = (
(404,0,l),
(404,290,l),
(644,660,l),
(495,660,l),
(331,397,l),
(168,660,l),
(19,660,l),
(258,290,l),
(258,0,l)
);
}
);
width = 663;
},
{
anchors = (
{
name = bottom;
pos = (261,0);
},
{
name = top;
pos = (261,660);
}
);
layerId = "1FDC7037-1F88-4969-8535-0F79C1EF19DB";
shapes = (
{
closed = 1;
nodes = (
(272,0,l),
(272,292,l),
(513,660,l),
(487,660,l),
(260,306,l),
(34,660,l),
(8,660,l),
(249,292,l),
(249,0,l)
);
}
);
width = 521;
},
{
anchors = (
{
name = bottom;
pos = (347,0);
},
{
name = top;
pos = (347,660);
}
);
guides = (
{
pos = (0,-330);
},
{
pos = (0,-220);
},
{
pos = (0,-110);
},
{
},
{
pos = (0,110);
},
{
pos = (0,220);
},
{
pos = (0,330);
},
{
pos = (0,440);
},
{
pos = (0,550);
},
{
pos = (0,660);
},
{
pos = (0,770);
}
);
layerId = "3ED9E848-BE83-4CAC-8EFF-D71BD2B4F667";
shapes = (
{
closed = 1;
nodes = (
(305,110,ls),
(276,110,o),
(260,94,o),
(260,65,cs),
(260,45,ls),
(260,16,o),
(276,0,o),
(305,0,cs),
(387,0,ls),
(416,0,o),
(432,16,o),
(432,45,cs),
(432,65,ls),
(432,94,o),
(416,110,o),
(387,110,cs)
);
},
{
closed = 1;
nodes = (
(305,220,ls),
(276,220,o),
(260,204,o),
(260,175,cs),
(260,155,ls),
(260,126,o),
(276,110,o),
(305,110,cs),
(387,110,ls),
(416,110,o),
(432,126,o),
(432,155,cs),
(432,175,ls),
(432,204,o),
(416,220,o),
(387,220,cs)
);
},
{
closed = 1;
nodes = (
(298,330,ls),
(262,330,o),
(245,313,o),
(260,289,cs),
(260,289,l),
(260,265,ls),
(260,236,o),
(276,220,o),
(305,220,cs),
(387,220,ls),
(416,220,o),
(432,236,o),
(432,265,cs),
(432,289,l),
(432,289,ls),
(447,313,o),
(430,330,o),
(394,330,cs)
);
},
{
closed = 1;
nodes = (
(671,660,l),
(532,660,ls),
(508,660,o),
(492,651,o),
(479,630,cs),
(463,604,ls),
(444,573,o),
(457,550,o),
(493,550,cs),
(565,550,ls),
(589,550,o),
(606,560,o),
(619,580,cs),
(636,606,ls),
(656,636,o),
(642,660,o),
(606,660,cs),
(196,660,l),
(87,660,ls),
(51,660,o),
(37,636,o),
(57,606,cs),
(74,579,ls),
(87,559,o),
(104,550,o),
(128,550,cs),
(200,550,ls),
(236,550,o),
(249,573,o),
(230,604,cs),
(196,660,l)
);
},
{
closed = 1;
nodes = (
(395,440,ls),
(371,440,o),
(356,433,o),
(346,417,cs),
(346,417,l),
(346,417,ls),
(336,433,o),
(321,440,o),
(297,440,cs),
(228,440,ls),
(192,440,o),
(178,416,o),
(198,386,cs),
(215,359,ls),
(228,339,o),
(245,330,o),
(269,330,cs),
(423,330,ls),
(447,330,o),
(464,340,o),
(477,360,cs),
(494,386,ls),
(514,416,o),
(500,440,o),
(464,440,cs)
);
},
{
closed = 1;
nodes = (
(157,550,ls),
(121,550,o),
(109,527,o),
(128,496,cs),
(144,470,ls),
(157,450,o),
(174,440,o),
(198,440,cs),
(268,440,ls),
(304,440,o),
(318,463,o),
(299,494,cs),
(283,520,ls),
(270,541,o),
(253,550,o),
(229,550,cs)
);
},
{
closed = 1;
nodes = (
(464,550,ls),
(440,550,o),
(423,541,o),
(410,520,cs),
(394,494,ls),
(375,463,o),
(388,440,o),
(424,440,cs),
(494,440,ls),
(518,440,o),
(535,450,o),
(548,470,cs),
(565,496,ls),
(585,526,o),
(571,550,o),
(535,550,cs)
);
}
);
width = 693;
}
);
note = Y;
unicode = 89;
},
{
glyphname = Z;
kernLeft = Z;
kernRight = Z;
lastChange = "2024-07-19 12:15:16 +0000";
layers = (
{
anchors = (
{
name = bottom;
pos = (268,0);
},
{
name = top;
pos = (268,660);
}
);
layerId = "F5467FAD-1970-4982-B3D3-939C01050498";
shapes = (
{
closed = 1;
nodes = (
(502,0,l),
(502,28,l),
(52,28,l),
(525,632,l),
(525,660,l),
(43,660,l),
(43,632,l),
(483,632,l),
(9,28,l),
(9,0,l)
);
}
);
width = 535;
},
{
anchors = (
{
name = bottom;
pos = (278,0);
},
{
name = top;
pos = (278,660);
}
);
layerId = "6DD95C5A-998B-41AB-BDFB-84A73C209871";
shapes = (
{
closed = 1;
nodes = (
(542,0,l),
(542,118,l),
(190,118,l),
(546,543,l),
(546,660,l),
(30,660,l),
(30,543,l),
(364,543,l),
(9,118,l),
(9,0,l)
);
}
);
width = 555;
},
{
anchors = (
{
name = bottom;
pos = (266,0);
},
{
name = top;
pos = (266,660);
}
);
layerId = "1FDC7037-1F88-4969-8535-0F79C1EF19DB";
shapes = (
{
closed = 1;
nodes = (
(495,0,l),
(495,14,l),
(29,14,l),
(521,646,l),
(521,660,l),
(45,660,l),
(45,646,l),
(502,646,l),
(9,14,l),
(9,0,l)
);
}
);
width = 531;
},
{
anchors = (
{
name = bottom;
pos = (281,0);
},
{
name = top;
pos = (281,660);
}
);
guides = (
{
pos = (0,-330);
},
{
pos = (0,-220);
},
{
pos = (0,-110);
},
{
},
{
pos = (0,110);
},
{
pos = (0,220);
},
{
pos = (0,330);
},
{
pos = (0,440);
},
{
pos = (0,550);
},
{
pos = (0,660);
},
{
pos = (0,770);
}
);
layerId = "3ED9E848-BE83-4CAC-8EFF-D71BD2B4F667";
shapes = (
{
closed = 1;
nodes = (
(72,660,ls),
(43,660,o),
(27,644,o),
(27,615,cs),
(27,595,ls),
(27,566,o),
(43,550,o),
(72,550,cs),
(506,550,ls),
(535,550,o),
(551,566,o),
(551,595,cs),
(551,660,l)
);
},
{
closed = 1;
nodes = (
(54,110,ls),
(25,110,o),
(9,94,o),
(9,65,cs),
(9,45,ls),
(9,16,o),
(25,0,o),
(54,0,cs),
(508,0,ls),
(537,0,o),
(553,16,o),
(553,45,cs),
(553,65,ls),
(553,94,o),
(537,110,o),
(508,110,cs)
);
},
{
closed = 1;
nodes = (
(111,220,ls),
(88,220,o),
(70,212,o),
(55,194,cs),
(30,164,ls),
(16,147,o),
(9,135,o),
(9,125,cs),
(9,125,ls),
(9,116,o),
(25,110,o),
(54,110,cs),
(508,110,ls),
(537,110,o),
(553,116,o),
(553,125,cs),
(553,125,ls),
(553,134,o),
(537,140,o),
(508,140,cs),
(224,140,l),
(245,165,ls),
(270,195,o),
(259,220,o),
(220,220,cs)
);
},
{
closed = 1;
nodes = (
(204,330,ls),
(181,330,o),
(164,323,o),
(149,305,cs),
(124,275,ls),
(99,246,o),
(111,220,o),
(150,220,cs),
(260,220,ls),
(283,220,o),
(300,227,o),
(315,245,cs),
(340,275,ls),
(365,304,o),
(353,330,o),
(314,330,cs)
);
},
{
closed = 1;
nodes = (
(298,440,ls),
(275,440,o),
(258,433,o),
(243,415,cs),
(218,385,ls),
(193,356,o),
(205,330,o),
(244,330,cs),
(354,330,ls),
(377,330,o),
(394,337,o),
(409,355,cs),
(434,385,ls),
(459,414,o),
(447,440,o),
(408,440,cs)
);
},
{
closed = 1;
nodes = (
(72,550,ls),
(43,550,o),
(27,544,o),
(27,535,cs),
(27,535,ls),
(27,526,o),
(43,521,o),
(72,521,cs),
(335,521,l),
(313,495,ls),
(288,466,o),
(299,440,o),
(338,440,cs),
(448,440,ls),
(471,440,o),
(488,447,o),
(503,465,cs),
(530,497,ls),
(545,514,o),
(551,526,o),
(551,536,cs),
(551,536,ls),
(551,545,o),
(535,550,o),
(506,550,cs)
);
}
);
width = 561;
}
);
note = Z;
unicode = 90;
},
{
glyphname = a;
kernLeft = a;
kernRight = a;
lastChange = "2024-07-19 12:08:54 +0000";
layers = (
{
anchors = (
{
name = bottom;
pos = (245,0);
},
{
name = ogonek;
pos = (399,0);
},
{
name = top;
pos = (245,472);
}
);
layerId = "F5467FAD-1970-4982-B3D3-939C01050498";
shapes = (
{
closed = 1;
nodes = (
(305,-13,o),
(372,46,o),
(399,121,c),
(399,0,l),
(440,0,l),
(440,292,ls),
(440,376,o),
(423,482,o),
(250,482,cs),
(161,482,o),
(88,438,o),
(68,387,cs),
(66,381,o),
(64,376,o),
(63,371,c),
(124,370,l),
(124,373,o),
(125,377,o),
(127,381,cs),
(141,421,o),
(186,455,o),
(259,455,cs),
(350,455,o),
(394,407,o),
(394,346,cs),
(394,283,o),
(318,259,o),
(231,250,cs),
(72,232,o),
(28,187,o),
(28,116,cs),
(28,40,o),
(99,-13,o),
(211,-13,cs)
);
},
{
closed = 1;
nodes = (
(103,11,o),
(75,74,o),
(75,122,cs),
(75,183,o),
(120,210,o),
(228,224,cs),
(316,236,o),
(369,256,o),
(399,292,c),
(399,197,ls),
(399,110,o),
(331,11,o),
(211,11,cs)
);
}
);
width = 488;
},
{
anchors = (
{
name = bottom;
pos = (276,0);
},
{
name = ogonek;
pos = (344,0);
},
{
name = top;
pos = (276,472);
}
);
layerId = "6DD95C5A-998B-41AB-BDFB-84A73C209871";
shapes = (
{
closed = 1;
nodes = (
(276,-12,o),
(319,15,o),
(344,54,c),
(344,0,l),
(488,0,l),
(488,284,ls),
(488,357,o),
(471,480,o),
(275,480,cs),
(161,480,o),
(65,416,o),
(65,339,cs),
(65,329,o),
(67,320,o),
(70,310,c),
(209,310,l),
(208,311,o),
(208,314,o),
(208,318,cs),
(208,338,o),
(217,384,o),
(284,384,cs),
(320,384,o),
(344,369,o),
(344,337,cs),
(344,300,o),
(301,286,o),
(239,280,cs),
(84,265,o),
(28,212,o),
(28,135,cs),
(28,53,o),
(85,-12,o),
(207,-12,cs)
);
},
{
closed = 1;
nodes = (
(192,76,o),
(171,109,o),
(171,140,cs),
(171,177,o),
(207,195,o),
(251,201,cs),
(285,205,o),
(318,213,o),
(347,225,c),
(347,216,ls),
(347,113,o),
(293,76,o),
(239,76,cs)
);
}
);
width = 536;
},
{
anchors = (
{
name = bottom;
pos = (240,0);
},
{
name = ogonek;
pos = (407,0);
},
{
name = top;
pos = (240,472);
}
);
layerId = "1FDC7037-1F88-4969-8535-0F79C1EF19DB";
shapes = (
{
closed = 1;
nodes = (
(309,-13,o),
(382,51,o),
(407,131,c),
(407,0,l),
(433,0,l),
(433,293,ls),
(433,379,o),
(416,482,o),
(246,482,cs),
(161,482,o),
(91,442,o),
(68,394,cs),
(66,389,o),
(64,386,o),
(62,380,c),
(109,379,l),
(111,384,o),
(112,388,o),
(114,391,cs),
(131,434,o),
(181,467,o),
(256,467,cs),
(355,467,o),
(402,414,o),
(402,348,cs),
(402,280,o),
(321,255,o),
(230,245,cs),
(70,226,o),
(28,183,o),
(28,113,cs),
(28,38,o),
(101,-13,o),
(212,-13,cs)
);
},
{
closed = 1;
nodes = (
(89,1,o),
(60,68,o),
(60,119,cs),
(60,184,o),
(106,213,o),
(224,228,cs),
(321,240,o),
(377,262,o),
(407,303,c),
(407,194,ls),
(407,110,o),
(337,1,o),
(207,1,cs)
);
}
);
width = 480;
},
{
anchors = (
{
name = bottom;
pos = (284,0);
},
{
name = ogonek;
pos = (331,0);
},
{
name = top;
pos = (284,472);
}
);
guides = (
{
pos = (0,-330);
},
{
pos = (0,-220);
},
{
pos = (0,-110);
},
{
},
{
pos = (0,110);
},
{
pos = (0,220);
},
{
pos = (0,330);
},
{
pos = (0,440);
},
{
pos = (0,550);
},
{
pos = (0,660);
},
{
pos = (0,770);
},
{
pos = (0,-330);
},
{
pos = (0,-220);
},
{
pos = (0,-110);
},
{
},
{
pos = (0,110);
},
{
pos = (0,220);
},
{
pos = (0,330);
},
{
pos = (0,440);
},
{
pos = (0,550);
},
{
pos = (0,660);
},
{
pos = (0,770);
}
);
layerId = "3ED9E848-BE83-4CAC-8EFF-D71BD2B4F667";
shapes = (
{
closed = 1;
nodes = (
(285,440,ls),
(320,440,o),
(282,480,o),
(282,480,cs),
(282,480,o),
(282,480,o),
(282,480,cs),
(255,480,o),
(229,477,o),
(205,470,cs),
(191,466,o),
(256,440,o),
(285,440,cs)
);
},
{
closed = 1;
nodes = (
(203,0,ls),
(208,0,o),
(207,-12,o),
(207,-12,cs),
(207,-12,o),
(207,-12,o),
(207,-12,cs),
(220,-12,o),
(233,-11,o),
(244,-9,cs),
(243,-9,o),
(203,0,o),
(203,0,cs)
);
},
{
closed = 1;
nodes = (
(352,110,l),
(328,110,ls),
(306,110,o),
(292,102,o),
(271,96,cs),
(262,93,o),
(253,92,o),
(245,92,cs),
(237,92,o),
(230,94,o),
(223,97,cs),
(209,103,o),
(197,110,o),
(175,110,cs),
(85,110,ls),
(52,110,o),
(32,88,o),
(49,59,cs),
(61,39,o),
(78,23,o),
(100,11,cs),
(118,1,o),
(134,0,o),
(154,0,cs),
(203,0,l),
(250,0,ls),
(271,0,o),
(287,1,o),
(304,14,cs),
(305,15,o),
(306,15,o),
(307,16,cs),
(324,28,o),
(21,21,o),
(331,38,cs),
(331,38,ls),
(331,14,o),
(347,0,o),
(376,0,cs),
(456,0,ls),
(485,0,o),
(501,16,o),
(501,45,cs),
(501,65,ls),
(501,94,o),
(485,110,o),
(456,110,cs)
);
},
{
closed = 1;
nodes = (
(378,220,ls),
(350,220,o),
(334,221,o),
(334,221,cs),
(334,221,ls),
(334,221,o),
(334,220,o),
(334,220,cs),
(334,193,o),
(331,173,o),
(325,155,cs),
(316,124,o),
(319,110,o),
(352,110,cs),
(456,110,ls),
(485,110,o),
(501,126,o),
(501,155,cs),
(501,175,ls),
(501,204,o),
(485,220,o),
(456,220,cs)
);
},
{
closed = 1;
nodes = (
(289,220,l),
(334,220,l),
(456,220,ls),
(485,220,o),
(501,236,o),
(501,265,cs),
(501,282,ls),
(501,289,o),
(501,297,o),
(500,306,cs),
(499,322,o),
(482,330,o),
(454,330,cs),
(377,330,l),
(365,330,ls),
(342,330,o),
(333,317,o),
(313,304,cs),
(297,295,o),
(272,290,o),
(240,288,cs),
(201,284,o),
(169,278,o),
(142,269,cs),
(103,257,o),
(122,220,o),
(166,220,cs),
(289,220,l),
(166,220,l),
(91,220,ls),
(67,220,o),
(48,213,o),
(38,192,cs),
(31,176,o),
(28,159,o),
(28,140,cs),
(28,135,o),
(28,130,o),
(29,125,cs),
(29,115,o),
(46,110,o),
(74,110,cs),
(151,110,ls),
(184,110,o),
(194,144,o),
(194,144,cs),
(194,144,o),
(194,144,o),
(194,144,cs),
(194,176,o),
(228,191,o),
(256,195,cs),
(277,197,o),
(306,203,o),
(334,209,c),
(334,215,ls),
(334,218,o),
(318,220,o),
(289,220,cs),
(166,220,l)
);
},
{
closed = 1;
nodes = (
(183,330,l),
(195,330,ls),
(219,330,o),
(228,343,o),
(249,357,cs),
(258,362,o),
(271,366,o),
(290,366,cs),
(312,366,o),
(332,359,o),
(332,335,cs),
(332,334,o),
(332,333,o),
(332,333,cs),
(332,331,o),
(348,330,o),
(377,330,cs),
(444,330,ls),
(476,330,o),
(496,350,o),
(482,380,cs),
(476,394,o),
(468,407,o),
(457,419,cs),
(442,436,o),
(425,440,o),
(403,440,cs),
(285,440,l),
(166,440,ls),
(144,440,o),
(127,436,o),
(110,422,cs),
(96,409,o),
(84,394,o),
(76,378,cs),
(62,349,o),
(84,330,o),
(115,330,cs),
(183,330,l),
(115,330,l),
(65,330,l),
(65,329,o),
(65,327,o),
(65,326,cs),
(66,321,o),
(66,316,o),
(67,310,cs),
(70,300,o),
(86,295,o),
(113,295,cs),
(230,296,l),
(229,296,o),
(229,299,o),
(228,303,cs),
(227,306,o),
(226,311,o),
(227,316,cs),
(227,325,o),
(212,330,o),
(183,330,cs),
(115,330,l)
);
}
);
width = 548;
}
);
note = a;
unicode = 97;
},
{
glyphname = ae;
kernLeft = a;
kernRight = ae;
lastChange = "2024-07-19 12:08:54 +0000";
layers = (
{
anchors = (
{
name = top;
pos = (425,472);
}
);
background = {
shapes = (
{
closed = 1;
nodes = (
(329,-13,o),
(393,59,o),
(415,144,c),
(451,37,o),
(548,-13,o),
(654,-13,cs),
(752,-13,o),
(821,18,o),
(867,74,c),
(828,91,l),
(796,45,o),
(751,4,o),
(654,4,cs),
(549,4,o),
(452,84,o),
(450,237,c),
(866,237,l),
(868,250,o),
(869,263,o),
(869,276,cs),
(869,403,o),
(785,484,o),
(648,484,cs),
(556,484,o),
(475,444,o),
(432,370,c),
(416,430,o),
(372,482,o),
(250,482,cs),
(153,482,o),
(74,430,o),
(63,371,c),
(124,370,l),
(135,412,o),
(170,465,o),
(250,465,cs),
(342,465,o),
(384,420,o),
(391,357,cs),
(392,354,o),
(392,351,o),
(392,347,cs),
(392,284,o),
(318,260,o),
(231,250,cs),
(81,232,o),
(28,187,o),
(28,116,cs),
(28,40,o),
(99,-13,o),
(211,-13,cs)
);
},
{
closed = 1;
nodes = (
(103,2,o),
(75,74,o),
(75,122,cs),
(75,183,o),
(120,220,o),
(228,234,cs),
(306,244,o),
(369,265,o),
(399,302,c),
(399,188,ls),
(399,101,o),
(331,2,o),
(211,2,cs)
);
},
{
closed = 1;
nodes = (
(456,376,o),
(531,470,o),
(648,470,cs),
(767,470,o),
(823,389,o),
(823,308,cs),
(823,291,o),
(820,273,o),
(815,257,c),
(450,257,l)
);
}
);
};
layerId = "F5467FAD-1970-4982-B3D3-939C01050498";
shapes = (
{
ref = a;
},
{
alignment = -1;
pos = (372,0);
ref = e;
}
);
width = 906;
},
{
anchors = (
{
name = top;
pos = (440,472);
}
);
background = {
shapes = (
{
closed = 1;
nodes = (
(303,-12,o),
(359,32,o),
(381,94,c),
(424,25,o),
(504,-11,o),
(602,-11,cs),
(707,-11,o),
(804,33,o),
(837,121,c),
(721,175,l),
(704,124,o),
(670,90,o),
(611,90,cs),
(539,90,o),
(503,123,o),
(488,176,c),
(488,203,l),
(823,203,l),
(829,228,o),
(832,252,o),
(832,274,cs),
(832,402,o),
(740,482,o),
(592,482,cs),
(530,482,o),
(475,465,o),
(433,434,c),
(402,461,o),
(352,480,o),
(275,480,cs),
(161,480,o),
(66,416,o),
(66,339,cs),
(66,329,o),
(67,320,o),
(70,310,c),
(209,310,l),
(208,311,o),
(208,314,o),
(208,318,cs),
(208,338,o),
(217,384,o),
(284,384,cs),
(324,384,o),
(342,366,o),
(342,334,cs),
(342,297,o),
(302,286,o),
(239,280,cs),
(84,266,o),
(28,212,o),
(28,135,cs),
(28,53,o),
(85,-12,o),
(207,-12,cs)
);
},
{
closed = 1;
nodes = (
(190,76,o),
(168,109,o),
(168,140,cs),
(168,177,o),
(204,195,o),
(248,201,cs),
(282,205,o),
(315,213,o),
(344,225,c),
(344,216,ls),
(344,114,o),
(290,76,o),
(236,76,cs)
);
},
{
closed = 1;
nodes = (
(488,291,o),
(488,292,o),
(488,294,c),
(505,355,o),
(553,383,o),
(596,383,cs),
(653,383,o),
(688,355,o),
(688,307,cs),
(688,302,o),
(687,296,o),
(687,290,c),
(488,290,l)
);
}
);
};
layerId = "6DD95C5A-998B-41AB-BDFB-84A73C209871";
shapes = (
{
ref = a;
},
{
alignment = -1;
pos = (326,0);
ref = e;
}
);
width = 885;
},
{
anchors = (
{
name = top;
pos = (422,472);
}
);
layerId = "1FDC7037-1F88-4969-8535-0F79C1EF19DB";
shapes = (
{
alignment = -1;
ref = a;
},
{
alignment = -1;
pos = (379,0);
ref = e;
}
);
width = 910;
},
{
anchors = (
{
name = top;
pos = (444,472);
}
);
guides = (
{
pos = (0,-330);
},
{
pos = (0,-220);
},
{
pos = (0,-110);
},
{
},
{
pos = (0,110);
},
{
pos = (0,220);
},
{
pos = (0,330);
},
{
pos = (0,440);
},
{
pos = (0,550);
},
{
pos = (0,660);
},
{
pos = (0,770);
}
);
layerId = "3ED9E848-BE83-4CAC-8EFF-D71BD2B4F667";
shapes = (
{
alignment = -1;
ref = a;
},
{
alignment = -1;
pos = (315,0);
ref = e;
}
);
width = 880;
}
);
metricLeft = a;
metricRight = e;
note = ae;
unicode = 230;
},
{
glyphname = b;
kernLeft = b;
kernRight = b;
lastChange = "2024-07-19 12:10:25 +0000";
layers = (
{
layerId = "F5467FAD-1970-4982-B3D3-939C01050498";
shapes = (
{
closed = 1;
nodes = (
(90,0,l),
(90,111,l),
(74,238,l),
(90,375,l),
(90,660,l),
(47,660,l),
(48,0,l)
);
},
{
closed = 1;
nodes = (
(430,-11,o),
(521,94,o),
(521,238,cs),
(521,380,o),
(430,484,o),
(287,484,cs),
(141,484,o),
(74,349,o),
(74,238,cs),
(74,127,o),
(136,-11,o),
(287,-11,cs)
);
},
{
closed = 1;
nodes = (
(173,17,o),
(78,101,o),
(78,238,cs),
(78,372,o),
(174,456,o),
(288,456,cs),
(404,456,o),
(479,357,o),
(479,238,cs),
(479,116,o),
(402,17,o),
(287,17,cs)
);
}
);
width = 550;
},
{
background = {
shapes = (
{
closed = 1;
nodes = (
(521,-11,o),
(612,94,o),
(612,238,cs),
(612,380,o),
(521,484,o),
(377,484,cs),
(262,484,o),
(196,401,o),
(173,313,c),
(180,375,l),
(180,660,l),
(138,660,l),
(139,0,l),
(180,0,l),
(180,111,l),
(174,160,l),
(197,72,o),
(263,-11,o),
(377,-11,cs)
);
},
{
closed = 1;
nodes = (
(263,17,o),
(168,101,o),
(168,238,cs),
(168,372,o),
(263,456,o),
(377,456,cs),
(493,456,o),
(570,357,o),
(570,238,cs),
(570,116,o),
(492,17,o),
(377,17,cs)
);
}
);
};
layerId = "6DD95C5A-998B-41AB-BDFB-84A73C209871";
shapes = (
{
closed = 1;
nodes = (
(177,0,l),
(177,25,l),
(158,238,l),
(177,462,l),
(177,660,l),
(33,660,l),
(34,0,l)
);
},
{
closed = 1;
nodes = (
(484,-8,o),
(583,105,o),
(583,238,cs),
(583,372,o),
(484,483,o),
(334,483,cs),
(190,483,o),
(152,401,o),
(152,238,cs),
(152,74,o),
(181,-8,o),
(334,-8,cs)
);
},
{
closed = 1;
nodes = (
(223,96,o),
(170,144,o),
(170,238,cs),
(170,330,o),
(223,379,o),
(307,379,cs),
(386,379,o),
(431,322,o),
(431,238,cs),
(431,153,o),
(386,96,o),
(307,96,cs)
);
}
);
width = 602;
},
{
associatedMasterId = "F5467FAD-1970-4982-B3D3-939C01050498";
layerId = "26A69B60-DC4A-41CE-A0B3-B5D760A97FC8";
name = "24 juil. 23  14:17";
shapes = (
{
closed = 1;
nodes = (
(90,375,l),
(90,660,l),
(47,660,l),
(48,0,l),
(90,0,l),
(90,111,l),
(74,230,l)
);
},
{
closed = 1;
nodes = (
(173,17,o),
(77,101,o),
(77,238,cs),
(77,372,o),
(173,456,o),
(287,456,cs),
(403,456,o),
(479,357,o),
(479,238,cs),
(479,116,o),
(402,17,o),
(287,17,cs)
);
},
{
closed = 1;
nodes = (
(79,174,l),
(100,80,o),
(167,-11,o),
(287,-11,cs),
(430,-11,o),
(521,94,o),
(521,238,cs),
(521,380,o),
(430,484,o),
(287,484,cs),
(166,484,o),
(100,392,o),
(79,299,c)
);
}
);
width = 550;
},
{
layerId = "1FDC7037-1F88-4969-8535-0F79C1EF19DB";
shapes = (
{
closed = 1;
nodes = (
(75,0,l),
(75,125,l),
(61,238,l),
(75,361,l),
(75,660,l),
(49,660,l),
(50,0,l)
);
},
{
closed = 1;
nodes = (
(422,-11,o),
(512,92,o),
(512,238,cs),
(512,381,o),
(422,484,o),
(279,484,cs),
(133,484,o),
(61,340,o),
(61,238,cs),
(61,136,o),
(128,-11,o),
(279,-11,cs)
);
},
{
closed = 1;
nodes = (
(164,5,o),
(63,94,o),
(63,238,cs),
(63,378,o),
(166,469,o),
(285,469,cs),
(406,469,o),
(487,363,o),
(487,238,cs),
(487,110,o),
(405,5,o),
(283,5,cs)
);
}
);
width = 541;
},
{
guides = (
{
pos = (0,-330);
},
{
pos = (0,-220);
},
{
pos = (0,-110);
},
{
},
{
pos = (0,110);
},
{
pos = (0,220);
},
{
pos = (0,330);
},
{
pos = (0,440);
},
{
pos = (0,550);
},
{
pos = (0,660);
},
{
pos = (0,770);
}
);
layerId = "3ED9E848-BE83-4CAC-8EFF-D71BD2B4F667";
shapes = (
{
closed = 1;
nodes = (
(341,440,ls),
(377,440,o),
(345,483,o),
(345,483,cs),
(345,483,o),
(345,483,o),
(345,483,cs),
(318,483,o),
(294,481,o),
(275,475,cs),
(250,469,o),
(296,440,o),
(341,440,cs)
);
},
{
closed = 1;
nodes = (
(74,660,ls),
(45,660,o),
(30,645,o),
(30,615,cs),
(30,595,ls),
(30,565,o),
(46,550,o),
(75,550,cs),
(154,550,ls),
(183,550,o),
(199,566,o),
(199,595,cs),
(199,660,l)
);
},
{
closed = 1;
nodes = (
(443,330,ls),
(411,330,o),
(406,315,o),
(414,283,cs),
(417,269,o),
(419,254,o),
(419,238,cs),
(419,235,o),
(419,232,o),
(419,229,cs),
(419,223,o),
(435,220,o),
(464,220,cs),
(553,220,ls),
(581,220,o),
(598,238,o),
(598,238,cs),
(598,238,o),
(598,238,o),
(598,238,cs),
(598,257,o),
(596,275,o),
(592,293,cs),
(586,318,o),
(568,330,o),
(542,330,cs)
);
},
{
closed = 1;
nodes = (
(75,440,ls),
(46,440,o),
(30,424,o),
(30,395,cs),
(30,375,ls),
(30,346,o),
(46,330,o),
(75,330,cs),
(175,330,l),
(172,303,o),
(171,273,o),
(171,238,cs),
(171,232,o),
(171,226,o),
(171,220,c),
(75,220,ls),
(46,220,o),
(30,204,o),
(30,175,cs),
(30,155,ls),
(30,126,o),
(46,110,o),
(75,110,cs),
(179,110,l),
(190,49,o),
(216,15,o),
(270,0,cs),
(291,-5,o),
(315,-8,o),
(345,-8,cs),
(369,-8,o),
(391,-5,o),
(412,0,cs),
(452,10,o),
(488,29,o),
(517,54,cs),
(546,81,o),
(529,110,o),
(490,110,cs),
(190,110,l),
(181,220,l),
(181,220,ls),
(188,220,o),
(192,238,o),
(192,238,cs),
(192,238,o),
(192,238,o),
(192,238,cs),
(192,257,o),
(194,273,o),
(199,288,cs),
(208,316,o),
(209,330,o),
(186,330,cs),
(186,330,l),
(191,393,ls),
(193,423,o),
(178,440,o),
(148,440,cs)
);
},
{
closed = 1;
nodes = (
(249,440,ls),
(225,440,o),
(207,433,o),
(196,412,cs),
(186,390,o),
(179,363,o),
(175,330,c),
(75,330,ls),
(46,330,o),
(30,314,o),
(30,285,cs),
(30,265,ls),
(30,236,o),
(46,220,o),
(75,220,cs),
(171,220,l),
(172,176,o),
(174,140,o),
(179,110,c),
(75,110,ls),
(46,110,o),
(30,94,o),
(30,65,cs),
(30,45,ls),
(30,16,o),
(46,0,o),
(75,0,cs),
(154,0,ls),
(183,0,o),
(199,1,o),
(199,3,cs),
(199,3,l),
(190,110,l),
(527,110,ls),
(552,110,o),
(569,119,o),
(579,143,cs),
(583,152,o),
(586,161,o),
(589,171,cs),
(597,202,o),
(579,220,o),
(548,220,cs),
(459,220,ls),
(432,220,o),
(419,206,o),
(410,180,cs),
(395,139,o),
(361,116,o),
(312,116,cs),
(257,116,o),
(218,137,o),
(202,180,cs),
(192,206,o),
(189,220,o),
(181,220,cs),
(181,220,l),
(179,238,l),
(186,330,l),
(193,330,ls),
(215,330,o),
(229,338,o),
(250,348,cs),
(267,356,o),
(288,360,o),
(312,360,cs),
(332,360,o),
(349,356,o),
(364,349,cs),
(384,338,o),
(399,330,o),
(421,330,cs),
(519,330,ls),
(554,330,o),
(572,355,o),
(551,384,cs),
(541,397,o),
(529,410,o),
(516,421,cs),
(500,436,o),
(483,440,o),
(461,440,cs)
);
},
{
closed = 1;
nodes = (
(75,550,ls),
(46,550,o),
(30,534,o),
(30,505,cs),
(30,485,ls),
(30,456,o),
(46,440,o),
(75,440,cs),
(152,440,ls),
(180,440,o),
(196,454,o),
(199,483,cs),
(199,484,l),
(199,505,ls),
(199,534,o),
(183,550,o),
(154,550,cs)
);
}
);
width = 614;
}
);
note = b;
unicode = 98;
},
{
glyphname = c;
kernLeft = a;
kernRight = c;
lastChange = "2024-07-19 12:08:54 +0000";
layers = (
{
anchors = (
{
name = bottom;
pos = (285,0);
},
{
name = top;
pos = (290,472);
}
);
layerId = "F5467FAD-1970-4982-B3D3-939C01050498";
shapes = (
{
closed = 1;
nodes = (
(389,-13,o),
(462,29,o),
(499,106,c),
(461,121,l),
(433,64,o),
(382,13,o),
(283,13,cs),
(176,13,o),
(78,86,o),
(78,230,cs),
(78,370,o),
(157,457,o),
(290,457,cs),
(370,457,o),
(422,424,o),
(458,365,c),
(494,385,l),
(459,444,o),
(390,484,o),
(290,484,cs),
(138,484,o),
(28,396,o),
(28,230,cs),
(28,68,o),
(146,-13,o),
(283,-13,cs)
);
}
);
width = 527;
},
{
anchors = (
{
name = bottom;
pos = (294,0);
},
{
name = top;
pos = (300,472);
}
);
layerId = "6DD95C5A-998B-41AB-BDFB-84A73C209871";
shapes = (
{
closed = 1;
nodes = (
(420,-11,o),
(505,37,o),
(548,141,c),
(422,191,l),
(404,128,o),
(372,89,o),
(294,89,cs),
(209,89,o),
(164,148,o),
(164,231,cs),
(164,330,o),
(224,383,o),
(300,383,cs),
(363,383,o),
(407,346,o),
(407,286,c),
(533,344,l),
(506,426,o),
(422,482,o),
(300,482,cs),
(145,482,o),
(28,389,o),
(28,231,cs),
(28,74,o),
(156,-11,o),
(294,-11,cs)
);
}
);
width = 565;
},
{
anchors = (
{
name = bottom;
pos = (283,0);
},
{
name = top;
pos = (289,472);
}
);
layerId = "1FDC7037-1F88-4969-8535-0F79C1EF19DB";
shapes = (
{
closed = 1;
nodes = (
(385,-13,o),
(455,28,o),
(491,100,c),
(468,109,l),
(438,54,o),
(384,1,o),
(281,1,cs),
(171,1,o),
(64,75,o),
(64,230,cs),
(64,376,o),
(147,470,o),
(289,470,cs),
(371,470,o),
(425,437,o),
(467,377,c),
(488,391,l),
(452,447,o),
(386,484,o),
(289,484,cs),
(137,484,o),
(28,397,o),
(28,230,cs),
(28,67,o),
(144,-13,o),
(281,-13,cs)
);
}
);
width = 521;
},
{
anchors = (
{
name = bottom;
pos = (297,0);
},
{
name = top;
pos = (303,472);
}
);
guides = (
{
pos = (0,-330);
},
{
pos = (0,-220);
},
{
pos = (0,-110);
},
{
},
{
pos = (0,110);
},
{
pos = (0,220);
},
{
pos = (0,330);
},
{
pos = (0,440);
},
{
pos = (0,550);
},
{
pos = (0,660);
},
{
pos = (0,770);
}
);
layerId = "3ED9E848-BE83-4CAC-8EFF-D71BD2B4F667";
shapes = (
{
closed = 1;
nodes = (
(302,440,ls),
(337,440,o),
(303,482,o),
(303,482,cs),
(303,482,o),
(303,482,o),
(303,482,cs),
(273,482,o),
(245,479,o),
(218,472,cs),
(203,468,o),
(272,440,o),
(302,440,cs)
);
},
{
closed = 1;
nodes = (
(303,0,ls),
(315,0,o),
(297,-11,o),
(297,-11,cs),
(297,-11,o),
(297,-11,o),
(297,-11,cs),
(314,-11,o),
(330,-10,o),
(345,-8,cs),
(336,-9,o),
(285,0,o),
(303,0,cs)
);
},
{
closed = 1;
nodes = (
(504,110,ls),
(529,110,o),
(551,130,o),
(551,130,cs),
(551,130,o),
(551,130,o),
(551,130,cs),
(557,143,o),
(544,156,o),
(516,167,cs),
(455,191,ls),
(428,202,o),
(410,192,o),
(397,164,cs),
(383,135,o),
(362,116,o),
(325,110,c)
);
},
{
closed = 1;
nodes = (
(325,110,l),
(316,109,o),
(307,108,o),
(297,108,cs),
(288,108,o),
(280,109,o),
(272,110,c),
(133,110,ls),
(94,110,o),
(77,80,o),
(106,55,cs),
(129,35,o),
(156,19,o),
(185,8,cs),
(205,1,o),
(220,0,o),
(240,0,cs),
(365,0,ls),
(385,0,o),
(400,1,o),
(420,8,cs),
(448,19,o),
(473,34,o),
(495,54,cs),
(524,81,o),
(506,110,o),
(468,110,cs)
);
},
{
closed = 1;
nodes = (
(76,220,ls),
(46,220,o),
(27,202,o),
(35,172,cs),
(37,162,o),
(40,152,o),
(44,143,cs),
(53,119,o),
(71,110,o),
(96,110,cs),
(187,110,ls),
(228,110,o),
(225,120,o),
(203,155,cs),
(199,162,o),
(195,170,o),
(192,179,cs),
(184,206,o),
(171,220,o),
(144,220,cs)
);
},
{
closed = 1;
nodes = (
(85,330,ls),
(59,330,o),
(40,319,o),
(34,293,cs),
(30,274,o),
(28,253,o),
(28,231,cs),
(28,229,o),
(28,227,o),
(28,226,cs),
(28,222,o),
(44,220,o),
(73,220,cs),
(185,220,l),
(185,224,o),
(185,227,o),
(185,231,cs),
(185,251,o),
(188,269,o),
(193,284,cs),
(202,315,o),
(197,330,o),
(164,330,cs)
);
},
{
closed = 1;
nodes = (
(438,330,ls),
(404,330,o),
(394,300,o),
(394,300,cs),
(394,300,o),
(394,300,o),
(394,300,cs),
(399,279,o),
(413,274,o),
(441,287,cs),
(464,298,ls),
(488,309,o),
(484,330,o),
(457,330,cs)
);
},
{
closed = 1;
nodes = (
(170,440,ls),
(148,440,o),
(132,436,o),
(115,422,cs),
(101,411,o),
(88,398,o),
(77,384,cs),
(55,355,o),
(73,330,o),
(109,330,cs),
(187,330,ls),
(209,330,o),
(224,338,o),
(244,350,cs),
(261,360,o),
(282,365,o),
(303,365,cs),
(323,365,o),
(342,360,o),
(357,351,cs),
(377,339,o),
(391,330,o),
(414,330,cs),
(533,330,l),
(538,332,ls),
(541,333,o),
(540,349,o),
(525,375,cs),
(515,392,o),
(503,407,o),
(487,421,cs),
(471,436,o),
(454,440,o),
(432,440,cs)
);
}
);
width = 574;
}
);
note = c;
unicode = 99;
},
{
glyphname = d;
kernLeft = a;
kernRight = d;
lastChange = "2024-07-19 21:12:46 +0000";
layers = (
{
anchors = (
{
name = bottom;
pos = (302,0);
},
{
name = top;
pos = (502,472);
}
);
layerId = "F5467FAD-1970-4982-B3D3-939C01050498";
shapes = (
{
closed = 1;
nodes = (
(503,660,l),
(460,660,l),
(460,375,l),
(475,238,l),
(460,111,l),
(460,0,l),
(503,0,l)
);
},
{
closed = 1;
nodes = (
(414,-11,o),
(476,127,o),
(476,238,cs),
(476,349,o),
(409,484,o),
(263,484,cs),
(120,484,o),
(28,380,o),
(28,238,cs),
(28,94,o),
(120,-11,o),
(263,-11,cs)
);
},
{
closed = 1;
nodes = (
(148,17,o),
(71,116,o),
(71,238,cs),
(71,357,o),
(146,456,o),
(262,456,cs),
(376,456,o),
(472,372,o),
(472,238,cs),
(472,101,o),
(377,17,o),
(263,17,cs)
);
}
);
width = 550;
},
{
anchors = (
{
name = bottom;
pos = (333,0);
},
{
name = top;
pos = (568,472);
}
);
layerId = "6DD95C5A-998B-41AB-BDFB-84A73C209871";
shapes = (
{
closed = 1;
nodes = (
(568,660,l),
(424,660,l),
(424,462,l),
(443,238,l),
(424,25,l),
(424,0,l),
(568,0,l)
);
},
{
closed = 1;
nodes = (
(421,-8,o),
(450,74,o),
(450,238,cs),
(450,401,o),
(412,483,o),
(268,483,cs),
(118,483,o),
(19,372,o),
(19,238,cs),
(19,105,o),
(118,-8,o),
(268,-8,cs)
);
},
{
closed = 1;
nodes = (
(219,96,o),
(173,153,o),
(173,238,cs),
(173,322,o),
(218,379,o),
(296,379,cs),
(384,379,o),
(434,325,o),
(434,238,cs),
(434,144,o),
(380,96,o),
(296,96,cs)
);
}
);
width = 602;
},
{
anchors = (
{
name = bottom;
pos = (333,0);
},
{
name = top;
pos = (680,472);
}
);
associatedMasterId = "6DD95C5A-998B-41AB-BDFB-84A73C209871";
layerId = "1D074922-2F39-4A43-B83C-D4901F087130";
name = "24 juil. 23  14:32";
shapes = (
{
closed = 1;
nodes = (
(341,-8,o),
(389,8,o),
(424,32,c),
(424,17,l),
(424,0,l),
(568,0,l),
(569,660,l),
(424,660,l),
(424,465,l),
(424,440,l),
(389,467,o),
(340,483,o),
(277,483,cs),
(127,483,o),
(28,372,o),
(28,238,cs),
(28,105,o),
(126,-8,o),
(278,-8,cs)
);
},
{
closed = 1;
nodes = (
(219,96,o),
(173,153,o),
(173,238,cs),
(173,322,o),
(218,379,o),
(296,379,cs),
(384,379,o),
(434,325,o),
(434,238,cs),
(434,144,o),
(380,96,o),
(296,96,cs)
);
}
);
width = 602;
},
{
anchors = (
{
name = bottom;
pos = (302,0);
},
{
name = top;
pos = (632,472);
}
);
associatedMasterId = "F5467FAD-1970-4982-B3D3-939C01050498";
layerId = "0FE110F9-B3B8-41FB-9267-A7A4874DD26C";
name = "24 juil. 23  14:32";
shapes = (
{
closed = 1;
nodes = (
(381,-11,o),
(447,76,o),
(469,169,c),
(463,111,l),
(463,0,l),
(505,0,l),
(505,660,l),
(463,660,l),
(463,375,l),
(469,306,l),
(447,397,o),
(381,484,o),
(263,484,cs),
(120,484,o),
(28,380,o),
(28,238,cs),
(28,94,o),
(120,-11,o),
(263,-11,cs)
);
},
{
closed = 1;
nodes = (
(148,17,o),
(71,116,o),
(71,238,cs),
(71,357,o),
(147,455,o),
(263,455,cs),
(377,455,o),
(472,372,o),
(472,238,cs),
(472,101,o),
(377,17,o),
(263,17,cs)
);
}
);
width = 553;
},
{
anchors = (
{
name = bottom;
pos = (297,0);
},
{
name = top;
pos = (492,472);
}
);
layerId = "1FDC7037-1F88-4969-8535-0F79C1EF19DB";
shapes = (
{
closed = 1;
nodes = (
(492,660,l),
(466,660,l),
(466,361,l),
(480,238,l),
(466,125,l),
(466,0,l),
(492,0,l)
);
},
{
closed = 1;
nodes = (
(413,-11,o),
(480,136,o),
(480,238,cs),
(480,340,o),
(409,484,o),
(262,484,cs),
(120,484,o),
(30,381,o),
(30,238,cs),
(30,92,o),
(120,-11,o),
(262,-11,cs)
);
},
{
closed = 1;
nodes = (
(137,5,o),
(55,110,o),
(55,238,cs),
(55,363,o),
(135,469,o),
(256,469,cs),
(375,469,o),
(477,379,o),
(477,238,cs),
(477,94,o),
(377,5,o),
(257,5,cs)
);
}
);
width = 541;
},
{
anchors = (
{
name = bottom;
pos = (340,0);
},
{
name = top;
pos = (585,472);
}
);
guides = (
{
pos = (0,-330);
},
{
pos = (0,-220);
},
{
pos = (0,-110);
},
{
},
{
pos = (0,110);
},
{
pos = (0,220);
},
{
pos = (0,330);
},
{
pos = (0,440);
},
{
pos = (0,550);
},
{
pos = (0,660);
},
{
pos = (0,770);
}
);
layerId = "3ED9E848-BE83-4CAC-8EFF-D71BD2B4F667";
shapes = (
{
closed = 1;
nodes = (
(461,660,ls),
(432,660,o),
(416,644,o),
(416,615,cs),
(416,595,ls),
(416,566,o),
(432,550,o),
(461,550,cs),
(540,550,ls),
(569,550,o),
(585,566,o),
(585,595,cs),
(585,660,l)
);
},
{
closed = 1;
nodes = (
(274,0,ls),
(286,0,o),
(269,-8,o),
(269,-8,cs),
(269,-8,o),
(269,-8,o),
(269,-8,cs),
(283,-8,o),
(295,-7,o),
(307,-6,cs),
(298,-7,o),
(257,0,o),
(274,0,cs)
);
},
{
closed = 1;
nodes = (
(73,330,ls),
(47,330,o),
(29,318,o),
(23,293,cs),
(19,275,o),
(17,257,o),
(17,238,cs),
(17,235,o),
(17,232,o),
(17,229,cs),
(17,223,o),
(34,220,o),
(62,220,cs),
(153,220,ls),
(182,220,o),
(198,238,o),
(198,238,cs),
(198,238,o),
(198,238,o),
(198,238,cs),
(198,256,o),
(200,273,o),
(204,287,cs),
(213,316,o),
(206,330,o),
(174,330,cs)
);
},
{
closed = 1;
nodes = (
(274,440,ls),
(319,440,o),
(331,481,o),
(285,483,cs),
(280,483,o),
(275,483,o),
(269,483,cs),
(242,483,o),
(216,479,o),
(193,472,cs),
(175,467,o),
(229,440,o),
(262,440,cs)
);
},
{
closed = 1;
nodes = (
(154,440,ls),
(132,440,o),
(115,436,o),
(99,422,cs),
(86,410,o),
(74,398,o),
(64,384,cs),
(43,355,o),
(61,330,o),
(96,330,cs),
(196,330,ls),
(218,330,o),
(233,338,o),
(253,349,cs),
(268,356,o),
(285,360,o),
(305,360,cs),
(329,360,o),
(350,356,o),
(367,348,cs),
(387,338,o),
(401,330,o),
(423,330,cs),
(429,330,l),
(436,238,l),
(434,220,l),
(434,220,ls),
(427,220,o),
(424,206,o),
(414,180,cs),
(398,137,o),
(360,116,o),
(305,116,cs),
(256,116,o),
(222,139,o),
(207,180,cs),
(198,206,o),
(185,220,o),
(158,220,cs),
(67,220,ls),
(36,220,o),
(18,202,o),
(26,172,cs),
(29,162,o),
(32,152,o),
(36,143,cs),
(45,119,o),
(63,110,o),
(88,110,cs),
(425,110,l),
(416,3,l),
(416,2,ls),
(416,1,o),
(432,0,o),
(461,0,cs),
(540,0,ls),
(569,0,o),
(585,16,o),
(585,45,cs),
(585,65,ls),
(585,94,o),
(569,110,o),
(540,110,cs),
(435,110,l),
(440,140,o),
(442,176,o),
(443,220,c),
(540,220,ls),
(569,220,o),
(585,236,o),
(585,265,cs),
(585,285,ls),
(585,314,o),
(569,330,o),
(540,330,cs),
(439,330,l),
(436,363,o),
(429,390,o),
(419,412,cs),
(408,433,o),
(390,440,o),
(366,440,cs)
);
},
{
closed = 1;
nodes = (
(467,440,ls),
(437,440,o),
(422,423,o),
(424,393,cs),
(429,330,l),
(429,330,ls),
(407,330,o),
(410,315,o),
(419,283,cs),
(422,270,o),
(424,255,o),
(424,238,cs),
(424,235,o),
(424,232,o),
(424,229,cs),
(424,223,o),
(427,220,o),
(434,220,cs),
(434,220,l),
(425,110,l),
(125,110,ls),
(86,110,o),
(69,81,o),
(99,54,cs),
(121,35,o),
(147,19,o),
(176,8,cs),
(196,1,o),
(211,0,o),
(231,0,cs),
(316,0,ls),
(336,0,o),
(352,1,o),
(370,10,cs),
(407,28,o),
(426,60,o),
(435,110,c),
(540,110,ls),
(569,110,o),
(585,126,o),
(585,155,cs),
(585,175,ls),
(585,204,o),
(569,220,o),
(540,220,cs),
(443,220,l),
(443,226,o),
(443,232,o),
(443,238,cs),
(443,273,o),
(442,303,o),
(439,330,c),
(540,330,ls),
(569,330,o),
(585,346,o),
(585,375,cs),
(585,395,ls),
(585,424,o),
(569,440,o),
(540,440,cs)
);
},
{
closed = 1;
nodes = (
(461,550,ls),
(432,550,o),
(416,534,o),
(416,505,cs),
(416,484,l),
(416,483,ls),
(419,454,o),
(435,440,o),
(463,440,cs),
(540,440,ls),
(569,440,o),
(585,456,o),
(585,485,cs),
(585,505,ls),
(585,534,o),
(569,550,o),
(540,550,cs)
);
}
);
width = 614;
}
);
note = d;
unicode = 100;
},
{
glyphname = dcroat;
lastChange = "2024-07-20 00:16:14 +0000";
layers = (
{
layerId = "F5467FAD-1970-4982-B3D3-939C01050498";
shapes = (
{
closed = 1;
nodes = (
(553,604,l),
(383,604,l),
(383,564,l),
(553,564,l)
);
},
{
ref = d;
}
);
width = 553;
},
{
layerId = "6DD95C5A-998B-41AB-BDFB-84A73C209871";
shapes = (
{
closed = 1;
nodes = (
(620,597,l),
(306,597,l),
(306,507,l),
(620,507,l)
);
},
{
ref = d;
}
);
width = 602;
},
{
layerId = "1FDC7037-1F88-4969-8535-0F79C1EF19DB";
shapes = (
{
closed = 1;
nodes = (
(541,604,l),
(395,604,l),
(395,573,l),
(541,573,l)
);
},
{
ref = d;
}
);
width = 545;
},
{
guides = (
{
pos = (0,-330);
},
{
pos = (0,-220);
},
{
pos = (0,-110);
},
{
},
{
pos = (0,110);
},
{
pos = (0,220);
},
{
pos = (0,330);
},
{
pos = (0,440);
},
{
pos = (0,550);
},
{
pos = (0,660);
},
{
pos = (0,770);
}
);
layerId = "3ED9E848-BE83-4CAC-8EFF-D71BD2B4F667";
shapes = (
{
closed = 1;
nodes = (
(288,538,ls),
(288,509,o),
(304,493,o),
(333,493,cs),
(592,493,ls),
(621,493,o),
(637,509,o),
(637,538,cs),
(637,550,ls),
(637,579,o),
(621,595,o),
(592,595,cs),
(333,595,ls),
(304,595,o),
(288,579,o),
(288,550,cs),
(288,550,l)
);
},
{
ref = d;
}
);
width = 614;
}
);
unicode = 273;
},
{
glyphname = eth;
lastChange = "2024-07-19 12:08:54 +0000";
layers = (
{
layerId = "F5467FAD-1970-4982-B3D3-939C01050498";
shapes = (
{
closed = 1;
nodes = (
(439,-32,o),
(521,121,o),
(521,294,cs),
(521,481,o),
(421,625,o),
(253,703,c),
(308,751,l),
(290,769,l),
(227,714,l),
(180,733,o),
(129,746,o),
(74,754,c),
(74,720,l),
(118,712,o),
(159,701,o),
(196,687,c),
(141,639,l),
(159,621,l),
(223,676,l),
(384,605,o),
(467,478,o),
(483,327,c),
(443,399,o),
(369,463,o),
(271,463,cs),
(137,463,o),
(36,367,o),
(36,223,cs),
(36,94,o),
(116,-32,o),
(268,-32,cs)
);
},
{
closed = 1;
nodes = (
(160,-4,o),
(80,98,o),
(80,227,cs),
(80,343,o),
(156,436,o),
(273,436,cs),
(385,436,o),
(481,351,o),
(481,208,cs),
(481,88,o),
(395,-4,o),
(273,-4,cs)
);
}
);
width = 540;
},
{
layerId = "6DD95C5A-998B-41AB-BDFB-84A73C209871";
shapes = (
{
closed = 1;
nodes = (
(454,-4,o),
(534,152,o),
(534,307,cs),
(534,458,o),
(455,583,o),
(325,658,c),
(372,698,l),
(312,768,l),
(235,701,l),
(180,720,o),
(120,733,o),
(54,736,c),
(54,627,l),
(82,623,o),
(108,620,o),
(134,613,c),
(97,581,l),
(157,512,l),
(231,576,l),
(278,551,o),
(316,518,o),
(342,478,c),
(320,485,o),
(297,488,o),
(272,488,cs),
(137,488,o),
(24,390,o),
(24,248,cs),
(24,119,o),
(119,-4,o),
(270,-4,cs)
);
},
{
closed = 1;
nodes = (
(216,102,o),
(169,161,o),
(169,252,cs),
(169,331,o),
(213,384,o),
(274,384,cs),
(321,384,o),
(391,348,o),
(391,237,cs),
(391,184,o),
(365,108,o),
(273,102,cs)
);
}
);
width = 540;
},
{
layerId = "1FDC7037-1F88-4969-8535-0F79C1EF19DB";
shapes = (
{
closed = 1;
nodes = (
(438,-37,o),
(520,116,o),
(520,292,cs),
(520,485,o),
(415,633,o),
(241,710,c),
(298,759,l),
(287,769,l),
(226,716,l),
(180,735,o),
(130,749,o),
(76,757,c),
(76,736,l),
(124,726,o),
(167,714,o),
(207,699,c),
(149,649,l),
(159,639,l),
(221,692,l),
(401,614,o),
(490,472,o),
(505,303,c),
(463,385,o),
(380,459,o),
(271,459,cs),
(137,459,o),
(38,363,o),
(38,219,cs),
(38,91,o),
(116,-37,o),
(268,-37,cs)
);
},
{
closed = 1;
nodes = (
(152,-21,o),
(66,88,o),
(66,223,cs),
(66,345,o),
(146,444,o),
(273,444,cs),
(395,444,o),
(495,351,o),
(495,204,cs),
(495,73,o),
(400,-22,o),
(273,-21,cs)
);
}
);
width = 540;
},
{
guides = (
{
pos = (0,-330);
},
{
pos = (0,-220);
},
{
pos = (0,-110);
},
{
},
{
pos = (0,110);
},
{
pos = (0,220);
},
{
pos = (0,330);
},
{
pos = (0,440);
},
{
pos = (0,550);
},
{
pos = (0,660);
},
{
pos = (0,770);
}
);
layerId = "3ED9E848-BE83-4CAC-8EFF-D71BD2B4F667";
shapes = (
{
closed = 1;
nodes = (
(326,660,ls),
(348,660,o),
(362,663,o),
(373,673,cs),
(373,673,ls),
(382,681,o),
(376,697,o),
(358,719,cs),
(347,733,ls),
(328,755,o),
(306,758,o),
(284,738,cs),
(237,697,l),
(193,712,o),
(146,723,o),
(96,728,cs),
(66,732,o),
(49,719,o),
(49,696,cs),
(49,696,ls),
(49,673,o),
(65,660,o),
(94,660,cs)
);
},
{
closed = 1;
nodes = (
(142,110,ls),
(102,110,o),
(86,79,o),
(117,54,cs),
(158,22,o),
(210,3,o),
(270,3,cs),
(336,3,o),
(389,23,o),
(429,54,cs),
(460,79,o),
(444,110,o),
(404,110,cs)
);
},
{
closed = 1;
nodes = (
(407,220,ls),
(381,220,o),
(369,207,o),
(357,183,cs),
(344,156,o),
(319,133,o),
(273,128,cs),
(245,128,o),
(220,147,o),
(204,182,cs),
(193,207,o),
(180,220,o),
(154,220,cs),
(74,220,ls),
(43,220,o),
(25,201,o),
(35,170,cs),
(38,160,o),
(42,150,o),
(47,141,cs),
(58,118,o),
(76,110,o),
(100,110,cs),
(446,110,ls),
(470,110,o),
(488,119,o),
(499,141,cs),
(503,150,o),
(508,159,o),
(512,169,cs),
(523,200,o),
(506,220,o),
(474,220,cs)
);
},
{
closed = 1;
nodes = (
(73,330,ls),
(47,330,o),
(28,318,o),
(24,291,cs),
(22,280,o),
(21,268,o),
(21,255,cs),
(21,249,o),
(21,243,o),
(22,237,cs),
(22,226,o),
(39,220,o),
(67,220,cs),
(146,220,ls),
(176,220,o),
(190,257,o),
(190,257,cs),
(190,257,o),
(190,257,o),
(190,257,cs),
(190,271,o),
(192,283,o),
(194,295,cs),
(200,318,o),
(189,330,o),
(157,330,cs)
);
},
{
closed = 1;
nodes = (
(400,330,ls),
(368,330,o),
(361,313,o),
(367,282,cs),
(369,270,o),
(370,258,o),
(370,243,cs),
(370,239,o),
(370,235,o),
(370,231,cs),
(369,224,o),
(385,220,o),
(415,220,cs),
(486,220,ls),
(513,220,o),
(531,233,o),
(534,261,cs),
(536,277,o),
(537,294,o),
(537,310,cs),
(537,314,o),
(537,317,o),
(537,320,cs),
(537,327,o),
(521,330,o),
(492,330,cs)
);
},
{
closed = 1;
nodes = (
(141,440,ls),
(119,440,o),
(102,435,o),
(86,419,cs),
(76,408,o),
(66,396,o),
(58,383,cs),
(39,353,o),
(58,330,o),
(92,330,cs),
(174,330,ls),
(197,330,o),
(211,340,o),
(230,356,cs),
(243,366,o),
(258,371,o),
(274,371,cs),
(287,371,o),
(306,367,o),
(324,354,cs),
(344,340,o),
(358,330,o),
(381,330,cs),
(489,330,ls),
(519,330,o),
(537,347,o),
(532,377,cs),
(530,386,o),
(528,394,o),
(526,403,cs),
(520,428,o),
(502,440,o),
(476,440,cs)
);
},
{
closed = 1;
nodes = (
(166,550,ls),
(132,550,o),
(114,535,o),
(129,518,cs),
(129,518,ls),
(147,497,o),
(168,495,o),
(190,515,cs),
(194,518,ls),
(212,534,o),
(198,550,o),
(166,550,cs)
);
},
{
closed = 1;
nodes = (
(359,550,ls),
(314,550,o),
(307,516,o),
(307,516,cs),
(307,516,o),
(307,516,o),
(307,516,c),
(290,506,o),
(279,495,o),
(272,495,cs),
(242,495,o),
(213,490,o),
(186,481,cs),
(158,472,o),
(196,440,o),
(241,440,cs),
(457,440,ls),
(491,440,o),
(508,462,o),
(492,493,cs),
(486,503,o),
(480,513,o),
(474,522,cs),
(461,543,o),
(444,550,o),
(420,550,cs)
);
},
{
closed = 1;
nodes = (
(94,660,ls),
(65,660,o),
(49,650,o),
(49,632,cs),
(49,632,ls),
(49,614,o),
(64,604,o),
(91,599,cs),
(101,598,o),
(110,596,o),
(119,594,c),
(119,594,ls),
(98,576,o),
(89,564,o),
(94,559,cs),
(94,559,ls),
(99,553,o),
(111,550,o),
(134,550,cs),
(231,550,l),
(233,552,l),
(234,551,o),
(234,551,o),
(235,551,cs),
(235,551,o),
(245,550,o),
(267,550,cs),
(376,550,ls),
(416,550,o),
(431,580,o),
(400,606,cs),
(383,621,o),
(364,635,o),
(344,648,c),
(351,654,ls),
(354,657,o),
(314,660,o),
(273,660,cs)
);
}
);
width = 540;
}
);
note = eth;
unicode = 240;
},
{
glyphname = e;
kernLeft = a;
kernRight = ae;
lastChange = "2024-07-19 12:08:54 +0000";
layers = (
{
anchors = (
{
name = bottom;
pos = (285,0);
},
{
name = ogonek;
pos = (307,0);
},
{
name = top;
pos = (276,472);
}
);
layerId = "F5467FAD-1970-4982-B3D3-939C01050498";
shapes = (
{
closed = 1;
nodes = (
(74,237,l),
(494,237,l),
(496,250,o),
(497,263,o),
(497,276,cs),
(497,403,o),
(413,484,o),
(276,484,cs),
(141,484,o),
(28,396,o),
(28,241,cs),
(28,68,o),
(147,-13,o),
(283,-13,cs),
(380,-13,o),
(450,18,o),
(495,74,c),
(456,101,l),
(424,55,o),
(379,13,o),
(283,13,cs),
(175,13,o),
(76,88,o),
(78,245,cs),
(80,371,o),
(155,460,o),
(276,460,cs),
(395,460,o),
(452,389,o),
(452,308,cs),
(452,291,o),
(450,279,o),
(446,263,c),
(74,263,l)
);
}
);
width = 535;
},
{
anchors = (
{
name = bottom;
pos = (285,0);
},
{
name = ogonek;
pos = (307,0);
},
{
name = top;
pos = (280,472);
}
);
layerId = "6DD95C5A-998B-41AB-BDFB-84A73C209871";
shapes = (
{
closed = 1;
nodes = (
(152,203,l),
(507,203,l),
(513,228,o),
(516,252,o),
(516,274,cs),
(516,402,o),
(424,482,o),
(276,482,cs),
(130,482,o),
(28,389,o),
(28,240,cs),
(28,74,o),
(134,-11,o),
(286,-11,cs),
(391,-11,o),
(488,33,o),
(521,121,c),
(405,175,l),
(389,124,o),
(355,88,o),
(295,88,cs),
(205,88,o),
(166,141,o),
(166,240,cs),
(166,344,o),
(224,383,o),
(280,383,cs),
(338,383,o),
(372,355,o),
(372,307,cs),
(372,302,o),
(372,296,o),
(371,290,c),
(157,290,l)
);
}
);
width = 559;
},
{
anchors = (
{
name = bottom;
pos = (285,0);
},
{
name = ogonek;
pos = (307,0);
},
{
name = top;
pos = (274,472);
}
);
layerId = "1FDC7037-1F88-4969-8535-0F79C1EF19DB";
shapes = (
{
closed = 1;
nodes = (
(54,242,l),
(492,242,l),
(493,254,o),
(493,265,o),
(493,276,cs),
(493,402,o),
(410,484,o),
(275,484,cs),
(142,484,o),
(28,397,o),
(28,241,cs),
(28,67,o),
(149,-13,o),
(283,-13,cs),
(378,-13,o),
(443,15,o),
(491,66,c),
(465,89,l),
(430,43,o),
(383,1,o),
(281,1,cs),
(171,1,o),
(57,79,o),
(57,246,cs),
(57,374,o),
(143,472,o),
(275,472,cs),
(405,472,o),
(468,394,o),
(468,309,cs),
(468,290,o),
(466,276,o),
(462,258,c),
(53,258,l)
);
}
);
width = 531;
},
{
anchors = (
{
name = bottom;
pos = (285,0);
},
{
name = ogonek;
pos = (307,0);
},
{
name = top;
pos = (281,472);
}
);
guides = (
{
pos = (0,-330);
},
{
pos = (0,-220);
},
{
pos = (0,-110);
},
{
},
{
pos = (0,110);
},
{
pos = (0,220);
},
{
pos = (0,330);
},
{
pos = (0,440);
},
{
pos = (0,550);
},
{
pos = (0,660);
},
{
pos = (0,770);
}
);
layerId = "3ED9E848-BE83-4CAC-8EFF-D71BD2B4F667";
shapes = (
{
closed = 1;
nodes = (
(281,440,ls),
(315,440,o),
(276,482,o),
(276,482,cs),
(276,482,o),
(276,482,o),
(276,482,cs),
(248,482,o),
(221,479,o),
(197,472,cs),
(180,468,o),
(246,440,o),
(281,440,cs)
);
},
{
closed = 1;
nodes = (
(286,0,ls),
(300,0,o),
(287,-11,o),
(287,-11,cs),
(287,-11,o),
(287,-11,o),
(287,-11,cs),
(302,-11,o),
(316,-10,o),
(331,-8,cs),
(324,-9,o),
(273,0,o),
(286,0,cs)
);
},
{
closed = 1;
nodes = (
(519,110,l),
(521,114,o),
(523,117,o),
(524,121,cs),
(527,128,o),
(514,138,o),
(488,150,cs),
(435,174,ls),
(408,186,o),
(391,177,o),
(377,151,cs),
(375,148,o),
(373,145,o),
(371,142,cs),
(352,118,o),
(359,110,o),
(397,110,cs)
);
},
{
closed = 1;
nodes = (
(354,110,ls),
(334,110,o),
(303,106,o),
(299,106,cs),
(298,106,o),
(298,106,o),
(298,106,cs),
(291,106,o),
(285,106,o),
(279,107,cs),
(265,108,o),
(253,110,o),
(233,110,cs),
(124,110,ls),
(87,110,o),
(69,82,o),
(96,55,cs),
(117,35,o),
(141,20,o),
(170,9,cs),
(190,1,o),
(205,0,o),
(225,0,cs),
(346,0,ls),
(366,0,o),
(381,1,o),
(401,9,cs),
(430,20,o),
(457,35,o),
(479,55,cs),
(506,82,o),
(488,110,o),
(451,110,cs)
);
},
{
closed = 1;
nodes = (
(82,330,ls),
(56,330,o),
(37,318,o),
(32,292,cs),
(29,275,o),
(28,258,o),
(28,240,cs),
(28,236,o),
(28,233,o),
(28,230,cs),
(28,223,o),
(45,220,o),
(73,220,cs),
(173,220,l),
(173,220,ls),
(172,204,o),
(188,194,o),
(218,194,cs),
(510,194,l),
(511,198,o),
(512,203,o),
(513,207,cs),
(515,215,o),
(496,220,o),
(465,220,cs),
(188,220,l),
(188,226,o),
(188,232,o),
(188,239,cs),
(188,257,o),
(190,273,o),
(193,287,cs),
(199,315,o),
(192,330,o),
(160,330,cs)
);
},
{
closed = 1;
nodes = (
(398,330,ls),
(367,330,o),
(353,307,o),
(353,307,cs),
(353,307,o),
(353,307,o),
(353,307,cs),
(353,305,o),
(353,300,o),
(352,297,c),
(221,297,ls),
(193,297,o),
(176,282,o),
(175,253,cs),
(173,220,l),
(77,220,ls),
(47,220,o),
(29,202,o),
(35,172,cs),
(37,163,o),
(39,153,o),
(42,144,cs),
(50,120,o),
(68,110,o),
(93,110,cs),
(195,110,ls),
(231,110,o),
(228,115,o),
(208,146,cs),
(196,164,o),
(190,190,o),
(188,220,c),
(474,220,ls),
(502,220,o),
(519,234,o),
(521,262,cs),
(521,266,o),
(521,270,o),
(521,274,cs),
(521,284,o),
(521,293,o),
(519,302,cs),
(517,321,o),
(500,330,o),
(473,330,cs)
);
},
{
closed = 1;
nodes = (
(156,440,ls),
(134,440,o),
(117,436,o),
(101,421,cs),
(88,410,o),
(77,397,o),
(68,383,cs),
(49,354,o),
(66,330,o),
(101,330,cs),
(179,330,ls),
(202,330,o),
(216,340,o),
(236,352,cs),
(251,361,o),
(267,364,o),
(281,364,cs),
(299,364,o),
(315,361,o),
(327,354,cs),
(347,342,o),
(359,330,o),
(382,330,cs),
(457,330,ls),
(491,330,o),
(510,353,o),
(493,382,cs),
(484,397,o),
(473,409,o),
(460,421,cs),
(444,436,o),
(427,440,o),
(405,440,cs)
);
}
);
width = 565;
}
);
note = e;
unicode = 101;
},
{
glyphname = f;
kernLeft = f;
kernRight = f;
lastChange = "2024-07-19 21:10:45 +0000";
layers = (
{
layerId = "F5467FAD-1970-4982-B3D3-939C01050498";
shapes = (
{
closed = 1;
nodes = (
(149,1,l),
(149,439,l),
(326,439,l),
(326,472,l),
(215,472,l),
(116,493,o),
(89,542,o),
(89,586,cs),
(89,651,o),
(142,687,o),
(202,687,cs),
(256,687,o),
(293,655,o),
(312,625,c),
(354,652,l),
(325,678,o),
(266,703,o),
(202,703,cs),
(92,703,o),
(55,636,o),
(55,589,cs),
(55,538,o),
(89,485,o),
(166,472,c),
(8,472,l),
(8,439,l),
(108,439,l),
(108,1,l)
);
}
);
width = 346;
},
{
layerId = "6DD95C5A-998B-41AB-BDFB-84A73C209871";
shapes = (
{
closed = 1;
nodes = (
(232,0,l),
(232,363,l),
(379,363,l),
(379,472,l),
(258,472,ls),
(206,472,o),
(177,507,o),
(177,539,cs),
(177,581,o),
(203,607,o),
(252,607,cs),
(306,607,o),
(326,560,o),
(332,544,c),
(455,596,l),
(439,620,o),
(373,696,o),
(252,696,cs),
(119,696,o),
(45,636,o),
(45,553,cs),
(45,503,o),
(74,480,o),
(88,472,c),
(7,472,l),
(7,363,l),
(90,363,l),
(90,0,l)
);
}
);
width = 374;
},
{
layerId = "1FDC7037-1F88-4969-8535-0F79C1EF19DB";
shapes = (
{
closed = 1;
nodes = (
(136,1,l),
(136,452,l),
(318,452,l),
(318,472,l),
(208,472,l),
(102,497,o),
(74,548,o),
(74,593,cs),
(74,662,o),
(133,699,o),
(194,699,cs),
(247,699,o),
(289,670,o),
(309,638,c),
(338,660,l),
(307,687,o),
(249,704,o),
(194,704,cs),
(89,704,o),
(57,636,o),
(57,595,cs),
(57,543,o),
(91,486,o),
(178,472,c),
(8,472,l),
(8,452,l),
(111,452,l),
(111,1,l)
);
}
);
width = 341;
},
{
guides = (
{
pos = (0,-330);
},
{
pos = (0,-220);
},
{
pos = (0,-110);
},
{
},
{
pos = (0,110);
},
{
pos = (0,220);
},
{
pos = (0,330);
},
{
pos = (0,440);
},
{
pos = (0,550);
},
{
pos = (0,660);
},
{
pos = (0,770);
}
);
layerId = "3ED9E848-BE83-4CAC-8EFF-D71BD2B4F667";
shapes = (
{
closed = 1;
nodes = (
(7,389,ls),
(7,360,o),
(23,344,o),
(52,344,cs),
(85,344,l),
(85,344,ls),
(85,335,o),
(101,330,o),
(130,330,cs),
(253,330,l),
(253,337,ls),
(253,341,o),
(269,344,o),
(298,344,cs),
(347,344,ls),
(376,344,o),
(392,360,o),
(392,389,cs),
(392,427,ls),
(392,456,o),
(376,472,o),
(347,472,cs),
(269,472,ls),
(227,472,o),
(199,499,o),
(199,528,cs),
(199,532,o),
(199,536,o),
(200,539,cs),
(201,546,o),
(184,550,o),
(154,550,cs),
(43,550,l),
(43,548,o),
(43,545,o),
(43,543,cs),
(43,527,o),
(45,514,o),
(48,504,cs),
(55,482,o),
(62,472,o),
(52,472,cs),
(52,472,ls),
(23,472,o),
(7,460,o),
(7,440,cs),
(7,440,l)
);
},
{
closed = 1;
nodes = (
(130,110,ls),
(101,110,o),
(85,94,o),
(85,65,cs),
(85,45,ls),
(85,16,o),
(101,0,o),
(130,0,cs),
(208,0,ls),
(237,0,o),
(253,16,o),
(253,45,cs),
(253,65,ls),
(253,94,o),
(237,110,o),
(208,110,cs)
);
},
{
closed = 1;
nodes = (
(130,220,ls),
(101,220,o),
(85,204,o),
(85,175,cs),
(85,155,ls),
(85,126,o),
(101,110,o),
(130,110,cs),
(208,110,ls),
(237,110,o),
(253,126,o),
(253,155,cs),
(253,175,ls),
(253,204,o),
(237,220,o),
(208,220,cs)
);
},
{
closed = 1;
nodes = (
(130,330,ls),
(101,330,o),
(85,314,o),
(85,285,cs),
(85,265,ls),
(85,236,o),
(101,220,o),
(130,220,cs),
(208,220,ls),
(237,220,o),
(253,236,o),
(253,265,cs),
(253,285,ls),
(253,314,o),
(237,330,o),
(208,330,cs)
);
},
{
closed = 1;
nodes = (
(85,644,o),
(66,624,o),
(54,599,cs),
(41,570,o),
(63,550,o),
(94,550,cs),
(168,550,ls),
(192,550,o),
(202,563,o),
(222,577,cs),
(232,583,o),
(246,587,o),
(264,587,cs),
(298,587,o),
(317,568,o),
(327,550,cs),
(329,546,o),
(331,541,o),
(333,537,cs),
(336,529,o),
(352,530,o),
(379,541,cs),
(431,563,ls),
(461,576,o),
(470,601,o),
(446,624,cs),
(413,656,o),
(353,694,o),
(264,694,cs),
(201,694,o),
(149,682,o),
(112,660,cs)
);
}
);
width = 382;
}
);
note = f;
unicode = 102;
},
